<?xml version="1.0" encoding="utf-8" ?>
<svg xmlns="http://www.w3.org/2000/svg" xmlns:xlink="http://www.w3.org/1999/xlink" width="27" height="32">
	<defs>
		<clipPath id="clip_0">
			<rect x="-782" y="-579" width="1920" height="1200" clip-rule="evenodd"/>
		</clipPath>
	</defs>
	<g clip-path="url(#clip_0)">
		<path fill="rgb(255,255,255)" stroke="none" d="M22.5185 11.9188L22.5185 8.59259C22.5185 3.85481 18.2649 0 13.037 0C7.80919 0 3.55556 3.85481 3.55556 8.59259L3.55556 11.9188C1.54015 12.2661 0 14.0225 0 16.1363L0 27.7167C0 30.0782 1.92178 32 4.28385 32L21.7902 32C24.1523 32 26.0741 30.0782 26.0741 27.7161L26.0741 16.1357C26.0741 14.0225 24.5339 12.2661 22.5185 11.9188ZM4.74074 8.59259C4.74074 4.50785 8.46222 1.18519 13.037 1.18519C17.6119 1.18519 21.3333 4.50785 21.3333 8.59259L21.3333 11.8519L4.74074 11.8519L4.74074 8.59259ZM21.7902 30.8148C23.4987 30.8148 24.8889 29.4246 24.8889 27.7161L24.8889 16.1357C24.8889 14.4273 23.4987 13.037 21.7902 13.037L4.28385 13.037C2.57541 13.037 1.18519 14.4273 1.18519 16.1357L1.18519 27.7161C1.18519 29.4246 2.57541 30.8148 4.28385 30.8148L21.7902 30.8148Z" fill-rule="evenodd"/>
	</g>
	<defs>
		<clipPath id="clip_1">
			<rect x="-782" y="-579" width="1920" height="1200" clip-rule="evenodd"/>
		</clipPath>
	</defs>
	<g clip-path="url(#clip_1)">
		<path fill="rgb(255,255,255)" stroke="none" transform="translate(10.6667 16.5926)" d="M0 2.37037C0 1.06311 1.06311 0 2.37037 0C3.67763 0 4.74074 1.06311 4.74074 2.37037L4.74074 5.92593C4.74074 7.23319 3.67763 8.2963 2.37037 8.2963C1.06311 8.2963 0 7.23319 0 5.92593L0 2.37037ZM2.37037 7.11111C3.024 7.11111 3.55556 6.57956 3.55556 5.92593L3.55556 2.37037C3.55556 1.71674 3.024 1.18519 2.37037 1.18519C1.71674 1.18519 1.18519 1.71674 1.18519 2.37037L1.18519 5.92593C1.18519 6.57956 1.71674 7.11111 2.37037 7.11111Z" fill-rule="evenodd"/>
	</g>

</svg>