<?xml version="1.0" encoding="utf-8" ?>
<svg xmlns="http://www.w3.org/2000/svg" xmlns:xlink="http://www.w3.org/1999/xlink" width="32" height="23">
	<defs>
		<clipPath id="clip_0">
			<rect x="-780" y="-482" width="1920" height="1200" clip-rule="evenodd"/>
		</clipPath>
	</defs>
	<g clip-path="url(#clip_0)">
		<path fill="rgb(255,255,255)" stroke="none" transform="translate(18.8555 11.1114)" d="M6.2535 6.3986C6.1305 6.3986 6.0075 6.3536 5.9115 6.2626L0.157496 0.864604C-0.0435039 0.676604 -0.0535039 0.359604 0.135496 0.158604C0.324496 -0.0443958 0.639496 -0.0533958 0.842496 0.136604L6.5965 5.5346C6.7975 5.7226 6.8075 6.0396 6.6185 6.2406C6.5195 6.3456 6.3875 6.3986 6.2535 6.3986Z"/>
	</g>
	<defs>
		<clipPath id="clip_1">
			<rect x="-780" y="-482" width="1920" height="1200" clip-rule="evenodd"/>
		</clipPath>
	</defs>
	<g clip-path="url(#clip_1)">
		<path fill="rgb(255,255,255)" stroke="none" transform="translate(5.40161 11.1125)" d="M0.500496 6.39747C0.367496 6.39747 0.234496 6.34447 0.135496 6.23947C-0.0535039 6.03847 -0.0435039 5.72147 0.157496 5.53347L5.9135 0.135466C6.1155 -0.0525337 6.4325 -0.0445337 6.6205 0.157466C6.8095 0.358466 6.7995 0.675466 6.5985 0.863466L0.842496 6.26147C0.746496 6.35247 0.623496 6.39747 0.500496 6.39747Z"/>
	</g>
	<defs>
		<clipPath id="clip_2">
			<rect x="-780" y="-482" width="1920" height="1200" clip-rule="evenodd"/>
		</clipPath>
	</defs>
	<g clip-path="url(#clip_2)">
		<path fill="rgb(255,255,255)" stroke="none" transform="translate(0 0.481995)" d="M2.5 22.047L28.512 22.047C29.89 22.047 31.012 20.926 31.012 19.547L31.012 2.5C31.012 1.121 29.89 0 28.512 0L2.5 0C1.122 0 0 1.121 0 2.5L0 19.547C0 20.926 1.122 22.047 2.5 22.047ZM1 2.5C1 1.673 1.673 1 2.5 1L28.512 1C29.339 1 30.012 1.673 30.012 2.5L30.012 19.547C30.012 20.374 29.339 21.047 28.512 21.047L2.5 21.047C1.673 21.047 1 20.374 1 19.547L1 2.5Z" fill-rule="evenodd"/>
	</g>
	<defs>
		<clipPath id="clip_3">
			<rect x="-780" y="-482" width="1920" height="1200" clip-rule="evenodd"/>
		</clipPath>
	</defs>
	<g clip-path="url(#clip_3)">
		<path fill="rgb(255,255,255)" stroke="none" transform="translate(0.658447 1.27878)" d="M14.8476 12.7392C14.1826 12.7392 13.5176 12.5182 13.0116 12.0772L0.171588 0.876212C-0.0364117 0.695212 -0.0584117 0.379212 0.122588 0.170212C0.305588 -0.0377883 0.620588 -0.0567883 0.828588 0.122212L13.6686 11.3222C14.3076 11.8792 15.3876 11.8792 16.0256 11.3222L28.8496 0.140212C29.0566 -0.0407883 29.3716 -0.0207883 29.5556 0.188212C29.7366 0.397212 29.7156 0.712212 29.5076 0.894212L16.6836 12.0762C16.1766 12.5182 15.5126 12.7392 14.8476 12.7392Z"/>
	</g>

</svg>