<?xml version="1.0" encoding="utf-8" ?>
<svg xmlns="http://www.w3.org/2000/svg" xmlns:xlink="http://www.w3.org/1999/xlink" width="25" height="32">
	<defs>
		<clipPath id="clip_0">
			<rect x="-768.17993" y="-370.22" width="1881.6001" height="1176" clip-rule="evenodd"/>
		</clipPath>
	</defs>
	<g clip-path="url(#clip_0)">
		<path fill="rgb(255,255,255)" stroke="none" transform="matrix(0.98 0 0 0.98 0.140137 1.2)" d="M16.7792 20.3269L21.8741 22.8741C23.5141 23.6944 24.5333 25.3435 24.5333 27.1771L24.5333 28.8C24.5333 31.3312 16.5093 32 12.2667 32C8.024 32 0 31.3312 0 28.8L0 27.0731C0 25.3109 0.960533 23.6928 2.50773 22.8485L7.2656 20.2533C7.7184 20.0059 8 19.5323 8 19.016L8 17.2512C7.64267 16.7835 6.62027 15.3259 6.13173 13.3915C5.62827 12.9877 5.33333 12.3824 5.33333 11.7333L5.33333 9.6C5.33333 9.0864 5.52533 8.5888 5.86667 8.2L5.86667 5.3632C5.8368 5.06987 5.71947 3.3232 6.9824 1.88267C8.07787 0.6336 9.85547 0 12.2667 0C14.6779 0 16.4555 0.6336 17.5509 1.8832C18.8139 3.32373 18.6965 5.06987 18.6667 5.3632L18.6667 8.2C19.008 8.5888 19.2 9.0864 19.2 9.6L19.2 11.7333C19.2 12.5733 18.7115 13.3173 17.9589 13.6624C17.5739 14.7829 17.0443 15.8219 16.3835 16.7552C16.2507 16.9429 16.1221 17.1131 16 17.2624L16 19.0656C16 19.6032 16.2987 20.0864 16.7792 20.3269ZM12.2667 30.9333C19.5136 30.9333 23.4667 29.5237 23.4667 28.8L23.4667 27.1771C23.4667 25.7493 22.6736 24.4661 21.3968 23.8277L16.3019 21.2805C15.4576 20.8581 14.9333 20.0096 14.9333 19.0656L14.9333 16.8656L15.0661 16.7141C15.2 16.5621 15.3541 16.3632 15.5125 16.1387C16.1589 15.2267 16.6672 14.2016 17.024 13.0917L17.1093 12.8277L17.3749 12.7461C17.8283 12.6064 18.1333 12.1989 18.1333 11.7333L18.1333 9.6C18.1333 9.3008 18.0064 9.02187 17.776 8.81387L17.6 8.65493L17.6048 5.26347L17.6049 5.26198C17.6106 5.20723 17.7626 3.7318 16.7392 2.57493C15.8544 1.57387 14.3493 1.06667 12.2667 1.06667C10.1765 1.06667 8.66827 1.5776 7.78453 2.5856C6.75383 3.76128 6.92414 5.22567 6.92846 5.26285L6.92853 5.26347L6.93333 5.33333L6.93333 8.65493L6.75733 8.81333C6.52693 9.02187 6.4 9.3008 6.4 9.6L6.4 11.7333C6.4 12.0939 6.58453 12.4283 6.89333 12.6277L7.0752 12.7451L7.12373 12.9563C7.6224 15.1275 8.9296 16.7088 8.9424 16.7243L9.06667 16.8725L9.06667 19.016C9.06667 19.9221 8.57227 20.7557 7.776 21.1904L3.01813 23.7856C1.8144 24.4416 1.06667 25.7019 1.06667 27.0731L1.06667 28.8C1.06667 29.5237 5.01973 30.9333 12.2667 30.9333Z" fill-rule="evenodd"/>
	</g>

</svg>