<?xml version="1.0" encoding="utf-8" ?>
<svg xmlns="http://www.w3.org/2000/svg" xmlns:xlink="http://www.w3.org/1999/xlink" width="24" height="24">
	<defs>
		<clipPath id="clip_0">
			<rect x="-580" y="-352" width="1920" height="1200" clip-rule="evenodd"/>
		</clipPath>
	</defs>
	<g clip-path="url(#clip_0)">
		<path fill="rgb(0,160,62)" stroke="none" d="M18.8 13.6001C16.9656 13.6001 15.35 14.555 14.4241 15.9938L12.9511 15.1904C12.6112 15.0049 12.3999 14.6492 12.3999 14.262L12.3999 12.9388C12.6679 12.588 13.4347 11.4944 13.8011 10.0436C14.1791 9.74046 14.3999 9.28685 14.3999 8.80005L14.3999 7.20006C14.3999 6.81484 14.2559 6.44167 13.9999 6.15006L13.9999 4.02245C14.0223 3.80246 14.1103 2.49244 13.1631 1.41202C12.3415 0.474798 11.0084 0 9.19998 0C7.39197 0 6.05838 0.474798 5.23718 1.41202C4.28961 2.49244 4.37759 3.80241 4.4 4.02245L4.4 6.15006C4.14402 6.44167 4.00002 6.81484 4.00002 7.20006L4.00002 8.80005C4.00002 9.28685 4.22122 9.74046 4.59879 10.0436C4.96521 11.4944 5.73237 12.5881 5.99998 12.9388L5.99998 14.262C5.99998 14.6492 5.78876 15.0048 5.4492 15.1904L1.88043 17.1368C0.720794 17.7696 0 18.9832 0 20.3048L0 22C0 22.2208 0.179202 22.4 0.399983 22.4L15.0514 22.4C15.9983 23.3856 17.3287 24 18.8 24C21.6672 24 24 21.6672 24 18.8C24 15.9328 21.6672 13.6001 18.8 13.6001ZM0.800013 21.6001L0.800013 20.3048C0.800013 19.2764 1.36082 18.3316 2.26363 17.8393L5.8324 15.8924C6.42921 15.5668 6.79999 14.942 6.79999 14.262L6.79999 12.8C6.79999 12.7069 6.76718 12.6156 6.70718 12.5436C6.69719 12.5321 5.71479 11.3372 5.34317 9.71721C5.31996 9.61563 5.25757 9.52722 5.17039 9.47078C4.9384 9.32078 4.79998 9.07038 4.79998 8.8L4.79998 7.20001C4.79998 6.97562 4.89518 6.76642 5.06839 6.61C5.15239 6.53439 5.19996 6.42639 5.19996 6.31318L5.19996 4.00004C5.19996 3.98246 5.19875 3.96526 5.19635 3.94763L5.19629 3.94705C5.19273 3.91623 5.06626 2.82033 5.83835 1.93964C6.50154 1.18322 7.63234 0.800064 9.19993 0.800064C10.7619 0.800064 11.8907 1.18088 12.5547 1.93168C13.3331 2.81208 13.2047 3.93807 13.2035 3.94768C13.2011 3.96526 13.1999 3.98246 13.1999 4.00009L13.1999 6.31328C13.1999 6.42648 13.2479 6.53448 13.3319 6.61009C13.5047 6.76647 13.5999 6.97567 13.5999 7.20011L13.5999 8.8001C13.5999 9.07052 13.4619 9.32088 13.2299 9.47088C13.1423 9.52727 13.0803 9.61567 13.0571 9.7173C12.6851 11.3373 11.7027 12.5321 11.6927 12.5437C11.6332 12.6157 11.5999 12.7069 11.5999 12.8001L11.5999 14.2621C11.5999 14.9421 11.9711 15.5669 12.5679 15.8925L14.0444 16.6981C13.759 17.3412 13.6001 18.0524 13.6001 18.8001C13.6001 19.8303 13.9012 20.7914 14.42 21.6001L0.800013 21.6001ZM15.5549 21.7681C16.36 22.6476 17.5167 23.2001 18.8 23.2001C21.226 23.2001 23.2 21.2261 23.2001 18.8001C23.2001 16.3741 21.2261 14.4001 18.8001 14.4001C16.3741 14.4001 14.4001 16.3741 14.4001 18.8001C14.4001 19.9115 14.8146 20.9278 15.4968 21.7031C15.5184 21.7226 15.538 21.7444 15.5549 21.7681Z" fill-rule="evenodd"/>
	</g>
	<defs>
		<clipPath id="clip_1">
			<rect x="-580" y="-352" width="1920" height="1200" clip-rule="evenodd"/>
		</clipPath>
	</defs>
	<g clip-path="url(#clip_1)">
		<path fill="rgb(0,160,62)" stroke="none" transform="translate(16 16)" d="M5.57144 2.57144L3.42856 2.57144L3.42856 0.428557C3.42856 0.192004 3.23655 0 3 0C2.76345 0 2.57144 0.192004 2.57144 0.428557L2.57144 2.57144L0.428557 2.57144C0.192004 2.57144 0 2.76345 0 3C0 3.23655 0.192004 3.42856 0.428557 3.42856L2.57144 3.42856L2.57144 5.57144C2.57144 5.808 2.76345 6 3 6C3.23655 6 3.42856 5.808 3.42856 5.57144L3.42856 3.42856L5.57144 3.42856C5.808 3.42856 6 3.23655 6 3C6 2.76345 5.80805 2.57144 5.57144 2.57144Z"/>
	</g>

</svg>