<?xml version="1.0" encoding="utf-8" ?>
<svg xmlns="http://www.w3.org/2000/svg" xmlns:xlink="http://www.w3.org/1999/xlink" width="21" height="24">
	<defs>
		<clipPath id="clip_0">
			<rect x="-580" y="-393" width="1920" height="1200" clip-rule="evenodd"/>
		</clipPath>
	</defs>
	<g clip-path="url(#clip_0)">
		<path fill="rgb(36,168,172)" stroke="none" d="M19.819 0.142898C20.1796 0.280352 20.467 0.497033 20.6803 0.793331C20.8933 1.08946 21.0001 1.41715 21 1.77679L21 22.2234C21 22.5831 20.8935 22.9107 20.6803 23.2067C20.4669 23.5032 20.1796 23.7201 19.8189 23.8574C19.6111 23.942 19.3704 23.984 19.0969 23.984C18.5721 23.984 18.1182 23.8148 17.7353 23.4769L10.5001 16.7506L3.2648 23.4767C2.87094 23.8254 2.41727 24 1.90303 24C1.65151 24 1.41079 23.9525 1.18128 23.8574C0.82041 23.7201 0.533206 23.5032 0.319958 23.2072C0.106768 22.9108 0 22.5832 0 22.2234L0 1.77656C0 1.41693 0.106768 1.08924 0.319958 0.793109C0.533206 0.496978 0.82041 0.280019 1.18128 0.142676C1.41102 0.0476143 1.65151 0 1.90303 0L19.097 0L19.097 0.000222237C19.3486 0.000222237 19.5893 0.0478365 19.819 0.142898ZM11.9603 15.2912L18.9001 21.7314L18.9001 2.03064L2.10018 2.03064L2.10018 21.7314L9.03996 15.2912L10.5001 13.9432L11.9603 15.2912Z" fill-rule="evenodd"/>
	</g>

</svg>