<?xml version="1.0" encoding="utf-8" ?>
<svg xmlns="http://www.w3.org/2000/svg" xmlns:xlink="http://www.w3.org/1999/xlink" width="26" height="24">
	<defs>
		<clipPath id="clip_0">
			<rect x="-790" y="-352" width="1920" height="1200" clip-rule="evenodd"/>
		</clipPath>
	</defs>
	<g clip-path="url(#clip_0)">
		<path fill="rgb(0,135,203)" stroke="none" transform="translate(3.8999 9.19922)" d="M0.433333 0.857142L6.06667 0.857142C6.3063 0.857142 6.5 0.665143 6.5 0.428571C6.5 0.192 6.3063 0 6.06667 0L0.433333 0C0.1937 0 0 0.192 0 0.428571C0 0.665143 0.1937 0.857142 0.433333 0.857142Z"/>
	</g>
	<defs>
		<clipPath id="clip_1">
			<rect x="-790" y="-352" width="1920" height="1200" clip-rule="evenodd"/>
		</clipPath>
	</defs>
	<g clip-path="url(#clip_1)">
		<path fill="rgb(0,135,203)" stroke="none" transform="translate(3.8999 11.7715)" d="M11.7 0L0.433333 0C0.1937 0 0 0.192 0 0.428571C0 0.665143 0.1937 0.857142 0.433333 0.857142L11.7 0.857142C11.9396 0.857142 12.1333 0.665143 12.1333 0.428571C12.1333 0.192 11.9396 0 11.7 0Z"/>
	</g>
	<defs>
		<clipPath id="clip_2">
			<rect x="-790" y="-352" width="1920" height="1200" clip-rule="evenodd"/>
		</clipPath>
	</defs>
	<g clip-path="url(#clip_2)">
		<path fill="rgb(0,135,203)" stroke="none" transform="translate(3.8999 14.3418)" d="M11.7 0L0.433333 0C0.1937 0 0 0.192 0 0.428571C0 0.665143 0.1937 0.857142 0.433333 0.857142L11.7 0.857142C11.9396 0.857142 12.1333 0.665143 12.1333 0.428571C12.1333 0.192 11.9396 0 11.7 0Z"/>
	</g>
	<defs>
		<clipPath id="clip_3">
			<rect x="-790" y="-352" width="1920" height="1200" clip-rule="evenodd"/>
		</clipPath>
	</defs>
	<g clip-path="url(#clip_3)">
		<path fill="rgb(0,135,203)" stroke="none" transform="translate(0 0.199219)" d="M23.4312 0.03L8.63633 0C7.21933 0 6.06667 1.14 6.06667 2.54143L6.06667 4.73743L2.56967 4.74471C1.15267 4.74471 0 5.88471 0 7.28614L0 16.3466C0 17.748 1.15267 18.8876 2.56967 18.8876L5.2 18.8876L5.2 23.1733C5.2 23.3503 5.31007 23.5093 5.47733 23.5731C5.52803 23.5924 5.5809 23.6019 5.63333 23.6019C5.75293 23.6019 5.87037 23.5526 5.954 23.4617L10.1591 18.8867L17.3637 18.8576C18.7807 18.8576 19.9333 17.7176 19.9333 16.3166L19.9333 16.2681L22.2127 18.7479C22.2963 18.8387 22.4137 18.888 22.5333 18.888C22.5858 18.888 22.6386 18.8786 22.6893 18.8593C22.8566 18.7954 22.9667 18.6364 22.9667 18.4594L22.9667 14.1737L23.4303 14.1737C24.8473 14.1737 26 13.0337 26 11.6327L26 2.57143C26 1.17043 24.8478 0.0304286 23.4312 0.03ZM23.4303 13.3157C24.3694 13.3157 25.1333 12.5606 25.1333 11.6319L25.1338 11.6319L25.1338 2.571C25.1338 1.64229 24.3698 0.886714 23.4308 0.886714L23.4299 0.886714L8.63547 0.856714C7.6973 0.856714 6.93333 1.61229 6.93333 2.541L6.93333 4.73529L17.3628 4.71429C18.7807 4.71429 19.9333 5.85429 19.9333 7.25571L19.9333 14.9931L22.1 17.3503L22.1 13.7443C22.1 13.5077 22.2937 13.3157 22.5333 13.3157L23.4303 13.3157ZM19.0667 16.3161C19.0667 17.2449 18.3027 18 17.3619 18L9.96493 18.03C9.8436 18.0304 9.72747 18.0814 9.646 18.1701L6.06667 22.0646L6.06667 18.4586C6.06667 18.222 5.87297 18.03 5.63333 18.03L2.56967 18.03C1.63063 18.03 0.866667 17.2744 0.866667 16.3461L0.866667 7.28571C0.866667 6.357 1.63063 5.60143 2.57053 5.60143L6.5 5.59329L6.50087 5.59329L17.3637 5.571C18.3027 5.571 19.0667 6.32657 19.0667 7.25529L19.0667 16.3161Z" fill-rule="evenodd"/>
	</g>

</svg>