<?xml version="1.0" encoding="utf-8" ?>
<svg xmlns="http://www.w3.org/2000/svg" xmlns:xlink="http://www.w3.org/1999/xlink" width="24" height="24">
	<defs>
		<clipPath id="clip_0">
			<rect x="-766" y="-393" width="1920" height="1200" clip-rule="evenodd"/>
		</clipPath>
	</defs>
	<g clip-path="url(#clip_0)">
		<path fill="rgb(255,162,2)" stroke="none" d="M20.4843 20.4844C18.2179 22.7508 15.2046 23.9989 11.9994 23.9989C8.79427 23.9989 5.781 22.7507 3.51458 20.4843C1.24815 18.2179 0 15.2046 0 11.9994C0 8.79427 1.2482 5.78095 3.51458 3.51458C5.78095 1.2482 8.79427 0 11.9994 0C15.2046 0 18.2179 1.2482 20.4843 3.51458C22.7508 5.78095 23.9989 8.79432 23.9989 11.9995C23.9989 15.2047 22.7507 18.2179 20.4843 20.4844ZM22.7277 11.9994C22.7277 6.08385 17.915 1.27119 11.9994 1.27119C6.0839 1.27119 1.27119 6.0839 1.27119 11.9994C1.27119 17.915 6.0839 22.7277 11.9994 22.7277C17.915 22.7277 22.7277 17.915 22.7277 11.9994Z" fill-rule="evenodd"/>
	</g>
	<defs>
		<clipPath id="clip_1">
			<rect x="-766" y="-393" width="1920" height="1200" clip-rule="evenodd"/>
		</clipPath>
	</defs>
	<g clip-path="url(#clip_1)">
		<path fill="rgb(255,162,2)" stroke="none" transform="translate(4.47412 11.3633)" d="M0.635593 1.27119L14.4153 1.27119C14.7663 1.27119 15.0508 0.986594 15.0508 0.635593C15.0508 0.284593 14.7663 0 14.4153 0L0.635593 0C0.284593 0 0 0.284593 0 0.635593C-1.44517e-15 0.986644 0.284593 1.27119 0.635593 1.27119Z"/>
	</g>

</svg>