<?xml version="1.0" encoding="utf-8" ?>
<svg xmlns="http://www.w3.org/2000/svg" xmlns:xlink="http://www.w3.org/1999/xlink" width="23" height="24">
	<defs>
		<clipPath id="clip_0">
			<rect x="-579" y="-352" width="1920" height="1200" clip-rule="evenodd"/>
		</clipPath>
	</defs>
	<g clip-path="url(#clip_0)">
		<path fill="rgb(255,162,2)" stroke="none" d="M5.92889 3.42857C5.72104 4.87971 4.48031 6 2.98148 6C1.33741 6 0 4.65386 0 3C0 1.34614 1.33741 0 2.98148 0C4.48031 0 5.72104 1.12029 5.92889 2.57143L22.5741 2.57143C22.8096 2.57143 23 2.763 23 3C23 3.237 22.8096 3.42857 22.5741 3.42857L5.92889 3.42857ZM5.11111 3C5.11111 1.81843 4.15576 0.857143 2.98148 0.857143C1.8072 0.857143 0.851852 1.81843 0.851852 3C0.851852 4.18157 1.8072 5.14286 2.98148 5.14286C4.15576 5.14286 5.11111 4.18157 5.11111 3Z" fill-rule="evenodd"/>
	</g>
	<defs>
		<clipPath id="clip_1">
			<rect x="-579" y="-352" width="1920" height="1200" clip-rule="evenodd"/>
		</clipPath>
	</defs>
	<g clip-path="url(#clip_1)">
		<path fill="rgb(255,162,2)" stroke="none" transform="translate(0 18)" d="M17.0711 2.57143C17.279 1.12029 18.5197 0 20.0185 0C21.6622 0 23 1.34614 23 3C23 4.65386 21.6622 6 20.0185 6C18.5197 6 17.279 4.87971 17.0711 3.42857L0.425926 3.42857C0.190815 3.42857 0 3.237 0 3C0 2.763 0.190815 2.57143 0.425926 2.57143L17.0711 2.57143ZM17.8889 3C17.8889 4.18157 18.8442 5.14286 20.0185 5.14286C21.1928 5.14286 22.1481 4.18157 22.1481 3C22.1481 1.81843 21.1928 0.857143 20.0185 0.857143C18.8442 0.857143 17.8889 1.81843 17.8889 3Z" fill-rule="evenodd"/>
	</g>
	<defs>
		<clipPath id="clip_2">
			<rect x="-579" y="-352" width="1920" height="1200" clip-rule="evenodd"/>
		</clipPath>
	</defs>
	<g clip-path="url(#clip_2)">
		<path fill="rgb(255,162,2)" stroke="none" transform="translate(0 8.82227)" d="M14.6382 2.74886L22.5741 2.74886C22.8096 2.74886 23 2.94043 23 3.17743C23 3.41443 22.8096 3.606 22.5741 3.606L14.611 3.606C14.3652 5.06314 13.1053 6.17743 11.5882 6.17743C10.071 6.17743 8.8107 5.06314 8.56494 3.606L0.425926 3.606C0.190815 3.606 0 3.41443 0 3.17743C0 2.94043 0.190815 2.74886 0.425926 2.74886L8.53811 2.74886C8.70678 1.20557 10.0097 0 11.5882 0C13.1666 0 14.4696 1.20514 14.6382 2.74886ZM9.37037 3.08871C9.37037 4.31914 10.3653 5.32029 11.5882 5.32029C12.811 5.32029 13.806 4.31914 13.806 3.08871C13.806 1.85829 12.811 0.857143 11.5882 0.857143C10.3653 0.857143 9.37037 1.85829 9.37037 3.08871Z" fill-rule="evenodd"/>
	</g>

</svg>