<?xml version="1.0" encoding="utf-8" ?>
<svg xmlns="http://www.w3.org/2000/svg" xmlns:xlink="http://www.w3.org/1999/xlink" width="33" height="24">
	<defs>
		<clipPath id="clip_0">
			<rect x="-748" y="-390" width="1920" height="1200" clip-rule="evenodd"/>
		</clipPath>
	</defs>
	<g clip-path="url(#clip_0)">
		<path fill="rgb(0,160,62)" stroke="none" transform="translate(25.3223 10.2441)" d="M3.74586 0.560104C2.63917 0.00642044 0.564208 0 0.476419 0C0.213309 0 0 0.213464 0 0.476765C0 0.740067 0.213309 0.953531 0.476419 0.953531C1.01185 0.953594 2.56644 1.03611 3.31975 1.41301C3.38817 1.44727 3.46084 1.46342 3.53243 1.46342C3.70718 1.46342 3.87545 1.36679 3.95892 1.1998C4.07663 0.964274 3.98121 0.677897 3.74586 0.560104Z"/>
	</g>
	<defs>
		<clipPath id="clip_1">
			<rect x="-748" y="-390" width="1920" height="1200" clip-rule="evenodd"/>
		</clipPath>
	</defs>
	<g clip-path="url(#clip_1)">
		<path fill="rgb(0,160,62)" stroke="none" d="M31.5248 17.6217L29.5284 17.0566C29.4422 17.0322 29.382 16.9531 29.382 16.8643L29.382 16.2041C29.5444 16.0927 29.6994 15.9679 29.8442 15.8286C30.5461 15.1538 30.9326 14.2487 30.9326 13.28L30.9326 12.369L31.1256 11.9866C31.3375 11.5667 31.4495 11.0967 31.4495 10.6274L31.4495 8.1595C31.4495 7.89503 31.233 7.68061 30.9661 7.68061L26.3143 7.68061C24.6228 7.68061 23.2466 9.04399 23.2466 10.7197L23.2466 10.7483C23.2466 11.1385 23.3397 11.5294 23.5159 11.8784L23.7634 12.3689L23.7634 13.1511C23.7634 14.3907 24.38 15.503 25.314 16.1723L25.3142 16.8642C25.3142 16.9709 25.3142 17.0151 24.915 17.1281L23.9409 17.4038L21.1229 16.3887C21.133 16.2569 21.0882 16.123 20.9912 16.022L20.0907 15.0848L20.0907 13.5115C20.1859 13.4338 20.2797 13.354 20.3707 13.2695C21.5067 12.2147 22.1581 10.7254 22.1581 9.18357L22.1581 7.92708C22.5012 7.18761 22.675 6.4051 22.675 5.59921L22.675 0.478893C22.675 0.214416 22.4586 0 22.1916 0L14.9555 0C12.409 0 10.3372 2.05247 10.3372 4.57521L10.3372 5.59934C10.3372 6.40522 10.5111 7.18773 10.8541 7.92721L10.8541 9.00829C10.8541 10.7985 11.6576 12.4112 12.9216 13.4745L12.9216 15.0849L12.0211 16.0221C11.9241 16.123 11.8792 16.257 11.8893 16.3887L8.91516 17.4601C8.69963 17.5378 8.49937 17.6429 8.31755 17.7703L7.85052 17.539C9.24077 16.9395 9.68118 16.0963 9.70232 16.0544C9.77038 15.9196 9.77038 15.7609 9.70232 15.6261C9.35382 14.9356 9.31161 13.67 9.27771 12.653C9.26643 12.3145 9.25573 11.9947 9.2353 11.7099C9.07049 9.41286 7.30782 7.68061 5.13511 7.68061C2.96239 7.68061 1.19967 9.4128 1.03492 11.7099C1.01449 11.9947 1.00379 12.3146 0.992514 12.6532C0.958611 13.67 0.91633 14.9355 0.567896 15.626C0.499834 15.7608 0.499834 15.9195 0.567896 16.0543C0.589037 16.0962 1.02854 16.9377 2.42157 17.5379L1.12432 18.1804C0.430805 18.5242 0 19.2148 0 19.9829L0 23.5209C0 23.7853 0.216434 23.9997 0.483398 23.9997C0.750363 23.9997 0.966797 23.7853 0.966797 23.5209L0.966797 19.9829C0.966797 19.5798 1.19283 19.2175 1.55667 19.0372L3.17206 18.2371L3.73396 18.7661C4.12687 19.136 4.63089 19.3208 5.13511 19.3208C5.6392 19.3208 6.14348 19.1359 6.53626 18.7661L7.09809 18.2371L7.6248 18.498C7.37679 18.8912 7.23602 19.3522 7.23602 19.8351L7.23602 23.521C7.23602 23.7855 7.45246 23.9999 7.71942 23.9999C7.98639 23.9999 8.20282 23.7855 8.20282 23.521L8.20282 19.8351C8.20282 19.1777 8.62183 18.585 9.24554 18.3603L12.3813 17.2307L13.6867 19.1706C13.8536 19.4186 14.121 19.5776 14.4204 19.607C14.4537 19.6103 14.4869 19.6119 14.5201 19.6119C14.7842 19.6119 15.0372 19.5089 15.2263 19.3216L16.0227 18.5326L16.0227 23.521C16.0227 23.7855 16.2391 23.9999 16.5061 23.9999C16.773 23.9999 16.9895 23.7855 16.9895 23.521L16.9895 18.5326L17.7858 19.3216C17.9749 19.5089 18.2279 19.6119 18.4921 19.6119C18.5251 19.6119 18.5584 19.6103 18.5917 19.6071C18.8911 19.5777 19.1586 19.4187 19.3254 19.1707L20.6309 17.2308L23.7666 18.3604C24.3902 18.5851 24.8093 19.1778 24.8093 19.8352L24.8093 23.5211C24.8093 23.7856 25.0257 24 25.2927 24C25.5597 24 25.7761 23.7856 25.7761 23.5211L25.7761 19.8352C25.7761 19.1694 25.5091 18.5449 25.0611 18.0831L25.1805 18.0493C25.301 18.0152 25.4654 17.9685 25.6304 17.8884L26.8646 19.1111L26.8646 23.5211C26.8646 23.7856 27.081 24 27.348 24C27.6149 24 27.8314 23.7856 27.8314 23.5211L27.8314 19.1111L29.057 17.8969C29.1222 17.9297 29.1906 17.9574 29.2627 17.9778L31.2592 18.5429C31.7149 18.6718 32.0332 19.0899 32.0332 19.5595L32.0332 23.5211C32.0332 23.7856 32.2496 24 32.5166 24C32.7836 24 33 23.7856 33 23.5211L33 19.5595C33 18.6644 32.3934 17.8676 31.5248 17.6217ZM11.8209 9.00188L11.8209 7.81465C11.8209 7.74262 11.8045 7.67148 11.7728 7.60659C11.4618 6.96896 11.304 6.2924 11.304 5.59568L11.304 4.57242C11.304 2.57931 12.9421 0.957849 14.9555 0.957849L21.7082 0.957849L21.7082 5.59574C21.7082 6.29246 21.5505 6.96902 21.2394 7.60666C21.2078 7.67154 21.1913 7.74268 21.1913 7.81471L21.1913 9.17721C21.1913 10.4731 20.6651 11.6751 19.7095 12.5617C19.5902 12.6723 19.4664 12.7761 19.3384 12.8727C19.3356 12.8747 19.3328 12.8768 19.3301 12.8787C18.4349 13.5515 17.3384 13.8785 16.1933 13.8051C13.7415 13.6479 11.8209 11.5381 11.8209 9.00188ZM27.2672 15.8709C27.9817 15.8927 28.6586 15.6326 29.1709 15.1402C29.6835 14.6474 29.9658 13.9866 29.9658 13.2792L29.9658 12.2553C29.9658 12.1809 29.9833 12.1077 30.0169 12.0412L30.2609 11.5578C30.406 11.2703 30.4827 10.9485 30.4827 10.6271L30.4827 8.63846L26.3143 8.63846C25.1559 8.63846 24.2134 9.57194 24.2134 10.7194L24.2134 10.748C24.2134 10.9903 24.2712 11.2329 24.3806 11.4496L24.6792 12.0412C24.7127 12.1077 24.7302 12.1809 24.7302 12.2553L24.7302 13.1504C24.7302 14.6089 25.8683 15.8293 27.2672 15.8709ZM5.13537 15.8734C3.69188 15.8734 2.5176 14.7101 2.5176 13.2801C2.5176 13.0156 2.30117 12.8012 2.0342 12.8012C2.00713 12.8012 1.98071 12.8039 1.95486 12.8082C1.95628 12.767 1.95763 12.7258 1.95905 12.685C1.96982 12.3557 1.98019 12.0447 1.99934 11.7779C2.06108 10.9174 2.40816 10.1245 2.97664 9.5451C3.55021 8.96047 4.31681 8.63852 5.13524 8.63852C5.95366 8.63852 6.72021 8.96047 7.29384 9.5451C7.86231 10.1245 8.2094 10.9174 8.27114 11.7779C8.29022 12.0446 8.30066 12.3556 8.31162 12.6848C8.31258 12.7131 8.31355 12.7417 8.31452 12.7702C7.78858 11.9675 6.97634 11.3759 5.92685 11.0418C4.95728 10.7332 4.12339 10.7523 4.0882 10.7532C3.96161 10.7567 3.84147 10.8092 3.75362 10.8995L2.88144 11.7956C2.69614 11.986 2.70168 12.2892 2.89388 12.4727C3.08608 12.6563 3.3921 12.6508 3.57741 12.4604L4.30315 11.7148C4.92815 11.7451 6.93889 11.9767 7.7209 13.6827C7.52413 14.9398 6.43345 15.8734 5.13537 15.8734ZM16.5061 16.7962L13.8884 15.0235L13.8884 14.1296C14.5657 14.4923 15.3241 14.7192 16.1307 14.7709C16.2582 14.7791 16.3848 14.7831 16.5111 14.7831C17.4354 14.7831 18.325 14.5642 19.1239 14.1487L19.1239 15.0235L16.5061 16.7962ZM3.10116 16.7758C2.19695 16.4535 1.74339 16.0238 1.54978 15.7891C1.68178 15.4472 1.76737 15.0557 1.82531 14.6424C2.09189 15.2756 2.53836 15.8162 3.10116 16.2018L3.10116 16.7758ZM7.16912 16.2062L7.16906 16.7774C8.07237 16.4552 8.52805 16.0216 8.72057 15.7892C8.58883 15.4481 8.5033 15.0575 8.44536 14.6451C8.17859 15.2831 7.73147 15.8227 7.16912 16.2062ZM14.5426 18.6441L14.5427 18.644L15.7523 17.4457L13.4716 15.9015L12.9878 16.405L14.4912 18.6389C14.4938 18.6429 14.5 18.652 14.5157 18.6535C14.5314 18.6552 14.5392 18.6475 14.5426 18.6441ZM18.4965 18.6536C18.5122 18.6521 18.5184 18.6429 18.5211 18.639L20.0245 16.4052L19.5406 15.9016L17.26 17.4459L18.4696 18.6441L18.47 18.6445C18.4737 18.648 18.4814 18.6555 18.4965 18.6536ZM27.348 18.2352L26.251 17.1485C26.2701 17.0624 26.281 16.9681 26.2809 16.864L26.2808 16.662C26.5852 16.7609 26.9061 16.8197 27.2381 16.8295C27.2753 16.8307 27.3123 16.8312 27.3494 16.8312C27.7163 16.8312 28.0744 16.7763 28.4152 16.6715L28.4152 16.8643C28.4152 16.9598 28.4273 17.0534 28.4501 17.1434L27.348 18.2352ZM4.40002 17.8308C4.8122 18.1522 5.45808 18.1522 5.87039 17.8309L6.31989 17.4805C6.24396 17.3639 6.20232 17.2316 6.20232 17.0931L6.20239 16.6708C5.86459 16.7567 5.5063 16.8036 5.13524 16.8036C4.76373 16.8036 4.40524 16.757 4.06802 16.6705L4.06802 17.0932C4.06802 17.2316 4.02632 17.3638 3.95046 17.4804L4.40002 17.8308Z" fill-rule="evenodd"/>
	</g>
	<defs>
		<clipPath id="clip_2">
			<rect x="-748" y="-390" width="1920" height="1200" clip-rule="evenodd"/>
		</clipPath>
	</defs>
	<g clip-path="url(#clip_2)">
		<path fill="rgb(0,160,62)" stroke="none" transform="translate(29.9731 19.9766)" d="M0.479866 0C0.214852 0 0 0.214116 0 0.478221L0 3.54617C0 3.81028 0.214852 4.02439 0.479866 4.02439C0.74488 4.02439 0.959732 3.81028 0.959732 3.54617L0.959732 0.478221C0.959732 0.214179 0.74488 0 0.479866 0Z"/>
	</g>
	<defs>
		<clipPath id="clip_3">
			<rect x="-748" y="-390" width="1920" height="1200" clip-rule="evenodd"/>
		</clipPath>
	</defs>
	<g clip-path="url(#clip_3)">
		<path fill="rgb(0,160,62)" stroke="none" transform="translate(2.06689 20.6348)" d="M0.479866 0C0.214852 0 0 0.21245 0 0.474501L0 2.89135C0 3.1534 0.214852 3.36585 0.479866 3.36585C0.74488 3.36585 0.959732 3.1534 0.959732 2.89135L0.959732 0.474501C0.959732 0.212513 0.74488 0 0.479866 0Z"/>
	</g>
	<defs>
		<clipPath id="clip_4">
			<rect x="-748" y="-390" width="1920" height="1200" clip-rule="evenodd"/>
		</clipPath>
	</defs>
	<g clip-path="url(#clip_4)">
		<path fill="rgb(0,160,62)" stroke="none" transform="translate(12.4028 4.31641)" d="M7.91418 1.33775C6.11927 -0.366 2.36384 -0.0402775 0.832409 0.178833C0.350048 0.247845 0 0.635312 0 1.10014L0 2.13791C0 2.38669 0.212484 2.58838 0.474578 2.58838C0.736671 2.58838 0.949155 2.38669 0.949155 2.13791L0.949155 1.10008C0.949155 1.08476 0.959786 1.07167 0.97396 1.06963C1.58566 0.982116 2.7995 0.847095 4.05713 0.926678C5.53705 1.0202 6.60897 1.37283 7.24307 1.97478C7.4284 2.1507 7.72891 2.1507 7.91418 1.97478C8.09952 1.79885 8.09952 1.51361 7.91418 1.33775Z"/>
	</g>
	<defs>
		<clipPath id="clip_5">
			<rect x="-748" y="-390" width="1920" height="1200" clip-rule="evenodd"/>
		</clipPath>
	</defs>
	<g clip-path="url(#clip_5)">
		<path fill="rgb(0,160,62)" stroke="none" transform="translate(10.3354 21)" d="M0.479867 0C0.214852 0 0 0.21399 0 0.47794L0 2.52206C0 2.78601 0.214852 3 0.479867 3C0.744881 3 0.959733 2.78601 0.959733 2.52206L0.959733 0.47794C0.959733 0.214054 0.744881 0 0.479867 0Z"/>
	</g>
	<defs>
		<clipPath id="clip_6">
			<rect x="-748" y="-390" width="1920" height="1200" clip-rule="evenodd"/>
		</clipPath>
	</defs>
	<g clip-path="url(#clip_6)">
		<path fill="rgb(0,160,62)" stroke="none" transform="translate(21.7046 21)" d="M0.479866 0C0.214852 0 0 0.21399 0 0.47794L0 2.52206C0 2.78601 0.214852 3 0.479866 3C0.74488 3 0.959732 2.78601 0.959732 2.52206L0.959732 0.47794C0.959732 0.214054 0.74488 0 0.479866 0Z"/>
	</g>

</svg>