<?xml version="1.0" encoding="utf-8" ?>
<svg xmlns="http://www.w3.org/2000/svg" xmlns:xlink="http://www.w3.org/1999/xlink" width="1920" height="2001">
	<defs>
		<clipPath id="clip_0">
			<rect y="-1079" width="1920" height="3150" clip-rule="evenodd"/>
		</clipPath>
	</defs>
	<g clip-path="url(#clip_0)">
		<path fill="rgb(0,135,203)" fill-opacity="0.34117648" stroke="none" transform="translate(0 1432)" d="M0 0L1920 0L1920 569L0 569L0 0Z"/>
	</g>
	<defs>
		<clipPath id="clip_1">
			<rect y="-1079" width="1920" height="3150" clip-rule="evenodd"/>
		</clipPath>
	</defs>
	<g clip-path="url(#clip_1)">
		<path fill="rgb(0,40,60)" stroke="none" transform="translate(0 204.413)" d="M0 1496.59L0 22.4388C141.129 7.69091 286.318 0 434.5 0C990.616 0 1504.57 108.323 1920 291.428L1920 1227.6C1504.57 1410.71 990.616 1519.03 434.5 1519.03C286.318 1519.03 141.129 1511.34 0 1496.59Z"/>
	</g>
	<defs>
		<clipPath id="clip_2">
			<rect y="-1079" width="1920" height="3150" clip-rule="evenodd"/>
		</clipPath>
	</defs>
	<g clip-path="url(#clip_2)">
		<path fill="rgb(0,135,203)" stroke="none" transform="translate(0 0.99995)" d="M0 226.857L0 1.07553e-16C430.392 71.9941 884.205 98.9744 1353 98.9744C1544.7 98.9744 1733.89 92.5353 1920 80L1920 496C1504.57 312.791 990.616 204.405 434.5 204.405C286.318 204.405 141.129 212.1 0 226.857Z"/>
	</g>
	<defs>
		<clipPath id="clip_3">
			<rect y="-1079" width="1920" height="3150" clip-rule="evenodd"/>
		</clipPath>
	</defs>
	<g clip-path="url(#clip_3)">
		<path fill="none" stroke="rgb(255,255,255)" stroke-width="9" stroke-linecap="round" stroke-linejoin="round" transform="translate(1322 649)" d="M38 76C58.9868 76 76 58.9868 76 38C76 17.0132 58.9868 0 38 0C17.0132 0 0 17.0132 0 38C0 58.9868 17.0132 76 38 76Z"/>
	</g>
	<defs>
		<clipPath id="clip_4">
			<rect y="-1079" width="1920" height="3150" clip-rule="evenodd"/>
		</clipPath>
	</defs>
	<g clip-path="url(#clip_4)">
		<path fill="none" stroke="rgb(0,160,62)" stroke-width="9" stroke-linecap="round" stroke-linejoin="round" transform="translate(41 622)" d="M51.5 103C79.9427 103 103 79.9427 103 51.5C103 23.0573 79.9427 0 51.5 0C23.0573 0 0 23.0573 0 51.5C0 79.9427 23.0573 103 51.5 103Z"/>
	</g>
	<defs>
		<clipPath id="clip_5">
			<rect y="-1079" width="1920" height="3150" clip-rule="evenodd"/>
		</clipPath>
	</defs>
	<g clip-path="url(#clip_5)">
		<path fill="none" stroke="rgb(0,135,203)" stroke-width="9" stroke-linecap="round" stroke-linejoin="round" transform="translate(1642 1321)" d="M38 76C58.9868 76 76 58.9868 76 38C76 17.0132 58.9868 0 38 0C17.0132 0 0 17.0132 0 38C0 58.9868 17.0132 76 38 76Z"/>
	</g>
	<defs>
		<clipPath id="clip_6">
			<path d="M1747.45 621.803L1780.63 605.427Q1781.04 605.223 1781.44 605.002Q1781.85 604.78 1782.23 604.542Q1782.62 604.303 1783 604.048Q1783.37 603.793 1783.73 603.522Q1784.09 603.251 1784.44 602.965Q1784.78 602.678 1785.11 602.377Q1785.44 602.076 1785.75 601.76Q1786.07 601.445 1786.36 601.116Q1786.66 600.787 1786.94 600.445Q1787.21 600.102 1787.47 599.748Q1787.73 599.394 1787.97 599.028Q1788.21 598.662 1788.44 598.286Q1788.66 597.909 1788.86 597.523Q1789.06 597.136 1789.24 596.741Q1789.42 596.345 1789.58 595.941Q1789.74 595.537 1789.88 595.125Q1790.02 594.714 1790.14 594.295Q1790.26 593.877 1790.36 593.452Q1790.45 593.028 1790.53 592.599Q1790.6 592.17 1790.66 591.736Q1790.71 591.303 1790.74 590.866Q1790.77 590.43 1790.78 589.991Q1790.79 589.552 1790.78 589.111Q1790.77 588.671 1790.73 588.23Q1790.7 587.789 1790.64 587.348Q1790.59 586.907 1790.51 586.468Q1790.43 586.028 1790.33 585.591Q1790.23 585.154 1790.11 584.719Q1789.99 584.285 1789.84 583.855Q1789.7 583.424 1789.54 582.999Q1789.38 582.573 1789.19 582.153Q1789.01 581.733 1788.8 581.32L1772.43 548.141Q1772.22 547.727 1772 547.326Q1771.78 546.925 1771.54 546.536Q1771.3 546.148 1771.05 545.773Q1770.79 545.398 1770.52 545.038Q1770.25 544.677 1769.97 544.332Q1769.68 543.987 1769.38 543.658Q1769.08 543.328 1768.76 543.016Q1768.45 542.703 1768.12 542.407Q1767.79 542.112 1767.44 541.834Q1767.1 541.556 1766.75 541.296Q1766.39 541.037 1766.03 540.796Q1765.66 540.556 1765.29 540.335Q1764.91 540.114 1764.52 539.912Q1764.14 539.711 1763.74 539.53Q1763.35 539.349 1762.94 539.188Q1762.54 539.028 1762.13 538.888Q1761.71 538.748 1761.3 538.63Q1760.88 538.512 1760.45 538.415Q1760.03 538.318 1759.6 538.243Q1759.17 538.167 1758.74 538.114Q1758.3 538.06 1757.87 538.029Q1757.43 537.997 1756.99 537.988Q1756.55 537.978 1756.11 537.991Q1755.67 538.003 1755.23 538.038Q1754.79 538.072 1754.35 538.129Q1753.91 538.185 1753.47 538.263Q1753.03 538.341 1752.59 538.441Q1752.15 538.541 1751.72 538.662Q1751.29 538.783 1750.85 538.926Q1750.42 539.068 1750 539.232Q1749.57 539.395 1749.15 539.579Q1748.73 539.763 1748.32 539.967L1715.14 556.343Q1714.73 556.547 1714.33 556.768Q1713.92 556.99 1713.54 557.228Q1713.15 557.467 1712.77 557.722Q1712.4 557.977 1712.04 558.248Q1711.68 558.519 1711.33 558.805Q1710.99 559.092 1710.66 559.393Q1710.33 559.694 1710.02 560.01Q1709.7 560.325 1709.41 560.654Q1709.11 560.984 1708.83 561.326Q1708.56 561.668 1708.3 562.022Q1708.04 562.376 1707.8 562.742Q1707.56 563.108 1707.33 563.484Q1707.11 563.861 1706.91 564.247Q1706.71 564.634 1706.53 565.029Q1706.35 565.425 1706.19 565.829Q1706.03 566.233 1705.89 566.645Q1705.75 567.057 1705.63 567.475Q1705.51 567.893 1705.41 568.318Q1705.32 568.742 1705.24 569.171Q1705.17 569.6 1705.11 570.034Q1705.06 570.467 1705.03 570.904Q1705 571.341 1704.99 571.78Q1704.98 572.219 1704.99 572.659Q1705 573.099 1705.04 573.54Q1705.07 573.982 1705.13 574.422Q1705.18 574.863 1705.26 575.302Q1705.34 575.742 1705.44 576.179Q1705.54 576.617 1705.66 577.051Q1705.78 577.485 1705.93 577.916Q1706.07 578.346 1706.23 578.771Q1706.39 579.197 1706.58 579.617Q1706.76 580.037 1706.97 580.45L1723.34 613.629Q1723.75 614.456 1724.23 615.234Q1724.71 616.011 1725.25 616.732Q1725.79 617.453 1726.39 618.112Q1727 618.771 1727.65 619.363Q1728.31 619.954 1729.02 620.474Q1729.73 620.993 1730.48 621.435Q1731.24 621.878 1732.03 622.24Q1732.82 622.603 1733.64 622.882Q1734.47 623.162 1735.32 623.355Q1736.17 623.549 1737.03 623.656Q1737.9 623.763 1738.78 623.782Q1739.66 623.801 1740.54 623.732Q1741.42 623.663 1742.3 623.507Q1743.18 623.351 1744.05 623.108Q1744.92 622.865 1745.77 622.539Q1746.62 622.212 1747.45 621.803Z" clip-rule="evenodd"/>
		</clipPath>
	</defs>
	<g clip-path="url(#clip_6)">
		<path fill="none" stroke="rgb(0,160,62)" stroke-width="18" stroke-linecap="round" stroke-linejoin="round" transform="matrix(-0.896721 0.442596 -0.442596 -0.896721 1796.77 597.461)" d="M18 0L55 0Q55.4611 0 55.919 0.0209835Q56.377 0.041967 56.8309 0.0838912Q57.2848 0.125815 57.7338 0.188595Q58.1828 0.251374 58.6259 0.334881Q59.069 0.418387 59.5053 0.52245Q59.9417 0.626513 60.3703 0.750921Q60.799 0.875329 61.2191 1.01983Q61.6393 1.16433 62.05 1.32862Q62.4607 1.49291 62.8612 1.67667Q63.2617 1.86042 63.6512 2.06326Q64.0406 2.2661 64.4182 2.48762Q64.7958 2.70913 65.1608 2.94886Q65.5258 3.1886 65.8775 3.44606Q66.2291 3.70352 66.5667 3.97819Q66.9042 4.25286 67.227 4.54418Q67.5498 4.83549 67.8571 5.14286Q68.1645 5.45022 68.4558 5.77301Q68.7471 6.09581 69.0218 6.43336Q69.2965 6.77092 69.5539 7.12255Q69.8114 7.47418 70.0511 7.83917Q70.2909 8.20417 70.5124 8.58177Q70.7339 8.95938 70.9367 9.34883Q71.1396 9.73829 71.3233 10.1388Q71.5071 10.5393 71.6714 10.95Q71.8357 11.3608 71.9802 11.7809Q72.1247 12.201 72.2491 12.6297Q72.3735 13.0584 72.4776 13.4947Q72.5816 13.931 72.6651 14.3741Q72.7486 14.8172 72.8114 15.2662Q72.8742 15.7152 72.9161 16.1691Q72.958 16.623 72.979 17.081Q73 17.539 73 18L73 55Q73 55.4611 72.979 55.919Q72.958 56.377 72.9161 56.8309Q72.8742 57.2848 72.8114 57.7338Q72.7486 58.1828 72.6651 58.6259Q72.5816 59.069 72.4776 59.5053Q72.3735 59.9417 72.2491 60.3703Q72.1247 60.799 71.9802 61.2191Q71.8357 61.6393 71.6714 62.05Q71.5071 62.4607 71.3233 62.8612Q71.1396 63.2617 70.9367 63.6512Q70.7339 64.0406 70.5124 64.4182Q70.2909 64.7958 70.0511 65.1608Q69.8114 65.5258 69.5539 65.8775Q69.2965 66.2291 69.0218 66.5667Q68.7471 66.9042 68.4558 67.227Q68.1645 67.5498 67.8571 67.8571Q67.5498 68.1645 67.227 68.4558Q66.9042 68.7471 66.5666 69.0218Q66.2291 69.2965 65.8775 69.5539Q65.5258 69.8114 65.1608 70.0511Q64.7958 70.2909 64.4182 70.5124Q64.0406 70.7339 63.6512 70.9367Q63.2617 71.1396 62.8612 71.3233Q62.4607 71.5071 62.05 71.6714Q61.6393 71.8357 61.2191 71.9802Q60.799 72.1247 60.3703 72.2491Q59.9417 72.3735 59.5053 72.4776Q59.069 72.5816 58.6259 72.6651Q58.1828 72.7486 57.7338 72.8114Q57.2848 72.8742 56.8309 72.9161Q56.377 72.958 55.919 72.979Q55.4611 73 55 73L18 73Q17.539 73 17.081 72.979Q16.623 72.958 16.1691 72.9161Q15.7152 72.8742 15.2662 72.8114Q14.8172 72.7486 14.3741 72.6651Q13.931 72.5816 13.4947 72.4776Q13.0584 72.3735 12.6297 72.2491Q12.201 72.1247 11.7809 71.9802Q11.3608 71.8357 10.95 71.6714Q10.5393 71.5071 10.1388 71.3233Q9.73829 71.1396 9.34883 70.9367Q8.95938 70.7339 8.58178 70.5124Q8.20417 70.2909 7.83917 70.0511Q7.47418 69.8114 7.12255 69.5539Q6.77092 69.2965 6.43336 69.0218Q6.0958 68.7471 5.77301 68.4558Q5.45022 68.1645 5.14286 67.8571Q4.83549 67.5498 4.54418 67.227Q4.25286 66.9042 3.97819 66.5666Q3.70352 66.2291 3.44606 65.8775Q3.1886 65.5258 2.94886 65.1608Q2.70913 64.7958 2.48762 64.4182Q2.2661 64.0406 2.06326 63.6512Q1.86042 63.2617 1.67667 62.8612Q1.49291 62.4607 1.32862 62.05Q1.16433 61.6393 1.01983 61.2191Q0.875329 60.799 0.750921 60.3703Q0.626513 59.9417 0.52245 59.5053Q0.418387 59.069 0.334881 58.6259Q0.251374 58.1828 0.188595 57.7338Q0.125815 57.2848 0.0838912 56.8309Q0.041967 56.377 0.0209835 55.919Q0 55.4611 0 55L0 18Q0 17.539 0.0209835 17.081Q0.041967 16.623 0.0838912 16.1691Q0.125815 15.7152 0.188595 15.2662Q0.251374 14.8172 0.334881 14.3741Q0.418387 13.931 0.52245 13.4947Q0.626513 13.0584 0.750921 12.6297Q0.875329 12.201 1.01983 11.7809Q1.16433 11.3608 1.32862 10.95Q1.49291 10.5393 1.67667 10.1388Q1.86042 9.73829 2.06326 9.34883Q2.2661 8.95938 2.48762 8.58178Q2.70913 8.20417 2.94886 7.83917Q3.1886 7.47418 3.44606 7.12255Q3.70352 6.77092 3.97819 6.43336Q4.25286 6.0958 4.54418 5.77301Q4.83549 5.45022 5.14286 5.14286Q5.45022 4.83549 5.77301 4.54418Q6.09581 4.25286 6.43336 3.97819Q6.77092 3.70352 7.12255 3.44606Q7.47418 3.1886 7.83917 2.94886Q8.20417 2.70913 8.58177 2.48762Q8.95938 2.2661 9.34883 2.06326Q9.73829 1.86042 10.1388 1.67667Q10.5393 1.49291 10.95 1.32862Q11.3608 1.16433 11.7809 1.01983Q12.201 0.875329 12.6297 0.750921Q13.0584 0.626513 13.4947 0.52245Q13.931 0.418387 14.3741 0.334881Q14.8172 0.251374 15.2662 0.188595Q15.7152 0.125815 16.1691 0.0838912Q16.623 0.041967 17.081 0.0209835Q17.539 0 18 0Z"/>
	</g>
	<defs>
		<clipPath id="clip_7">
			<path d="M1600.91 237.441L1613.15 199.36Q1613.43 198.482 1613.63 197.592Q1613.83 196.701 1613.94 195.806Q1614.05 194.911 1614.08 194.018Q1614.11 193.125 1614.04 192.242Q1613.98 191.359 1613.83 190.493Q1613.69 189.627 1613.45 188.785Q1613.22 187.943 1612.9 187.131Q1612.59 186.32 1612.19 185.546Q1611.79 184.773 1611.32 184.043Q1610.84 183.313 1610.29 182.632Q1609.75 181.952 1609.13 181.327Q1608.51 180.702 1607.83 180.138Q1607.15 179.573 1606.41 179.074Q1605.67 178.574 1604.87 178.144Q1604.08 177.714 1603.24 177.356Q1602.4 176.998 1601.52 176.716L1563.44 164.475Q1563 164.334 1562.56 164.213Q1562.12 164.093 1561.67 163.994Q1561.23 163.895 1560.78 163.818Q1560.34 163.74 1559.89 163.684Q1559.44 163.628 1558.99 163.593Q1558.55 163.559 1558.1 163.546Q1557.65 163.533 1557.21 163.542Q1556.77 163.551 1556.32 163.582Q1555.88 163.613 1555.45 163.665Q1555.01 163.718 1554.58 163.792Q1554.14 163.865 1553.71 163.961Q1553.29 164.056 1552.87 164.173Q1552.45 164.289 1552.03 164.427Q1551.62 164.564 1551.21 164.722Q1550.81 164.881 1550.41 165.059Q1550.02 165.238 1549.63 165.436Q1549.24 165.635 1548.87 165.853Q1548.49 166.071 1548.12 166.308Q1547.76 166.546 1547.41 166.802Q1547.05 167.058 1546.71 167.332Q1546.37 167.606 1546.05 167.898Q1545.72 168.189 1545.41 168.498Q1545.1 168.807 1544.8 169.132Q1544.5 169.457 1544.22 169.798Q1543.94 170.138 1543.67 170.494Q1543.41 170.85 1543.16 171.22Q1542.91 171.59 1542.67 171.973Q1542.44 172.357 1542.23 172.753Q1542.01 173.15 1541.81 173.558Q1541.62 173.966 1541.44 174.385Q1541.26 174.805 1541.1 175.234Q1540.94 175.664 1540.8 176.103L1528.56 214.184Q1528.27 215.062 1528.08 215.952Q1527.88 216.843 1527.77 217.738Q1527.65 218.633 1527.63 219.526Q1527.6 220.419 1527.66 221.302Q1527.73 222.185 1527.87 223.051Q1528.02 223.917 1528.25 224.759Q1528.49 225.602 1528.8 226.413Q1529.12 227.224 1529.52 227.998Q1529.92 228.772 1530.39 229.502Q1530.87 230.232 1531.41 230.912Q1531.96 231.592 1532.58 232.217Q1533.2 232.842 1533.88 233.406Q1534.56 233.971 1535.3 234.47Q1536.04 234.97 1536.84 235.4Q1537.63 235.831 1538.47 236.188Q1539.31 236.546 1540.18 236.829L1578.27 249.069Q1578.7 249.211 1579.15 249.331Q1579.59 249.451 1580.03 249.55Q1580.48 249.649 1580.93 249.727Q1581.37 249.804 1581.82 249.86Q1582.27 249.916 1582.71 249.951Q1583.16 249.985 1583.61 249.998Q1584.05 250.011 1584.5 250.002Q1584.94 249.993 1585.38 249.962Q1585.83 249.931 1586.26 249.879Q1586.7 249.827 1587.13 249.753Q1587.57 249.679 1587.99 249.583Q1588.42 249.488 1588.84 249.372Q1589.26 249.255 1589.68 249.117Q1590.09 248.98 1590.5 248.822Q1590.9 248.664 1591.3 248.485Q1591.69 248.306 1592.08 248.108Q1592.47 247.909 1592.84 247.691Q1593.22 247.473 1593.58 247.236Q1593.95 246.998 1594.3 246.742Q1594.65 246.486 1594.99 246.212Q1595.33 245.938 1595.66 245.647Q1595.99 245.355 1596.3 245.046Q1596.61 244.737 1596.91 244.412Q1597.21 244.087 1597.49 243.747Q1597.77 243.406 1598.04 243.05Q1598.3 242.694 1598.55 242.324Q1598.8 241.954 1599.03 241.571Q1599.27 241.187 1599.48 240.791Q1599.7 240.395 1599.89 239.986Q1600.09 239.578 1600.27 239.159Q1600.45 238.739 1600.61 238.31Q1600.77 237.88 1600.91 237.441Z" clip-rule="evenodd"/>
		</clipPath>
	</defs>
	<g clip-path="url(#clip_7)">
		<path fill="none" stroke="rgb(255,255,255)" stroke-width="18" stroke-linecap="round" stroke-linejoin="round" transform="matrix(-0.306022 0.952024 -0.952024 -0.306022 1618.66 182.224)" d="M18 0L58 0Q58.4611 0 58.919 0.0209835Q59.377 0.041967 59.8309 0.0838912Q60.2848 0.125815 60.7338 0.188595Q61.1828 0.251374 61.6259 0.334881Q62.069 0.418387 62.5053 0.52245Q62.9417 0.626513 63.3703 0.750921Q63.799 0.875329 64.2191 1.01983Q64.6393 1.16433 65.05 1.32862Q65.4607 1.49291 65.8612 1.67667Q66.2617 1.86042 66.6512 2.06326Q67.0406 2.2661 67.4182 2.48762Q67.7958 2.70913 68.1608 2.94886Q68.5258 3.1886 68.8775 3.44606Q69.2291 3.70352 69.5667 3.97819Q69.9042 4.25286 70.227 4.54418Q70.5498 4.83549 70.8571 5.14286Q71.1645 5.45022 71.4558 5.77301Q71.7472 6.09581 72.0218 6.43336Q72.2965 6.77092 72.554 7.12255Q72.8114 7.47418 73.0511 7.83917Q73.2909 8.20417 73.5124 8.58177Q73.7339 8.95938 73.9368 9.34883Q74.1396 9.73829 74.3233 10.1388Q74.5071 10.5393 74.6714 10.95Q74.8357 11.3608 74.9802 11.7809Q75.1247 12.201 75.2491 12.6297Q75.3735 13.0584 75.4776 13.4947Q75.5816 13.931 75.6651 14.3741Q75.7486 14.8172 75.8114 15.2662Q75.8742 15.7152 75.9161 16.1691Q75.958 16.623 75.979 17.081Q76 17.539 76 18L76 58Q76 58.4611 75.979 58.919Q75.958 59.377 75.9161 59.8309Q75.8742 60.2848 75.8114 60.7338Q75.7486 61.1828 75.6651 61.6259Q75.5816 62.069 75.4776 62.5053Q75.3735 62.9417 75.2491 63.3703Q75.1247 63.799 74.9802 64.2191Q74.8357 64.6393 74.6714 65.05Q74.5071 65.4607 74.3233 65.8612Q74.1396 66.2617 73.9368 66.6512Q73.7339 67.0406 73.5124 67.4182Q73.2909 67.7958 73.0511 68.1608Q72.8114 68.5258 72.554 68.8775Q72.2965 69.2291 72.0218 69.5667Q71.7472 69.9042 71.4558 70.227Q71.1645 70.5498 70.8571 70.8571Q70.5498 71.1645 70.227 71.4558Q69.9042 71.7472 69.5667 72.0218Q69.2291 72.2965 68.8775 72.554Q68.5258 72.8114 68.1608 73.0511Q67.7958 73.2909 67.4182 73.5124Q67.0406 73.7339 66.6512 73.9368Q66.2617 74.1396 65.8612 74.3233Q65.4607 74.5071 65.05 74.6714Q64.6393 74.8357 64.2191 74.9802Q63.799 75.1247 63.3703 75.2491Q62.9417 75.3735 62.5053 75.4776Q62.069 75.5816 61.6259 75.6651Q61.1828 75.7486 60.7338 75.8114Q60.2848 75.8742 59.8309 75.9161Q59.377 75.958 58.919 75.979Q58.4611 76 58 76L18 76Q17.539 76 17.081 75.979Q16.623 75.958 16.1691 75.9161Q15.7152 75.8742 15.2662 75.8114Q14.8172 75.7486 14.3741 75.6651Q13.931 75.5816 13.4947 75.4776Q13.0584 75.3735 12.6297 75.2491Q12.201 75.1247 11.7809 74.9802Q11.3608 74.8357 10.95 74.6714Q10.5393 74.5071 10.1388 74.3233Q9.73829 74.1396 9.34883 73.9368Q8.95938 73.7339 8.58178 73.5124Q8.20417 73.2909 7.83917 73.0511Q7.47418 72.8114 7.12255 72.554Q6.77092 72.2965 6.43336 72.0218Q6.0958 71.7472 5.77301 71.4558Q5.45022 71.1645 5.14286 70.8571Q4.83549 70.5498 4.54418 70.227Q4.25286 69.9042 3.97819 69.5667Q3.70352 69.2291 3.44606 68.8775Q3.1886 68.5258 2.94886 68.1608Q2.70913 67.7958 2.48762 67.4182Q2.2661 67.0406 2.06326 66.6512Q1.86042 66.2617 1.67667 65.8612Q1.49291 65.4607 1.32862 65.05Q1.16433 64.6393 1.01983 64.2191Q0.875329 63.799 0.750921 63.3703Q0.626513 62.9417 0.52245 62.5053Q0.418387 62.069 0.334881 61.6259Q0.251374 61.1828 0.188595 60.7338Q0.125815 60.2848 0.0838912 59.8309Q0.041967 59.377 0.0209835 58.919Q0 58.4611 0 58L0 18Q0 17.539 0.0209835 17.081Q0.041967 16.623 0.0838912 16.1691Q0.125815 15.7152 0.188595 15.2662Q0.251374 14.8172 0.334881 14.3741Q0.418387 13.931 0.52245 13.4947Q0.626513 13.0584 0.750921 12.6297Q0.875329 12.201 1.01983 11.7809Q1.16433 11.3608 1.32862 10.95Q1.49291 10.5393 1.67667 10.1388Q1.86042 9.73829 2.06326 9.34883Q2.2661 8.95938 2.48762 8.58178Q2.70913 8.20417 2.94886 7.83917Q3.1886 7.47418 3.44606 7.12255Q3.70352 6.77092 3.97819 6.43336Q4.25286 6.0958 4.54418 5.77301Q4.83549 5.45022 5.14286 5.14286Q5.45022 4.83549 5.77301 4.54418Q6.09581 4.25286 6.43336 3.97819Q6.77092 3.70352 7.12255 3.44606Q7.47418 3.1886 7.83917 2.94886Q8.20417 2.70913 8.58177 2.48762Q8.95938 2.2661 9.34883 2.06326Q9.73829 1.86042 10.1388 1.67667Q10.5393 1.49291 10.95 1.32862Q11.3608 1.16433 11.7809 1.01983Q12.201 0.875329 12.6297 0.750921Q13.0584 0.626513 13.4947 0.52245Q13.931 0.418387 14.3741 0.334881Q14.8172 0.251374 15.2662 0.188595Q15.7152 0.125815 16.1691 0.0838912Q16.623 0.041967 17.081 0.0209835Q17.539 0 18 0Z"/>
	</g>
	<defs>
		<clipPath id="clip_8">
			<rect y="-1079" width="1920" height="3150" clip-rule="evenodd"/>
		</clipPath>
	</defs>
	<g clip-path="url(#clip_8)">
		<path fill="none" stroke="rgb(36,168,172)" stroke-width="9" stroke-linecap="round" stroke-miterlimit="4" transform="translate(1737 897)" d="M76 180.5L0 0.5"/>
	</g>
	<defs>
		<clipPath id="clip_9">
			<rect y="-1079" width="1920" height="3150" clip-rule="evenodd"/>
		</clipPath>
	</defs>
	<g clip-path="url(#clip_9)">
		<path fill="none" stroke="rgb(255,162,2)" stroke-width="9" stroke-linecap="round" stroke-linejoin="round" transform="matrix(0.210951 0.977497 -0.977497 0.210951 1427.25 370)" d="M51.0127 0C69.7747 -4.8761e-13 117.976 122 98.4149 122C77.7254 122 25.0831 122 3.61046 122C-13.0404 119.846 32.2507 4.85452e-13 51.0127 0Z"/>
	</g>
	<defs>
		<clipPath id="clip_10">
			<rect y="-1079" width="1920" height="3150" clip-rule="evenodd"/>
		</clipPath>
	</defs>
	<g clip-path="url(#clip_10)">
		<path fill="none" stroke="rgb(36,168,172)" stroke-width="9" stroke-linecap="round" stroke-linejoin="round" transform="matrix(-0.710443 0.703755 -0.703755 -0.710443 223.034 1221.67)" d="M51.0127 0C69.7747 -4.8761e-13 117.976 122 98.4149 122C77.7254 122 25.0831 122 3.61046 122C-13.0404 119.846 32.2507 4.85452e-13 51.0127 0Z"/>
	</g>

</svg>