<?xml version="1.0" encoding="utf-8" ?>
<svg xmlns="http://www.w3.org/2000/svg" xmlns:xlink="http://www.w3.org/1999/xlink" width="264" height="294">
	<defs>
		<clipPath id="clip_0">
			<rect x="-828" y="-1440" width="1920" height="3150" clip-rule="evenodd"/>
		</clipPath>
	</defs>
	<g clip-path="url(#clip_0)">
		<path fill="rgb(0,160,62)" stroke="none" transform="translate(70 53.94)" d="M44.029 34.9733C43.8538 34.9235 43.6745 34.8955 43.494 34.8858C46.1481 32.1035 47.7826 28.3449 47.7826 24.2104L47.7826 11.4961C47.7826 11.3799 47.7714 11.2665 47.7557 11.1549C47.7717 10.9253 47.7826 10.6942 47.7826 10.4608L47.7826 2.41667C47.7826 1.08194 46.6978 0 45.3597 0L29.1085 0C22.265 0 16.6977 5.55327 16.6977 12.3789L16.6977 24.2104C16.6977 28.3449 18.3319 32.1035 20.9862 34.8858C20.806 34.8955 20.6267 34.9235 20.4517 34.9733C9.00181 36.0074 0 45.6333 0 57.3183L0 67.6433C0 68.9781 1.08473 70.06 2.4229 70.06L62.0571 70.06C63.3953 70.06 64.48 68.9781 64.48 67.6433L64.48 57.3183C64.48 45.6335 55.4787 36.0077 44.029 34.9733ZM21.5435 15.5984L21.5435 12.3787C21.5435 8.21813 24.9372 4.8331 29.1085 4.8331L42.9368 4.8331L42.9368 10.4606C42.9368 13.2936 40.626 15.5984 37.7857 15.5984L21.5435 15.5984ZM37.7857 20.4317L21.5435 20.4317L21.5435 24.2102C21.5435 30.0931 26.342 34.8793 32.2401 34.8793C38.1382 34.8793 42.9368 30.0931 42.9368 24.2102L42.9368 19.0025C41.4314 19.9093 39.6687 20.4317 37.7857 20.4317ZM37.5136 39.7129L32.2401 44.973L26.9667 39.7129L37.5136 39.7129ZM4.84581 60.3933L4.84581 65.2267L59.6344 65.2267L59.6344 57.3184C59.6344 48.3668 52.8997 40.9594 44.2199 39.8591L33.9534 50.0993C33.4991 50.5524 32.8827 50.8071 32.2401 50.8071C31.5976 50.8071 30.9812 50.5524 30.5269 50.0993L20.2603 39.8591C12.1559 40.8867 5.7481 47.4119 4.93424 55.56L14.9009 55.56C16.239 55.56 17.3238 56.6419 17.3238 57.9767C17.3238 59.3114 16.239 60.3933 14.9009 60.3933L4.84581 60.3933Z" fill-rule="evenodd"/>
	</g>
	<defs>
		<clipPath id="clip_1">
			<rect x="-828" y="-1440" width="1920" height="3150" clip-rule="evenodd"/>
		</clipPath>
	</defs>
	<g clip-path="url(#clip_1)">
		<path fill="rgb(0,160,62)" stroke="none" transform="translate(129.52 0)" d="M43.4941 34.8861C43.6749 34.8958 43.8544 34.9238 44.0296 34.9736C55.4787 36.0081 64.48 45.634 64.48 57.3186L64.48 67.6433C64.48 68.9781 63.3953 70.06 62.0571 70.06L41.7855 70.06C40.4473 70.06 39.3626 68.9781 39.3626 67.6433C39.3626 66.3086 40.4473 65.2267 41.7855 65.2267L59.6342 65.2267L59.6342 57.3186C59.6342 48.367 52.8998 40.9599 44.2195 39.8594L33.953 50.0995C33.48 50.5715 32.8598 50.8074 32.2398 50.8074C31.6197 50.8074 30.9997 50.5715 30.5265 50.0995L20.26 39.8594C11.5802 40.9597 4.84579 48.367 4.84579 57.3186L4.84579 65.2264L21.9175 65.2264C23.2557 65.2264 24.3404 66.3084 24.3404 67.6431C24.3404 68.9778 23.2557 70.0598 21.9175 70.0598L2.42289 70.0598C1.08473 70.0598 0 68.9778 0 67.6431L0 57.3183C0 45.6337 9.00105 36.0079 20.4504 34.9733C20.6256 34.9235 20.8054 34.8955 20.9859 34.8858C18.3319 32.1035 16.6976 28.3449 16.6976 24.2104L16.6976 12.3789C16.6976 5.55327 22.2649 0 29.1084 0L45.3595 0C46.6977 0 47.7824 1.08194 47.7824 2.41667L47.7824 10.4608C47.7824 10.6942 47.7715 10.9253 47.7555 11.1549C47.7712 11.2665 47.7824 11.3799 47.7824 11.4961L47.7824 24.2107C47.7824 28.3451 46.1481 32.1038 43.4941 34.8861ZM37.7858 15.5986C40.6261 15.5986 42.9368 13.2939 42.9368 10.4608L42.9368 4.83334L29.1087 4.83334C24.9374 4.83334 21.5436 8.21837 21.5436 12.3789L21.5436 15.5986L37.7858 15.5986ZM42.9368 24.2104C42.9368 30.0933 38.1383 34.8796 32.2402 34.8796C26.3422 34.8796 21.5436 30.0936 21.5436 24.2107L21.5436 20.432L37.7858 20.432C39.6688 20.432 41.4315 19.9093 42.9368 19.0028L42.9368 24.2104ZM26.9668 39.7131L32.2402 44.973L37.5137 39.7131L26.9668 39.7131Z" fill-rule="evenodd"/>
	</g>
	<defs>
		<clipPath id="clip_2">
			<rect x="-828" y="-1440" width="1920" height="3150" clip-rule="evenodd"/>
		</clipPath>
	</defs>
	<g clip-path="url(#clip_2)">
		<path fill="rgb(0,160,62)" stroke="none" transform="translate(159.28 65.1)" d="M4.23336 0.72664C3.77208 0.26536 3.13224 0 2.48 0C1.82528 0 1.18792 0.26536 0.72664 0.72664C0.26288 1.18792 0 1.82776 0 2.48C0 3.13472 0.26288 3.77208 0.72664 4.23336C1.18792 4.69712 1.82528 4.96 2.48 4.96C3.13224 4.96 3.77208 4.69712 4.23336 4.23336C4.69464 3.77208 4.96 3.13472 4.96 2.48C4.96 1.82776 4.69464 1.18792 4.23336 0.72664Z"/>
	</g>
	<defs>
		<clipPath id="clip_3">
			<rect x="-828" y="-1440" width="1920" height="3150" clip-rule="evenodd"/>
		</clipPath>
	</defs>
	<g clip-path="url(#clip_3)">
		<path fill="rgb(0,160,62)" stroke="none" transform="translate(70 0)" d="M54.8411 23.619L65.008 33.6872C65.7031 34.3757 65.9112 35.4114 65.5349 36.3108C65.1585 37.2102 64.2719 37.7969 63.2888 37.7969L53.9331 37.7969C52.0942 42.2731 47.7115 45.26 42.6855 45.26L12.1554 45.26C5.45289 45.26 0 39.8601 0 33.2228L0 12.0372C0 5.3999 5.45289 0 12.1554 0L42.6857 0C49.3882 0 54.8411 5.3999 54.8411 12.0372L54.8411 23.619ZM49.7903 34.8497C50.0443 33.7565 51.027 32.982 52.1596 32.982L57.4197 32.982L50.6907 26.3184C50.2349 25.8671 49.9787 25.2546 49.9787 24.6161L49.9787 12.0372C49.9787 8.05484 46.7069 4.81489 42.6855 4.81489L12.1554 4.81489C8.13388 4.81489 4.86214 8.05484 4.86214 12.0372L4.86214 33.2228C4.86214 37.2052 8.13388 40.4451 12.1554 40.4451L42.6855 40.4451C46.1036 40.4451 49.025 38.1441 49.7903 34.8497Z" fill-rule="evenodd"/>
	</g>
	<defs>
		<clipPath id="clip_4">
			<rect x="-828" y="-1440" width="1920" height="3150" clip-rule="evenodd"/>
		</clipPath>
	</defs>
	<g clip-path="url(#clip_4)">
		<path fill="rgb(0,160,62)" stroke="none" transform="translate(128.28 78.74)" d="M23.0345 0L53.5646 0C60.2671 0 65.72 5.3999 65.72 12.0372L65.72 33.2228C65.72 39.8601 60.2671 45.26 53.5646 45.26L23.0343 45.26C16.3318 45.26 10.8789 39.8601 10.8789 33.2228L10.8789 21.641L0.711952 11.5728C0.0169087 10.8843 -0.191191 9.84862 0.185139 8.9492C0.561469 8.04978 1.44808 7.46308 2.43121 7.46308L11.7869 7.46308C13.6258 2.98692 18.0085 0 23.0345 0ZM53.5646 40.4451C57.5861 40.4451 60.8579 37.2052 60.8579 33.2228L60.8579 12.0372C60.8579 8.05484 57.5861 4.81489 53.5646 4.81489L23.0345 4.81489C19.6164 4.81489 16.695 7.11593 15.9297 10.4103C15.6757 11.5035 14.693 12.278 13.5604 12.278L8.3003 12.278L15.0293 18.9416C15.4851 19.3929 15.7413 20.0054 15.7413 20.6439L15.7413 33.2228C15.7413 37.2052 19.0131 40.4451 23.0345 40.4451L53.5646 40.4451Z" fill-rule="evenodd"/>
	</g>
	<defs>
		<clipPath id="clip_5">
			<rect x="-828" y="-1440" width="1920" height="3150" clip-rule="evenodd"/>
		</clipPath>
	</defs>
	<g clip-path="url(#clip_5)">
		<path fill="rgb(0,160,62)" stroke="none" transform="translate(160.52 94.24)" d="M17.2595 0.710698C16.2991 -0.236899 14.7413 -0.236899 13.7806 0.710698L7.24085 7.1614L4.19988 4.16184C3.2392 3.21425 1.68144 3.21425 0.720511 4.16184C-0.24017 5.10944 -0.24017 6.64598 0.720511 7.59382L5.50104 12.3092C5.98151 12.7832 6.61105 13.02 7.2406 13.02C7.87015 13.02 8.49994 12.7832 8.98016 12.3092L17.2595 4.14267C18.2202 3.19508 18.2202 1.65854 17.2595 0.710698Z"/>
	</g>
	<defs>
		<clipPath id="clip_6">
			<rect x="-828" y="-1440" width="1920" height="3150" clip-rule="evenodd"/>
		</clipPath>
	</defs>
	<g clip-path="url(#clip_6)">
		<path fill="rgb(0,160,62)" stroke="none" transform="translate(91.7 8.06)" d="M16.7194 7.91631C16.434 3.70551 13.0974 0.311229 8.95801 0.0209645C6.61084 -0.143322 4.37351 0.66215 2.65955 2.28979C0.969478 3.8946 0 6.16367 0 8.51477C0.000241404 9.8713 1.08101 10.9707 2.41428 10.9707C3.74755 10.9707 4.82832 9.8713 4.82832 8.51501C4.82832 7.50547 5.22808 6.56985 5.95423 5.88028C6.67916 5.1917 7.62909 4.84987 8.62632 4.92108C10.3738 5.04362 11.7824 6.47653 11.9029 8.25422C12.0248 10.0515 10.8666 11.6399 9.14896 12.0308C7.26891 12.4586 5.95591 14.1214 5.95591 16.0742L5.95591 17.3843C5.95591 18.7406 7.03668 19.84 8.36995 19.84C9.70323 19.84 10.784 18.7406 10.784 17.3843L10.784 16.6697C14.5243 15.5347 16.9927 11.9476 16.7194 7.91631Z"/>
	</g>
	<defs>
		<clipPath id="clip_7">
			<rect x="-828" y="-1440" width="1920" height="3150" clip-rule="evenodd"/>
		</clipPath>
	</defs>
	<g clip-path="url(#clip_7)">
		<path fill="rgb(0,160,62)" stroke="none" transform="translate(97.28 32.24)" d="M4.23336 0.72664C3.77208 0.26536 3.13224 0 2.48 0C1.82528 0 1.18792 0.26536 0.72664 0.72664C0.26288 1.18792 0 1.82776 0 2.48C0 3.13224 0.26288 3.77208 0.72664 4.23336C1.18792 4.69464 1.82528 4.96 2.48 4.96C3.13224 4.96 3.77208 4.69464 4.23336 4.23336C4.69464 3.77208 4.96 3.13224 4.96 2.48C4.96 1.82776 4.69464 1.18792 4.23336 0.72664Z"/>
	</g>
	<defs>
		<clipPath id="clip_8">
			<rect x="-828" y="-1440" width="1920" height="3150" clip-rule="evenodd"/>
		</clipPath>
	</defs>
	<g clip-path="url(#clip_8)">
		<path fill="rgb(0,160,62)" stroke="none" transform="translate(92.3199 109.12)" d="M4.23336 0.72664C3.77208 0.26536 3.13224 0 2.48 0C1.82776 0 1.18792 0.26536 0.72664 0.72664C0.26536 1.18792 0 1.82776 0 2.48C0 3.13224 0.26536 3.77208 0.72664 4.23336C1.18792 4.69464 1.82776 4.96 2.48 4.96C3.13224 4.96 3.77208 4.69464 4.23336 4.23336C4.69464 3.77208 4.96 3.13224 4.96 2.48C4.96 1.82776 4.69464 1.18792 4.23336 0.72664Z"/>
	</g>
	<defs>
		<clipPath id="clip_9">
			<rect x="-828" y="-1440" width="1920" height="3150" clip-rule="evenodd"/>
		</clipPath>
	</defs>
	<g clip-path="url(#clip_9)">
		<text fill="rgb(255,255,255)" stroke="none" transform="translate(37 137)" font-size="36" font-weight="500" font-family="Open Sans, Open Sans SemiBold" x="0" y="37.349609">
				Community
		</text>
	</g>
	<defs>
		<clipPath id="clip_10">
			<rect x="-828" y="-1440" width="1920" height="3150" clip-rule="evenodd"/>
		</clipPath>
	</defs>
	<g clip-path="url(#clip_10)">
		<text fill="rgb(255,255,255)" stroke="none" transform="translate(0 185)" font-size="19" font-family="Open Sans" x="11.459473" y="19.781738">
				Got a question? We`ve got 
		</text>
	</g>
	<defs>
		<clipPath id="clip_11">
			<rect x="-828" y="-1440" width="1920" height="3150" clip-rule="evenodd"/>
		</clipPath>
	</defs>
	<g clip-path="url(#clip_11)">
		<text fill="rgb(255,255,255)" stroke="none" transform="translate(0 185)" font-size="19" font-family="Open Sans" x="17.410889" y="45.781738">
				an answer! Join us on our 
		</text>
	</g>
	<defs>
		<clipPath id="clip_12">
			<rect x="-828" y="-1440" width="1920" height="3150" clip-rule="evenodd"/>
		</clipPath>
	</defs>
	<g clip-path="url(#clip_12)">
		<text fill="rgb(255,255,255)" stroke="none" transform="translate(0 185)" font-size="19" font-family="Open Sans" x="8.8293457" y="71.781738">
				forum, where thousands of 
		</text>
	</g>
	<defs>
		<clipPath id="clip_13">
			<rect x="-828" y="-1440" width="1920" height="3150" clip-rule="evenodd"/>
		</clipPath>
	</defs>
	<g clip-path="url(#clip_13)">
		<text fill="rgb(255,255,255)" stroke="none" transform="translate(0 185)" font-size="19" font-family="Open Sans" x="10.355469" y="97.781738">
				users are ready to give you 
		</text>
	</g>

</svg>