<?xml version="1.0" encoding="utf-8" ?>
<svg xmlns="http://www.w3.org/2000/svg" xmlns:xlink="http://www.w3.org/1999/xlink" width="264" height="340">
	<defs>
		<clipPath id="clip_0">
			<rect x="-1360" y="-1910" width="1920" height="3150" clip-rule="evenodd"/>
		</clipPath>
	</defs>
	<g clip-path="url(#clip_0)">
		<path fill="rgb(255,162,2)" stroke="none" transform="translate(75 0)" d="M103.813 4.12664L110.583 4.12664C111.83 4.12664 112.84 5.05049 112.84 6.18996L112.84 74.1475C112.84 74.4033 112.788 74.6566 112.686 74.8949C112.233 75.9568 110.925 76.4821 109.764 76.0684C107.095 75.1353 104.292 74.562 101.443 74.3662L101.387 74.3662L101.105 74.3476C100.513 74.3105 99.9108 74.2672 99.2992 74.2672C98.3717 74.2672 97.4531 74.3167 96.5504 74.3951C96.1374 74.4302 95.7335 74.49 95.325 74.5436C94.8623 74.6014 94.3929 74.6592 93.9416 74.7355C93.4044 74.8284 92.8741 74.9398 92.346 75.0595C92.0594 75.1276 91.7728 75.1936 91.4907 75.2658C90.8655 75.4268 90.2472 75.6001 89.6378 75.7961L89.2406 75.9302C84.7112 77.4663 80.6592 79.9882 77.4353 83.2777L77.3676 83.3458C76.8816 83.8521 76.413 84.3746 75.9616 84.9139C75.8759 85.0212 75.7901 85.1223 75.7066 85.2275C75.3018 85.7256 74.9167 86.2365 74.5511 86.7606C74.4405 86.9174 74.3367 87.0804 74.2307 87.2393C73.8944 87.7448 73.5694 88.2523 73.2693 88.7764C73.1677 88.9559 73.0797 89.1396 72.9827 89.3212C71.9987 91.1418 71.2483 93.0604 70.7462 95.0386C70.2316 97.0258 69.9681 99.0605 69.9608 101.103C69.9608 101.668 70.0059 102.225 70.0556 102.782L70.0736 103.022C70.0776 103.071 70.0793 103.121 70.0793 103.171C70.0762 104.311 69.0632 105.232 67.8168 105.229L2.2568 105.229C1.01048 105.229 0 104.305 0 103.166L0 6.18996C0 5.05049 1.01048 4.12664 2.2568 4.12664L9.0272 4.12664L9.0272 2.06332C9.0272 0.923852 10.0377 0 11.284 0C12.5303 0 13.5408 0.923852 13.5408 2.06332L13.5408 4.12664L18.0544 4.12664L18.0544 2.06332C18.0544 0.923852 19.0649 0 20.3112 0C21.5575 0 22.568 0.923852 22.568 2.06332L22.568 4.12664L27.0816 4.12664L27.0816 2.06332C27.0816 0.923852 28.0921 0 29.3384 0C30.5847 0 31.5952 0.923852 31.5952 2.06332L31.5952 4.12664L36.1088 4.12664L36.1088 2.06332C36.1088 0.923852 37.1193 0 38.3656 0C39.6119 0 40.6224 0.923852 40.6224 2.06332L40.6224 4.12664L72.2176 4.12664L72.2176 2.06332C72.2176 0.923852 73.2281 0 74.4744 0C75.7207 0 76.7312 0.923852 76.7312 2.06332L76.7312 4.12664L81.2448 4.12664L81.2448 2.06332C81.2448 0.923852 82.2553 0 83.5016 0C84.7479 0 85.7584 0.923852 85.7584 2.06332L85.7584 4.12664L90.272 4.12664L90.272 2.06332C90.272 0.923852 91.2825 0 92.5288 0C93.7751 0 94.7856 0.923852 94.7856 2.06332L94.7856 4.12664L99.2992 4.12664L99.2992 2.06332C99.2992 0.923852 100.31 0 101.556 0C102.802 0 103.813 0.923852 103.813 2.06332L103.813 4.12664ZM4.5136 18.5699L108.326 18.5699L108.326 8.25328L103.813 8.25328L103.813 10.3166C103.813 11.4561 102.802 12.3799 101.556 12.3799C100.31 12.3799 99.2992 11.4561 99.2992 10.3166L99.2992 8.25328L94.7856 8.25328L94.7856 10.3166C94.7856 11.4561 93.7751 12.3799 92.5288 12.3799C91.2825 12.3799 90.272 11.4561 90.272 10.3166L90.272 8.25328L85.7584 8.25328L85.7584 10.3166C85.7584 11.4561 84.7479 12.3799 83.5016 12.3799C82.2553 12.3799 81.2448 11.4561 81.2448 10.3166L81.2448 8.25328L76.7312 8.25328L76.7312 10.3166C76.7312 11.4561 75.7207 12.3799 74.4744 12.3799C73.2281 12.3799 72.2176 11.4561 72.2176 10.3166L72.2176 8.25328L40.6224 8.25328L40.6224 10.3166C40.6224 11.4561 39.6119 12.3799 38.3656 12.3799C37.1193 12.3799 36.1088 11.4561 36.1088 10.3166L36.1088 8.25328L31.5952 8.25328L31.5952 10.3166C31.5952 11.4561 30.5847 12.3799 29.3384 12.3799C28.0921 12.3799 27.0816 11.4561 27.0816 10.3166L27.0816 8.25328L22.568 8.25328L22.568 10.3166C22.568 11.4561 21.5575 12.3799 20.3112 12.3799C19.0649 12.3799 18.0544 11.4561 18.0544 10.3166L18.0544 8.25328L13.5408 8.25328L13.5408 10.3166C13.5408 11.4561 12.5303 12.3799 11.284 12.3799C10.0377 12.3799 9.0272 11.4561 9.0272 10.3166L9.0272 8.25328L4.5136 8.25328L4.5136 18.5699ZM108.326 71.2919C106.845 70.9122 105.337 70.6259 103.813 70.4356L103.813 28.8865C103.813 27.747 102.802 26.8232 101.556 26.8232L11.284 26.8232C10.0377 26.8232 9.0272 27.747 9.0272 28.8865L9.0272 94.9127C9.0272 96.0522 10.0377 96.9761 11.284 96.9761L65.7835 96.9761C65.5708 98.3433 65.4585 99.7218 65.4472 101.103L4.5136 101.103L4.5136 22.6965L108.326 22.6965L108.326 71.2919ZM13.5408 43.3297L13.5408 30.9498L27.0816 30.9498L27.0816 43.3297L13.5408 43.3297ZM31.5952 43.3297L31.5952 30.9498L45.136 30.9498L45.136 43.3297L31.5952 43.3297ZM49.6496 43.3297L49.6496 30.9498L63.1904 30.9498L63.1904 43.3297L49.6496 43.3297ZM67.704 43.3297L67.704 30.9498L81.2448 30.9498L81.2448 43.3297L67.704 43.3297ZM85.7584 43.3297L85.7584 30.9498L99.2992 30.9498L99.2992 43.3297L85.7584 43.3297ZM13.5408 47.4564L13.5408 59.8363L27.0816 59.8363L27.0816 47.4564L13.5408 47.4564ZM31.5952 47.4564L31.5952 59.8363L45.136 59.8363L45.136 47.4564L31.5952 47.4564ZM49.6496 47.4564L49.6496 59.8363L63.1904 59.8363L63.1904 47.4564L49.6496 47.4564ZM67.704 47.4564L67.704 59.8363L81.2448 59.8363L81.2448 47.4564L67.704 47.4564ZM99.2992 59.8363L99.2992 47.4564L85.7584 47.4564L85.7584 59.8363L99.2992 59.8363ZM13.5408 63.9629L13.5408 76.3429L27.0816 76.3429L27.0816 63.9629L13.5408 63.9629ZM31.5952 63.9629L31.5952 76.3429L45.136 76.3429L45.136 63.9629L31.5952 63.9629ZM49.6496 63.9629L49.6496 76.3429L63.1904 76.3429L63.1904 63.9629L49.6496 63.9629ZM81.2448 74.9687C80.4685 75.4185 79.7192 75.8972 78.988 76.4006L78.988 76.3429L67.704 76.3429L67.704 63.9629L81.2448 63.9629L81.2448 74.9687ZM96.1713 70.2973C97.2049 70.2086 98.2475 70.1529 99.3037 70.1529L99.3037 63.9629L85.7629 63.9629L85.7629 72.7547C86.5528 72.4391 87.3652 72.1646 88.1867 71.9026C88.2725 71.8758 88.356 71.8448 88.4417 71.8159C89.1188 71.6096 89.7958 71.426 90.4729 71.2568C90.8159 71.1701 91.1612 71.0896 91.5065 71.0133C92.0707 70.8874 92.6687 70.774 93.2126 70.6811C93.7565 70.5883 94.3072 70.5181 94.8601 70.45C95.2979 70.3984 95.7199 70.3345 96.1713 70.2973ZM27.0816 80.4695L27.0816 92.8494L13.5408 92.8494L13.5408 80.4695L27.0816 80.4695ZM45.136 80.4695L45.136 92.8494L31.5952 92.8494L31.5952 80.4695L45.136 80.4695ZM63.1904 80.4695L63.1904 92.8494L49.6496 92.8494L49.6496 80.4695L63.1904 80.4695ZM69.848 85.8981C69.9202 85.7805 70.0037 85.6691 70.0827 85.5515C71.2458 83.7365 72.6066 82.0338 74.1449 80.4695L67.7108 80.4695L67.7108 90.0619C67.7333 90.0103 67.7582 89.9628 67.7807 89.9113C67.9974 89.3996 68.2276 88.892 68.4736 88.3947C68.6225 88.0914 68.785 87.7964 68.9452 87.4992C69.2296 86.9586 69.523 86.4201 69.848 85.8981Z" fill-rule="evenodd"/>
	</g>
	<defs>
		<clipPath id="clip_1">
			<rect x="-1360" y="-1910" width="1920" height="3150" clip-rule="evenodd"/>
		</clipPath>
	</defs>
	<g clip-path="url(#clip_1)">
		<path fill="rgb(255,162,2)" stroke="none" transform="translate(149.4 78.4954)" d="M0 22.7523C0 10.1866 11.1034 0 24.8 0C38.4899 0.0147373 49.5839 10.1928 49.6 22.7523C49.6 35.318 38.4966 45.5046 24.8 45.5046C11.1034 45.5046 0 35.318 0 22.7523ZM4.50909 22.7523C4.50909 33.0332 13.5938 41.3678 24.8 41.3678C36.0011 41.3564 45.0785 33.0286 45.0909 22.7523C45.0909 12.4711 36.0065 4.13678 24.8 4.13678C13.5938 4.13678 4.50909 12.4711 4.50909 22.7523Z" fill-rule="evenodd"/>
	</g>
	<defs>
		<clipPath id="clip_2">
			<rect x="-1360" y="-1910" width="1920" height="3150" clip-rule="evenodd"/>
		</clipPath>
	</defs>
	<g clip-path="url(#clip_2)">
		<path fill="rgb(255,162,2)" stroke="none" transform="translate(165.52 88.7339)" d="M21.637 0.57141C20.7699 -0.19047 19.395 -0.19047 18.528 0.57141L8.92254 9.30797L3.79202 4.64155C2.90319 3.86059 1.48687 3.88298 0.628239 4.69141C-0.209413 5.48 -0.209413 6.73055 0.628239 7.51914L7.34065 13.6244C8.21438 14.4188 9.6307 14.4188 10.5044 13.6244L21.6918 3.449C22.5504 2.64057 22.5258 1.35237 21.637 0.57141Z"/>
	</g>
	<defs>
		<clipPath id="clip_3">
			<rect x="-1360" y="-1910" width="1920" height="3150" clip-rule="evenodd"/>
		</clipPath>
	</defs>
	<g clip-path="url(#clip_3)">
		<text fill="rgb(255,255,255)" stroke="none" transform="translate(75 137)" font-size="36" font-weight="500" font-family="Open Sans, Open Sans SemiBold" x="0" y="37.349609">
				Events
		</text>
	</g>
	<defs>
		<clipPath id="clip_4">
			<rect x="-1360" y="-1910" width="1920" height="3150" clip-rule="evenodd"/>
		</clipPath>
	</defs>
	<g clip-path="url(#clip_4)">
		<text fill="rgb(255,255,255)" stroke="none" transform="translate(0 182)" font-size="19" font-family="Open Sans" x="0" y="19.781738">
				There`s some much 
		</text>
	</g>
	<defs>
		<clipPath id="clip_5">
			<rect x="-1360" y="-1910" width="1920" height="3150" clip-rule="evenodd"/>
		</clipPath>
	</defs>
	<g clip-path="url(#clip_5)">
		<text fill="rgb(255,255,255)" stroke="none" transform="translate(0 182)" font-size="19" font-family="Open Sans" x="0" y="45.781738">
				happening in IT industry. 
		</text>
	</g>
	<defs>
		<clipPath id="clip_6">
			<rect x="-1360" y="-1910" width="1920" height="3150" clip-rule="evenodd"/>
		</clipPath>
	</defs>
	<g clip-path="url(#clip_6)">
		<text fill="rgb(255,255,255)" stroke="none" transform="translate(0 182)" font-size="19" font-family="Open Sans" x="0" y="71.781738">
				Don`t want to miss 
		</text>
	</g>
	<defs>
		<clipPath id="clip_7">
			<rect x="-1360" y="-1910" width="1920" height="3150" clip-rule="evenodd"/>
		</clipPath>
	</defs>
	<g clip-path="url(#clip_7)">
		<text fill="rgb(255,255,255)" stroke="none" transform="translate(0 182)" font-size="19" font-family="Open Sans" x="0" y="97.781738">
				anything? Check out our 
		</text>
	</g>
	<defs>
		<clipPath id="clip_8">
			<rect x="-1360" y="-1910" width="1920" height="3150" clip-rule="evenodd"/>
		</clipPath>
	</defs>
	<g clip-path="url(#clip_8)">
		<text fill="rgb(255,255,255)" stroke="none" transform="translate(0 182)" font-size="19" font-family="Open Sans" x="0" y="123.78174">
				events calendar, where we 
		</text>
	</g>
	<defs>
		<clipPath id="clip_9">
			<rect x="-1360" y="-1910" width="1920" height="3150" clip-rule="evenodd"/>
		</clipPath>
	</defs>
	<g clip-path="url(#clip_9)">
		<text fill="rgb(255,255,255)" stroke="none" transform="translate(0 182)" font-size="19" font-family="Open Sans" x="0" y="149.78174">
				store every presentation or 
		</text>
	</g>

</svg>