<?xml version="1.0" encoding="utf-8" ?>
<svg xmlns="http://www.w3.org/2000/svg" xmlns:xlink="http://www.w3.org/1999/xlink" width="264" height="315">
	<defs>
		<clipPath id="clip_0">
			<rect x="-282" y="-1910" width="1920" height="3150" clip-rule="evenodd"/>
		</clipPath>
	</defs>
	<g clip-path="url(#clip_0)">
		<path fill="rgb(0,135,203)" stroke="none" transform="translate(70 0)" d="M97.9542 6.82231C120.555 18.3074 126.757 42.4088 122.958 59.9419C120.664 70.6869 116.252 81.0261 109.909 90.5237C108.744 92.3715 107.76 93.9622 107.026 95.3788C107.282 101.521 115.614 118.622 118.13 120.245C118.971 120.786 119.319 121.718 118.999 122.572C118.684 123.414 117.769 123.989 116.729 124L55.9362 124C55.291 124 54.6724 123.782 54.2164 123.395C53.7602 123.007 53.504 122.482 53.5043 121.934C53.1774 118.509 51.9646 115.188 49.953 112.208C42.9856 114.265 35.7033 115.451 28.3346 115.729C26.7137 115.771 25.0948 115.603 23.5329 115.232C15.7511 113.072 16.3042 108.545 16.708 105.24C16.8188 104.477 16.883 103.71 16.9003 102.942C16.9072 102.631 16.8818 102.32 16.8243 102.013C16.7294 101.994 16.6319 101.978 16.5299 101.958C15.0766 101.741 13.7335 101.158 12.6734 100.286C11.6074 99.4613 11.0936 98.2404 11.3033 97.0284C11.3717 96.6751 11.4988 96.3316 11.6809 96.0086C9.59351 94.9927 9.46755 92.7773 9.46755 88.4839C9.51771 87.906 9.26067 87.3392 8.76682 86.9393C8.27297 86.5393 7.59418 86.3485 6.9171 86.419C6.76892 86.4158 6.62131 86.403 6.4754 86.3807C3.94177 86.1696 1.68084 84.9392 0.39621 83.0717C-0.957291 80.3169 1.37647 77.3299 4.07886 73.8712L4.0794 73.8705C6.55861 70.7007 9.36553 67.1085 9.46755 63.6463C9.49405 60.7378 9.00391 57.8426 8.01422 55.0583C7.27872 52.8705 6.78659 50.6288 6.54408 48.3629C6.35458 44.7108 6.83304 41.0559 7.96179 37.5283C13.0248 20.1366 29.1254 6.78212 51.0299 1.80548C66.8433 -1.78118 83.68 0.0189304 97.9542 6.82231ZM111.953 119.868C107.449 113.168 102.206 100.112 102.144 95.1713C102.104 94.8474 102.157 94.5201 102.297 94.2169C103.131 92.5234 104.285 90.6932 105.622 88.5738C111.744 79.4587 115.99 69.5224 118.175 59.1933C121.68 43.0192 116.066 20.8416 95.4559 10.3693C82.3178 4.12372 66.829 2.48292 52.2881 5.79624C31.8181 10.447 17.3845 22.374 12.6825 38.52C11.6635 41.6241 11.2284 44.8457 11.3931 48.0653C11.5085 49.2977 11.7333 50.5208 12.0656 51.7244C14.84 49.8475 18.0516 48.4924 21.488 47.7486C23.456 47.429 25.4861 47.5235 27.4011 48.0242C28.6954 48.3273 29.4557 49.4645 29.0989 50.5644C28.7421 51.6641 27.4036 52.31 26.109 52.0069C24.9429 51.6868 23.7022 51.613 22.4948 51.7922C19.1063 52.6393 15.977 54.1056 13.3254 56.088C14.0606 58.5931 14.3986 61.1704 14.3305 63.7516C14.1929 68.4031 10.8325 72.7025 8.13248 76.1567L8.12622 76.1648C6.86602 77.7767 4.53052 80.7641 4.88386 81.4801C4.92889 81.5738 5.46092 81.9774 7.21347 82.2912C9.13158 82.2897 10.9693 82.9466 12.3092 84.1126C13.6492 85.2786 14.3781 86.855 14.3305 88.4842C14.2804 89.8441 14.3328 91.2053 14.4872 92.5597C15.0002 92.6141 15.9762 92.6141 16.8547 92.6141C17.9858 92.6149 18.9666 93.2775 19.2225 94.2135C19.4784 95.1496 18.941 96.1117 17.9259 96.5354C17.3372 96.7894 16.7955 97.1153 16.3181 97.5029C16.7103 97.7288 17.1579 97.8757 17.6267 97.9326C20.1108 98.422 21.7636 99.4611 21.7636 102.942C21.747 103.854 21.6741 104.763 21.545 105.668C21.1554 108.86 20.9943 110.18 25.043 111.305C31.4359 113.082 60.0702 107.273 66.9522 99.6224C67.7694 98.7195 69.2926 98.5483 70.3578 99.2401C71.4233 99.9315 71.629 101.225 70.8183 102.132C67.8393 105.443 61.633 108.459 54.5875 110.805C56.3491 113.642 57.5562 116.702 58.1618 119.868L111.953 119.868Z" fill-rule="evenodd"/>
	</g>
	<defs>
		<clipPath id="clip_1">
			<rect x="-282" y="-1910" width="1920" height="3150" clip-rule="evenodd"/>
		</clipPath>
	</defs>
	<g clip-path="url(#clip_1)">
		<path fill="rgb(0,135,203)" stroke="none" transform="translate(96.66 8.06)" d="M80.104 56.2108C80.4515 53.0322 77.8872 50.1527 74.1887 49.5683L69.5386 44.0987C69.8237 43.6525 70.0422 43.1777 70.1891 42.6854L74.6924 41.1573C76.7723 43.1664 80.141 43.8092 83.034 42.7489C85.9269 41.6886 87.685 39.1669 87.3873 36.5046C87.0897 33.8424 84.8034 31.6466 81.7269 31.0671L78.0788 24.8919C80.6379 22.6793 80.859 19.197 78.5944 16.7642C76.3298 14.3311 72.2866 13.7066 69.1572 15.3066L65.089 12.4406C65.3969 11.7577 65.558 11.0338 65.5648 10.3026C65.5714 7.77797 63.7641 5.50474 61.0029 4.56468C58.2417 3.62439 55.0838 4.20706 53.0321 6.03526L45.8328 4.50818C44.9705 1.85825 42.1385 0.0167756 38.8987 0.000113952C35.6588 -0.0165477 32.8006 1.79547 31.9005 4.43622L22.2792 6.06906C19.7696 3.77265 15.6274 3.44256 12.6579 5.30263C9.68847 7.16246 8.8396 10.6184 10.6859 13.3302L5.97142 18.6578C2.59301 19.176 0.103597 21.6306 0.00314441 24.5425C-0.0973086 27.4544 2.2188 30.0283 5.55566 30.7134L9.45398 38.8797C7.31516 40.6613 6.6837 43.374 7.86352 45.7122C9.04335 48.0502 11.7929 49.5345 14.7882 49.4505C17.7836 49.3664 20.4119 47.7317 21.4073 45.3326L34.4443 45.3326C35.5328 48.1738 38.9294 49.8941 42.3929 49.3585L50.4545 59.7638C48.3862 61.7096 47.9932 64.5517 49.4741 66.851C50.955 69.1501 53.9868 70.4041 57.0334 69.9774C60.08 69.5507 62.4761 67.5368 63.008 64.9557L69.0258 60.8741C70.1709 61.4867 71.4961 61.8137 72.8498 61.8175C76.6121 61.8197 79.7569 59.3895 80.104 56.2108ZM41.2819 6.18135C41.2819 5.04329 40.1949 4.12086 38.8537 4.12086C37.5131 4.12206 36.4266 5.04401 36.4255 6.18135C36.4255 7.31941 37.5125 8.24184 38.8537 8.24184C40.1949 8.24184 41.2819 7.31941 41.2819 6.18135ZM19.427 10.3026C19.427 9.16451 18.3399 8.24208 16.9988 8.24208C15.6582 8.24329 14.5717 9.16499 14.5705 10.3026C14.5705 11.4406 15.6576 12.3631 16.9988 12.3631C18.3399 12.3631 19.427 11.4406 19.427 10.3026ZM58.2801 8.24208C59.6213 8.24208 60.7084 9.16451 60.7084 10.3026C60.7084 11.4406 59.621 12.3631 58.2801 12.3631C56.9392 12.3631 55.8519 11.4406 55.8519 10.3026C55.8533 9.16499 56.9395 8.24329 58.2801 8.24208ZM32.1493 8.59657L24.2405 9.93867C24.2487 10.0613 24.2837 10.178 24.2837 10.3026C24.2798 11.4621 23.8882 12.5971 23.154 13.5753L30.7742 17.7243L35.1822 11.4901C33.833 10.8254 32.7699 9.81118 32.1493 8.59657ZM51.0478 9.86213L45.5013 8.68543C44.9941 9.63949 44.2102 10.469 43.223 11.0968L52.1141 18.6411C54.5972 18.9659 56.7082 20.3532 57.6999 22.312L65.6086 20.9699C65.6004 20.847 65.5654 20.7304 65.5654 20.6058C65.5722 19.8746 65.7336 19.1506 66.0415 18.4678L61.973 15.6017C60.8589 16.1738 59.5826 16.4787 58.2804 16.4845C54.2589 16.4809 50.9997 13.7153 50.9954 10.3028C50.9954 10.1519 51.035 10.0104 51.0478 9.86213ZM39.3349 13.626L46.6256 19.8118C45.4921 20.5384 44.6342 21.5306 44.1578 22.666L38.4061 22.666C37.8327 21.3017 36.712 20.152 35.2402 19.418L39.3349 13.626ZM14.3557 16.048C15.8352 16.5657 17.4823 16.6248 19.0081 16.2153L26.5057 20.2974C25.7077 20.9607 25.1005 21.7714 24.7314 22.666L14.1229 22.666C13.5928 21.3905 12.5848 20.2974 11.253 19.5544L14.3557 16.048ZM72.8504 18.5448C71.6993 18.5441 70.7058 19.2301 70.4728 20.1866C70.2394 21.1433 70.8308 22.107 71.8882 22.4936C71.9101 22.5006 71.9326 22.4967 71.954 22.504L71.9747 22.5156C72.2531 22.6117 72.5499 22.6626 72.8504 22.6658C74.1915 22.6658 75.2786 21.7433 75.2786 20.6053C75.2786 19.4672 74.1915 18.5448 72.8504 18.5448ZM4.85705 24.7267C4.85705 25.8648 5.9441 26.7872 7.28528 26.7872C8.62645 26.7872 9.71351 25.8648 9.71351 24.7267C9.71351 23.5887 8.62645 22.6663 7.28528 22.6663C5.94467 22.6672 4.85847 23.5892 4.85705 24.7267ZM33.997 24.7267C33.997 25.8648 32.9099 26.7872 31.5687 26.7872C30.2281 26.786 29.1416 25.8643 29.1405 24.7267C29.1405 23.5887 30.2276 22.6663 31.5687 22.6663C32.9099 22.6663 33.997 23.5887 33.997 24.7267ZM53.4237 24.7267C53.4237 25.8648 52.3366 26.7872 50.9954 26.7872C49.6548 26.786 48.5683 25.8643 48.5672 24.7267C48.5672 23.5887 49.6543 22.6663 50.9954 22.6663C52.3366 22.6663 53.4237 23.5887 53.4237 24.7267ZM68.0571 25.2239L63.5697 34.7448L55.7034 29.4048C56.7705 28.6323 57.5502 27.6136 57.9486 26.4721L67.5699 24.8393C67.7227 24.9767 67.8898 25.0989 68.0571 25.2239ZM67.9302 36.5927L72.5635 26.7626C72.6606 26.766 72.7519 26.7872 72.8501 26.7872C73.1426 26.7776 73.4343 26.7525 73.7234 26.7124L76.6636 31.6894C74.3227 32.761 72.8595 34.8331 72.8501 37.0902C72.8501 37.1737 72.8754 37.2512 72.8791 37.3341L69.6142 38.4417C69.1968 37.7402 68.6251 37.1126 67.9302 36.5927ZM14.5703 37.0899C15.0338 37.0921 15.4965 37.1317 15.9513 37.2085L26.924 29.4492C25.9257 28.7444 25.1685 27.8251 24.7311 26.7872L14.1226 26.7872C13.496 28.2757 12.2208 29.5038 10.5592 30.2183L13.8682 37.1503C14.1027 37.1307 14.3298 37.0899 14.5703 37.0899ZM44.1581 26.7872L38.4061 26.7872C38.025 27.7046 37.3939 28.5326 36.5641 29.2037L40.7327 37.1373C40.9174 37.1254 41.0941 37.0902 41.2822 37.0902C41.6152 37.0991 41.9467 37.1276 42.2751 37.1754L47.3239 30.0353C45.8521 29.3012 44.7315 28.1516 44.1581 26.7872ZM34.4446 41.2112L21.4076 41.2112C21.1484 40.594 20.7742 40.0159 20.2995 39.4991L32.2255 31.0659L36.2866 38.795C35.4568 39.4658 34.8256 40.2938 34.4446 41.2112ZM58.429 36.5333L51.6474 31.9297L46.5968 39.0736C47.1785 39.5952 47.6486 40.1987 47.9864 40.8572L56.1837 39.466C56.5821 38.3248 57.3621 37.3061 58.429 36.5333ZM80.1351 35.0294C81.3496 35.0273 82.3792 35.7869 82.5454 36.8077C82.7118 37.8284 81.9637 38.7967 80.7944 39.0744C79.6251 39.3521 78.3935 38.8539 77.9112 37.9081C77.9029 37.8892 77.9075 37.8697 77.8986 37.8508L77.8833 37.8308C77.7703 37.5953 77.7103 37.3442 77.7066 37.0899C77.7083 35.9526 78.7945 35.0307 80.1351 35.0294ZM62.8039 43.2526C64.0057 43.3931 65.1448 42.759 65.4718 41.768C65.7987 40.7768 65.2131 39.7331 64.1001 39.3236C64.0782 39.3168 64.0552 39.3199 64.0333 39.3125L64.0125 39.3009C63.7342 39.2048 63.4374 39.1538 63.1369 39.1507C61.7963 39.1516 60.7101 40.0736 60.7086 41.2112C60.7075 42.2406 61.6025 43.112 62.8039 43.2526ZM14.5703 45.3324C13.2291 45.3324 12.142 44.4097 12.142 43.2719C12.142 42.1338 13.2291 41.2114 14.5703 41.2114C15.9114 41.2114 16.9985 42.1341 16.9985 43.2719C16.9973 44.4095 15.9109 45.3312 14.5703 45.3324ZM41.2819 45.3324C39.9408 45.3324 38.8537 44.4097 38.8537 43.2719C38.8537 42.1338 39.941 41.2114 41.2819 41.2114C42.6231 41.2114 43.7102 42.1341 43.7102 43.2719C43.709 44.4095 42.6225 45.3312 41.2819 45.3324ZM65.9968 57.6531C65.7199 57.0059 65.5739 56.3238 65.5651 55.6353C65.5694 53.5266 66.8425 51.566 68.941 50.4364L65.9453 46.9128C62.2487 48.2279 57.9953 46.7583 56.4324 43.6261L48.2351 45.0173C47.9309 45.8953 47.3993 46.7044 46.6791 47.3859L54.7407 57.7912C57.5371 57.358 60.3649 58.4021 61.8976 60.4337L65.9968 57.6531ZM70.4219 55.6353C70.4219 56.7734 71.5089 57.6958 72.8501 57.6958C74.1913 57.6958 75.2783 56.7734 75.2783 55.6353C75.2783 54.4973 74.1913 53.5748 72.8501 53.5748C71.5095 53.5758 70.4233 54.4978 70.4219 55.6353ZM55.8519 65.938C54.5107 65.938 53.4237 65.0156 53.4237 63.8775C53.4237 62.7395 54.5107 61.8171 55.8519 61.8171C57.1931 61.8171 58.2801 62.7395 58.2801 63.8775C58.279 65.0151 57.1925 65.9371 55.8519 65.938Z" fill-rule="evenodd"/>
	</g>
	<defs>
		<clipPath id="clip_2">
			<rect x="-282" y="-1910" width="1920" height="3150" clip-rule="evenodd"/>
		</clipPath>
	</defs>
	<g clip-path="url(#clip_2)">
		<text fill="rgb(255,255,255)" stroke="none" transform="translate(20 137)" font-size="36" font-weight="500" font-family="Open Sans, Open Sans SemiBold" x="0" y="37.349609">
				Self-progress
		</text>
	</g>
	<defs>
		<clipPath id="clip_3">
			<rect x="-282" y="-1910" width="1920" height="3150" clip-rule="evenodd"/>
		</clipPath>
	</defs>
	<g clip-path="url(#clip_3)">
		<text fill="rgb(255,255,255)" stroke="none" transform="translate(0 182)" font-size="19" font-family="Open Sans" x="0" y="19.781738">
				Self-improving is important. 
		</text>
	</g>
	<defs>
		<clipPath id="clip_4">
			<rect x="-282" y="-1910" width="1920" height="3150" clip-rule="evenodd"/>
		</clipPath>
	</defs>
	<g clip-path="url(#clip_4)">
		<text fill="rgb(255,255,255)" stroke="none" transform="translate(0 182)" font-size="19" font-family="Open Sans" x="0" y="45.781738">
				Especially when you are a 
		</text>
	</g>
	<defs>
		<clipPath id="clip_5">
			<rect x="-282" y="-1910" width="1920" height="3150" clip-rule="evenodd"/>
		</clipPath>
	</defs>
	<g clip-path="url(#clip_5)">
		<text fill="rgb(255,255,255)" stroke="none" transform="translate(0 182)" font-size="19" font-family="Open Sans" x="0" y="71.781738">
				programmer. You can get 
		</text>
	</g>
	<defs>
		<clipPath id="clip_6">
			<rect x="-282" y="-1910" width="1920" height="3150" clip-rule="evenodd"/>
		</clipPath>
	</defs>
	<g clip-path="url(#clip_6)">
		<text fill="rgb(255,255,255)" stroke="none" transform="translate(0 182)" font-size="19" font-family="Open Sans" x="0" y="97.781738">
				our tests on pretty much 
		</text>
	</g>
	<defs>
		<clipPath id="clip_7">
			<rect x="-282" y="-1910" width="1920" height="3150" clip-rule="evenodd"/>
		</clipPath>
	</defs>
	<g clip-path="url(#clip_7)">
		<text fill="rgb(255,255,255)" stroke="none" transform="translate(0 182)" font-size="19" font-family="Open Sans" x="0" y="123.78174">
				everything. Or just start 
		</text>
	</g>

</svg>