<?xml version="1.0" encoding="utf-8" ?>
<svg xmlns="http://www.w3.org/2000/svg" xmlns:xlink="http://www.w3.org/1999/xlink" width="264" height="338">
	<defs>
		<clipPath id="clip_0">
			<rect x="-282" y="-1440" width="1920" height="3150" clip-rule="evenodd"/>
		</clipPath>
	</defs>
	<g clip-path="url(#clip_0)">
		<path fill="rgb(255,162,2)" stroke="none" transform="translate(70 0)" d="M120.549 119.867L82.1975 73.0897C81.8049 72.6123 81.22 72.3333 80.6 72.3333L80.2053 72.3333L78.9694 66.5653C80.2776 66.7451 81.5796 66.867 82.8692 66.867C86.7442 66.867 90.5221 65.8213 94.1511 62.3224C95.4221 61.0989 96.6311 59.4167 97.9125 57.6331C99.8861 54.8907 102.122 51.7803 104.234 51.057C104.236 51.0549 104.239 51.0549 104.243 51.0529C105.324 50.685 105.9 49.5132 105.534 48.4303C105.166 47.3515 103.991 46.7645 102.912 47.1407L102.908 47.1407C100.118 48.0975 97.0507 46.4235 95.2754 44.7082C93.3203 42.8213 91.9419 40.3703 90.4828 37.7766L89.6665 36.3382C88.4616 34.2426 87.0191 32.0044 85.1529 30.1382C88.6538 27.4991 90.9333 23.3161 90.9333 18.6L90.9333 2.06667C90.9333 0.9238 90.0075 0 88.8667 0L80.6 0C79.4592 0 78.5333 0.9238 78.5333 2.06667L78.5333 18.6C78.5333 19.7408 77.6054 20.6667 76.4667 20.6667L71.2173 20.6667C73.1889 18.4698 74.4 15.5785 74.4 12.4C74.4 5.5614 68.8386 0 62 0C55.1614 0 49.6 5.5614 49.6 12.4C49.6 15.5785 50.8111 18.4698 52.7827 20.6667L47.5333 20.6667C46.3946 20.6667 45.4667 19.7408 45.4667 18.6L45.4667 2.06667C45.4667 0.9238 44.5408 0 43.4 0L35.1333 0C33.9925 0 33.0667 0.9238 33.0667 2.06667L33.0667 18.6C33.0667 26.5753 39.556 33.0667 47.5333 33.0667L49.6 33.0667L49.6 45.2497L43.7947 72.3333L43.4 72.3333C42.78 72.3333 42.1951 72.6123 41.8025 73.0897L3.45133 119.867L0 119.867L0 124L124 124L124 119.867L120.549 119.867ZM53.6879 45.9007C53.7189 45.7581 53.7333 45.6113 53.7333 45.4667L53.7333 31C53.7333 29.8571 52.8075 28.9333 51.6667 28.9333L47.5333 28.9333C41.8355 28.9333 37.2 24.2978 37.2 18.6L37.2 4.13333L41.3333 4.13333L41.3333 18.6C41.3333 22.0183 44.1151 24.8 47.5333 24.8L76.4667 24.8C79.8849 24.8 82.6667 22.0183 82.6667 18.6L82.6667 4.13333L86.8 4.13333L86.8 18.6C86.8 24.2978 82.1645 28.9333 76.4667 28.9333L72.3333 28.9333C71.1925 28.9333 70.2667 29.8571 70.2667 31L70.2667 45.4667C70.2667 45.6113 70.2811 45.7581 70.3121 45.9007L75.9769 72.3333L69.8141 72.3333L64.0047 49.0999C63.7753 48.1781 62.9486 47.5333 62 47.5333C61.0514 47.5333 60.2247 48.1781 59.9953 49.0999L54.1859 72.3333L48.0231 72.3333L53.6879 45.9007ZM70.2667 12.4C70.2667 7.84093 66.5591 4.13333 62 4.13333C57.4409 4.13333 53.7333 7.84093 53.7333 12.4C53.7333 16.9591 57.4409 20.6667 62 20.6667C66.5591 20.6667 70.2667 16.9591 70.2667 12.4ZM86.0808 38.4007L86.8785 39.8081C88.4182 42.5465 90.0116 45.3778 92.4007 47.6863C93.8039 49.0399 95.6825 50.2985 97.7926 50.995C96.6601 52.297 95.5999 53.7705 94.5562 55.2213C93.3865 56.8478 92.2829 58.3833 91.2826 59.3485C87.5936 62.9031 83.8178 63.1904 78.0394 62.2335L74.4 45.2497L74.4 33.0667L76.4667 33.0667C78.1634 33.0667 79.7857 32.7587 81.3006 32.2193C83.266 33.8189 84.7602 36.1047 86.0808 38.4007ZM62 58.1209L58.4474 72.3333L65.5526 72.3333L62 58.1209ZM44.3775 76.4667L79.6225 76.4667L89.9186 89.0258L82.6667 96.2777L73.7945 87.4055C72.9864 86.5975 71.6803 86.5975 70.8722 87.4055L62 96.2777L53.1278 87.4055C52.3197 86.5975 51.0136 86.5975 50.2055 87.4055L41.3333 96.2777L34.0814 89.0258L44.3775 76.4667ZM31.4485 92.2374L8.79573 119.867L115.204 119.867L92.5515 92.2374L84.1278 100.661C83.7248 101.064 83.1957 101.267 82.6667 101.267C82.1376 101.267 81.6085 101.064 81.2055 100.661L72.3333 91.7889L63.4611 100.661C62.6531 101.469 61.3469 101.469 60.5389 100.661L51.6667 91.7889L42.7945 100.661C41.9864 101.469 40.6803 101.469 39.8722 100.661L31.4485 92.2374Z" fill-rule="evenodd"/>
	</g>
	<defs>
		<clipPath id="clip_1">
			<rect x="-282" y="-1440" width="1920" height="3150" clip-rule="evenodd"/>
		</clipPath>
	</defs>
	<g clip-path="url(#clip_1)">
		<path fill="rgb(255,162,2)" stroke="none" transform="translate(130.14 111.6)" d="M0 0L4.34 0L4.34 4.34L0 4.34L0 0Z"/>
	</g>
	<defs>
		<clipPath id="clip_2">
			<rect x="-282" y="-1440" width="1920" height="3150" clip-rule="evenodd"/>
		</clipPath>
	</defs>
	<g clip-path="url(#clip_2)">
		<path fill="rgb(255,162,2)" stroke="none" transform="translate(137.58 111.6)" d="M0 0L4.34 0L4.34 4.34L0 4.34L0 0Z"/>
	</g>
	<defs>
		<clipPath id="clip_3">
			<rect x="-282" y="-1440" width="1920" height="3150" clip-rule="evenodd"/>
		</clipPath>
	</defs>
	<g clip-path="url(#clip_3)">
		<path fill="rgb(255,162,2)" stroke="none" transform="translate(122.08 111.6)" d="M0 0L4.34 0L4.34 4.34L0 4.34L0 0Z"/>
	</g>
	<defs>
		<clipPath id="clip_4">
			<rect x="-282" y="-1440" width="1920" height="3150" clip-rule="evenodd"/>
		</clipPath>
	</defs>
	<g clip-path="url(#clip_4)">
		<path fill="rgb(255,162,2)" stroke="none" transform="translate(70 0)" d="M16.2971 2.08143C16.2971 7.81993 20.8665 12.4886 26.4829 12.4886C27.6074 12.4886 28.52 13.419 28.52 14.57C28.52 15.721 27.6074 16.6514 26.4829 16.6514C20.8665 16.6514 16.2971 21.3201 16.2971 27.0586C16.2971 28.2096 15.3845 29.14 14.26 29.14C13.1355 29.14 12.2229 28.2096 12.2229 27.0586C12.2229 21.3201 7.65355 16.6514 2.03714 16.6514C0.91264 16.6514 0 15.721 0 14.57C0 13.419 0.91264 12.4886 2.03714 12.4886C7.65355 12.4886 12.2229 7.81993 12.2229 2.08143C12.2229 0.930399 13.1355 0 14.26 0C15.3845 0 16.2971 0.930399 16.2971 2.08143ZM9.37697 14.57C11.3734 15.8001 13.056 17.5194 14.26 19.5592C15.464 17.5194 17.1466 15.8001 19.143 14.57C17.1466 13.3399 15.464 11.6206 14.26 9.58082C13.056 11.6206 11.3734 13.3399 9.37697 14.57Z" fill-rule="evenodd"/>
	</g>
	<defs>
		<clipPath id="clip_5">
			<rect x="-282" y="-1440" width="1920" height="3150" clip-rule="evenodd"/>
		</clipPath>
	</defs>
	<g clip-path="url(#clip_5)">
		<path fill="rgb(255,162,2)" stroke="none" transform="translate(165.48 62)" d="M16.2971 2.08143C16.2971 7.81993 20.8665 12.4886 26.4829 12.4886C27.6074 12.4886 28.52 13.419 28.52 14.57C28.52 15.721 27.6074 16.6514 26.4829 16.6514C20.8665 16.6514 16.2971 21.3201 16.2971 27.0586C16.2971 28.2096 15.3845 29.14 14.26 29.14C13.1355 29.14 12.2229 28.2096 12.2229 27.0586C12.2229 21.3201 7.65355 16.6514 2.03714 16.6514C0.91264 16.6514 0 15.721 0 14.57C0 13.419 0.91264 12.4886 2.03714 12.4886C7.65355 12.4886 12.2229 7.81993 12.2229 2.08143C12.2229 0.930399 13.1355 0 14.26 0C15.3845 0 16.2971 0.930399 16.2971 2.08143ZM9.37697 14.57C11.3734 15.798 13.056 17.5194 14.26 19.5592C15.464 17.5194 17.1466 15.8001 19.143 14.57C17.1466 13.342 15.464 11.6206 14.26 9.58082C13.056 11.6206 11.3754 13.3399 9.37697 14.57Z" fill-rule="evenodd"/>
	</g>
	<defs>
		<clipPath id="clip_6">
			<rect x="-282" y="-1440" width="1920" height="3150" clip-rule="evenodd"/>
		</clipPath>
	</defs>
	<g clip-path="url(#clip_6)">
		<path fill="rgb(255,162,2)" stroke="none" transform="translate(70 49.6)" d="M13.9403 4.83393C16.656 1.7794 20.5497 0 24.6695 0C32.6048 0 39.06 6.4914 39.06 14.4667C39.06 15.2272 38.9901 16.0167 38.8462 16.8743C38.6797 17.8705 37.8224 18.6 36.8192 18.6L2.34771 18.6C1.41027 18.6 0.592067 17.9635 0.357707 17.0541C0.11718 16.1241 0 15.2789 0 14.4667C0 8.76887 4.61114 4.13333 10.2789 4.13333C11.5227 4.13333 12.7644 4.37307 13.9403 4.83393ZM10.2789 8.26667C6.87867 8.26667 4.11158 11.0484 4.11158 14.4667L34.9484 14.4667C34.9484 8.76887 30.3373 4.13333 24.6695 4.13333C21.3 4.13333 18.1403 5.8032 16.2161 8.59733C15.5973 9.49427 14.3905 9.75673 13.4593 9.18633C12.4581 8.57667 11.387 8.26667 10.2789 8.26667Z" fill-rule="evenodd"/>
	</g>
	<defs>
		<clipPath id="clip_7">
			<rect x="-282" y="-1440" width="1920" height="3150" clip-rule="evenodd"/>
		</clipPath>
	</defs>
	<g clip-path="url(#clip_7)">
		<text fill="rgb(255,255,255)" stroke="none" transform="translate(0 137)" font-size="36" font-weight="500" font-family="Open Sans, Open Sans SemiBold" x="0" y="37.349609">
				Success 
		</text>
	</g>
	<defs>
		<clipPath id="clip_8">
			<rect x="-282" y="-1440" width="1920" height="3150" clip-rule="evenodd"/>
		</clipPath>
	</defs>
	<g clip-path="url(#clip_8)">
		<text fill="rgb(255,255,255)" stroke="none" transform="translate(0 137)" font-size="36" font-weight="500" font-family="Open Sans, Open Sans SemiBold" x="143.4375" y="37.349609">
				stories
		</text>
	</g>
	<defs>
		<clipPath id="clip_9">
			<rect x="-282" y="-1440" width="1920" height="3150" clip-rule="evenodd"/>
		</clipPath>
	</defs>
	<g clip-path="url(#clip_9)">
		<text fill="rgb(255,255,255)" stroke="none" transform="translate(0 182)" font-size="19" font-family="Open Sans" x="0" y="19.781738">
				Always wanted to be the 
		</text>
	</g>
	<defs>
		<clipPath id="clip_10">
			<rect x="-282" y="-1440" width="1920" height="3150" clip-rule="evenodd"/>
		</clipPath>
	</defs>
	<g clip-path="url(#clip_10)">
		<text fill="rgb(255,255,255)" stroke="none" transform="translate(0 182)" font-size="19" font-family="Open Sans" x="0" y="45.781738">
				next Steve Jobs or Larry 
		</text>
	</g>
	<defs>
		<clipPath id="clip_11">
			<rect x="-282" y="-1440" width="1920" height="3150" clip-rule="evenodd"/>
		</clipPath>
	</defs>
	<g clip-path="url(#clip_11)">
		<text fill="rgb(255,255,255)" stroke="none" transform="translate(0 182)" font-size="19" font-family="Open Sans" x="0" y="71.781738">
				Page? But not sure where to 
		</text>
	</g>
	<defs>
		<clipPath id="clip_12">
			<rect x="-282" y="-1440" width="1920" height="3150" clip-rule="evenodd"/>
		</clipPath>
	</defs>
	<g clip-path="url(#clip_12)">
		<text fill="rgb(255,255,255)" stroke="none" transform="translate(0 182)" font-size="19" font-family="Open Sans" x="0" y="97.781738">
				start? Hear real stories, how 
		</text>
	</g>
	<defs>
		<clipPath id="clip_13">
			<rect x="-282" y="-1440" width="1920" height="3150" clip-rule="evenodd"/>
		</clipPath>
	</defs>
	<g clip-path="url(#clip_13)">
		<text fill="rgb(255,255,255)" stroke="none" transform="translate(0 182)" font-size="19" font-family="Open Sans" x="0" y="123.78174">
				different people became 
		</text>
	</g>
	<defs>
		<clipPath id="clip_14">
			<rect x="-282" y="-1440" width="1920" height="3150" clip-rule="evenodd"/>
		</clipPath>
	</defs>
	<g clip-path="url(#clip_14)">
		<text fill="rgb(255,255,255)" stroke="none" transform="translate(0 182)" font-size="19" font-family="Open Sans" x="0" y="149.78174">
				those, who would change 
		</text>
	</g>

</svg>