<?xml version="1.0" encoding="utf-8" ?>
<svg xmlns="http://www.w3.org/2000/svg" xmlns:xlink="http://www.w3.org/1999/xlink" width="1205" height="328">
	<defs>
		<clipPath id="clip_0">
			<rect x="-190.81543" y="-2350.4409" width="1919.0399" height="3148.4248" clip-rule="evenodd"/>
		</clipPath>
	</defs>
	<g clip-path="url(#clip_0)">
		<text fill="rgb(255,255,255)" stroke="none" transform="matrix(0.9995 0 0 0.9995 601.788 0.382935)" font-size="53" font-weight="600" font-family="Open Sans" x="0" y="54.91748">
				And a KILLER 
		</text>
	</g>
	<defs>
		<clipPath id="clip_1">
			<rect x="-190.81543" y="-2350.4409" width="1919.0399" height="3148.4248" clip-rule="evenodd"/>
		</clipPath>
	</defs>
	<g clip-path="url(#clip_1)">
		<text fill="rgb(255,255,255)" stroke="none" transform="matrix(0.9995 0 0 0.9995 601.788 0.382935)" font-size="53" font-weight="600" font-family="Open Sans" x="355.55029" y="54.91748">
				feauture!
		</text>
	</g>
	<defs>
		<clipPath id="clip_2">
			<rect x="-190.81543" y="-2350.4409" width="1919.0399" height="3148.4248" clip-rule="evenodd"/>
		</clipPath>
	</defs>
	<g clip-path="url(#clip_2)">
		<text fill="rgb(255,255,255)" stroke="none" transform="matrix(0.9995 0 0 0.9995 595.791 108.329)" font-size="36" font-weight="500" font-family="Open Sans, Open Sans SemiBold" x="0" y="37.349609">
				Team 
		</text>
	</g>
	<defs>
		<clipPath id="clip_3">
			<rect x="-190.81543" y="-2350.4409" width="1919.0399" height="3148.4248" clip-rule="evenodd"/>
		</clipPath>
	</defs>
	<g clip-path="url(#clip_3)">
		<text fill="rgb(255,255,255)" stroke="none" transform="matrix(0.9995 0 0 0.9995 595.791 108.329)" font-size="36" font-weight="500" font-family="Open Sans, Open Sans SemiBold" x="105.76758" y="37.349609">
				builder
		</text>
	</g>
	<defs>
		<clipPath id="clip_4">
			<rect x="-190.81543" y="-2350.4409" width="1919.0399" height="3148.4248" clip-rule="evenodd"/>
		</clipPath>
	</defs>
	<g clip-path="url(#clip_4)">
		<text fill="rgb(255,255,255)" stroke="none" transform="matrix(0.9995 0 0 0.9995 595.791 161.302)" font-size="19" font-family="Open Sans" x="0" y="19.781738">
				What part of proggrammers society are 
		</text>
	</g>
	<defs>
		<clipPath id="clip_5">
			<rect x="-190.81543" y="-2350.4409" width="1919.0399" height="3148.4248" clip-rule="evenodd"/>
		</clipPath>
	</defs>
	<g clip-path="url(#clip_5)">
		<text fill="rgb(255,255,255)" stroke="none" transform="matrix(0.9995 0 0 0.9995 595.791 161.302)" font-size="19" font-family="Open Sans" x="0" y="45.781738">
				you? Maybe you`re a born tester — 
		</text>
	</g>
	<defs>
		<clipPath id="clip_6">
			<rect x="-190.81543" y="-2350.4409" width="1919.0399" height="3148.4248" clip-rule="evenodd"/>
		</clipPath>
	</defs>
	<g clip-path="url(#clip_6)">
		<text fill="rgb(255,255,255)" stroke="none" transform="matrix(0.9995 0 0 0.9995 595.791 161.302)" font-size="19" font-family="Open Sans" x="0" y="71.781738">
				ready for anything to find «that» nasty 
		</text>
	</g>
	<defs>
		<clipPath id="clip_7">
			<rect x="-190.81543" y="-2350.4409" width="1919.0399" height="3148.4248" clip-rule="evenodd"/>
		</clipPath>
	</defs>
	<g clip-path="url(#clip_7)">
		<text fill="rgb(255,255,255)" stroke="none" transform="matrix(0.9995 0 0 0.9995 595.791 161.302)" font-size="19" font-family="Open Sans" x="0" y="97.781738">
				bug. Or you`re software engineer with 
		</text>
	</g>
	<defs>
		<clipPath id="clip_8">
			<rect x="-190.81543" y="-2350.4409" width="1919.0399" height="3148.4248" clip-rule="evenodd"/>
		</clipPath>
	</defs>
	<g clip-path="url(#clip_8)">
		<text fill="rgb(255,255,255)" stroke="none" transform="matrix(0.9995 0 0 0.9995 595.791 161.302)" font-size="19" font-family="Open Sans" x="0" y="123.78174">
				logic and attention to details. Find that 
		</text>
	</g>
	<defs>
		<clipPath id="clip_9">
			<rect x="-190.81543" y="-2350.4409" width="1919.0399" height="3148.4248" clip-rule="evenodd"/>
		</clipPath>
	</defs>
	<g clip-path="url(#clip_9)">
		<path fill="rgb(0,160,62)" stroke="none" transform="matrix(0.9995 0 0 0.9995 342.918 140.313)" d="M51.3857 7.65475C36.2041 0.087746 7.73978 0 6.53551 0C2.92616 0 0 2.91734 0 6.51579C0 10.1142 2.92616 13.0316 6.53551 13.0316C13.8805 13.0324 35.2063 14.1601 45.5403 19.3111C46.4788 19.7793 47.4757 20 48.4577 20C50.855 20 53.1633 18.6795 54.3083 16.3972C55.923 13.1784 54.6142 9.26458 51.3857 7.65475Z"/>
	</g>
	<defs>
		<clipPath id="clip_10">
			<rect x="-190.81543" y="-2350.4409" width="1919.0399" height="3148.4248" clip-rule="evenodd"/>
		</clipPath>
	</defs>
	<g clip-path="url(#clip_10)">
		<path fill="rgb(0,160,62)" stroke="none" transform="matrix(0.9995 0 0 0.9995 0.0891113 0.382935)" d="M427.018 240.829L399.975 233.106C398.808 232.773 397.992 231.693 397.992 230.479L397.992 221.457C400.192 219.933 402.291 218.228 404.253 216.324C413.76 207.102 418.996 194.733 418.996 181.493L418.996 169.043L421.611 163.816C424.481 158.079 425.997 151.655 425.997 145.241L425.997 111.513C425.997 107.899 423.065 104.968 419.449 104.968L356.439 104.968C333.527 104.968 314.885 123.601 314.885 146.503L314.885 146.893C314.885 152.227 316.147 157.568 318.533 162.338L321.886 169.042L321.886 179.732C321.886 196.673 330.239 211.874 342.89 221.021L342.892 230.477C342.892 231.935 342.892 232.539 337.485 234.084L324.29 237.852L286.119 223.978C286.256 222.178 285.649 220.347 284.335 218.968L272.137 206.159L272.137 184.657C273.427 183.595 274.698 182.504 275.93 181.35C291.317 166.934 300.142 146.581 300.142 125.509L300.142 108.337C304.789 98.2306 307.143 87.5363 307.143 76.5226L307.143 6.54487C307.143 2.93036 304.211 0 300.595 0L202.579 0C168.085 0 140.023 28.0504 140.023 62.5279L140.023 76.5243C140.023 87.538 142.377 98.2324 147.024 108.339L147.024 123.113C147.024 147.579 157.907 169.62 175.028 184.152L175.028 206.16L162.831 218.969C161.517 220.348 160.91 222.179 161.047 223.979L120.76 238.622C117.84 239.683 115.128 241.12 112.665 242.861L106.339 239.699C125.17 231.506 131.136 219.983 131.422 219.41C132.344 217.568 132.344 215.399 131.422 213.556C126.702 204.12 126.13 186.823 125.671 172.925C125.518 168.298 125.373 163.927 125.096 160.035C122.864 128.642 98.9878 104.968 69.5574 104.968C40.127 104.968 16.25 128.642 14.0185 160.035C13.7418 163.928 13.5968 168.299 13.444 172.927C12.9848 186.824 12.4121 204.119 7.69242 213.556C6.77048 215.398 6.77048 217.567 7.69242 219.409C7.97878 219.982 13.9321 231.482 32.8012 239.684L15.2294 248.466C5.83545 253.164 0 262.602 0 273.099L0 321.452C0 325.066 2.93169 327.996 6.54785 327.996C10.164 327.996 13.0957 325.066 13.0957 321.452L13.0957 273.099C13.0957 267.591 16.1575 262.639 21.0858 260.175L42.967 249.24L50.5782 256.47C55.9003 261.525 62.7275 264.051 69.5574 264.051C76.3855 264.051 83.2162 261.523 88.5366 256.47L96.1469 249.241L103.281 252.806C99.922 258.179 98.0152 264.48 98.0152 271.08L98.0152 321.453C98.0152 325.068 100.947 327.998 104.563 327.998C108.179 327.998 111.111 325.068 111.111 321.453L111.111 271.08C111.111 262.095 116.787 253.995 125.235 250.924L167.711 235.486L185.392 261.998C187.653 265.387 191.275 267.561 195.33 267.963C195.783 268.007 196.232 268.029 196.681 268.029C200.259 268.029 203.685 266.621 206.247 264.062L217.034 253.279L217.034 321.454C217.034 325.069 219.966 327.999 223.582 327.999C227.198 327.999 230.13 325.069 230.13 321.454L230.13 253.279L240.917 264.062C243.478 266.622 246.905 268.03 250.483 268.03C250.931 268.03 251.382 268.008 251.833 267.963C255.889 267.562 259.511 265.388 261.772 261.999L279.454 235.488L321.929 250.926C330.377 253.997 336.053 262.097 336.053 271.081L336.053 321.455C336.053 325.07 338.985 328 342.601 328C346.217 328 349.149 325.07 349.149 321.455L349.149 271.081C349.149 261.981 345.532 253.447 339.464 247.135L341.082 246.673C342.714 246.207 344.94 245.57 347.175 244.474L363.893 261.185L363.893 321.455C363.893 325.07 366.825 328 370.441 328C374.057 328 376.989 325.07 376.989 321.455L376.989 261.185L393.59 244.59C394.473 245.039 395.4 245.418 396.376 245.696L423.42 253.419C429.592 255.182 433.904 260.895 433.904 267.313L433.904 321.455C433.904 325.07 436.836 328 440.452 328C444.068 328 447 325.07 447 321.455L447 267.313C447 255.08 438.783 244.19 427.018 240.829ZM160.119 123.112L160.119 106.874C160.119 105.889 159.897 104.916 159.468 104.029C155.255 95.3072 153.118 86.0537 153.118 76.5243L153.118 62.5288C153.118 35.2681 175.307 13.0906 202.579 13.0906L294.047 13.0906L294.047 76.5252C294.047 86.0545 291.911 95.3081 287.698 104.029C287.269 104.917 287.046 105.89 287.046 106.875L287.046 125.511C287.046 143.235 279.918 159.675 266.974 171.802C265.358 173.315 263.681 174.734 261.947 176.056C261.909 176.082 261.872 176.111 261.835 176.138C249.709 185.34 234.857 189.813 219.346 188.808C186.134 186.659 160.119 157.802 160.119 123.112ZM369.346 216.92C379.025 217.218 388.193 213.663 395.133 206.931C402.077 200.196 405.9 191.163 405.9 181.494L405.9 167.498C405.9 166.481 406.137 165.48 406.592 164.571L409.897 157.963C411.862 154.034 412.901 149.635 412.901 145.242L412.901 118.059L356.439 118.059C340.748 118.059 327.981 130.819 327.981 146.504L327.981 146.894C327.981 150.206 328.764 153.523 330.246 156.485L334.291 164.571C334.745 165.48 334.982 166.481 334.982 167.498L334.982 179.733C334.982 199.669 350.397 216.352 369.346 216.92ZM69.5609 216.937C50.0081 216.937 34.1021 201.037 34.1021 181.494C34.1021 177.88 31.1704 174.95 27.5542 174.95C27.1876 174.95 26.8296 174.987 26.4795 175.046C26.4987 174.483 26.5171 173.919 26.5363 173.361C26.6821 168.861 26.8226 164.61 27.0819 160.964C27.9183 149.205 32.6197 138.368 40.3199 130.45C48.0892 122.46 58.4732 118.06 69.5591 118.06C80.6451 118.06 91.0282 122.46 98.7984 130.45C106.499 138.368 111.2 149.205 112.036 160.964C112.295 164.61 112.436 168.859 112.585 173.359C112.598 173.745 112.611 174.137 112.624 174.526C105.5 163.555 94.4977 155.47 80.2819 150.905C67.1487 146.687 55.8532 146.948 55.3765 146.96C53.6618 147.008 52.0345 147.726 50.8445 148.959L39.0304 161.206C36.5204 163.808 36.5955 167.952 39.1989 170.461C41.8024 172.97 45.9476 172.894 48.4576 170.292L58.2881 160.102C66.754 160.516 93.9905 163.682 104.583 186.996C101.918 204.177 87.144 216.937 69.5609 216.937ZM223.583 229.548L188.124 205.321L188.124 193.104C197.299 198.062 207.572 201.162 218.498 201.869C220.224 201.981 221.94 202.036 223.65 202.036C236.171 202.036 248.22 199.044 259.042 193.366L259.042 205.321L223.583 229.548ZM42.0067 229.269C29.7587 224.864 23.615 218.991 20.9924 215.784C22.7804 211.112 23.9398 205.761 24.7247 200.112C28.3356 208.766 34.3832 216.154 42.0067 221.425L42.0067 229.269ZM97.109 221.485L97.1081 229.291C109.344 224.888 115.516 218.963 118.124 215.786C116.34 211.124 115.181 205.786 114.396 200.15C110.783 208.869 104.726 216.243 97.109 221.485ZM196.986 254.806L196.987 254.805L213.372 238.427L182.479 217.32L175.926 224.203L196.29 254.735C196.326 254.789 196.409 254.914 196.622 254.935C196.835 254.957 196.94 254.852 196.986 254.806ZM250.544 254.937C250.757 254.916 250.84 254.791 250.876 254.737L271.241 224.204L264.687 217.322L233.794 238.43L250.179 254.807L250.185 254.813C250.234 254.861 250.339 254.962 250.544 254.937ZM370.441 249.215L355.582 234.363C355.841 233.186 355.987 231.897 355.987 230.475L355.986 227.713C360.109 229.066 364.455 229.869 368.952 230.003C369.457 230.019 369.957 230.026 370.46 230.026C375.429 230.026 380.28 229.275 384.897 227.843L384.897 230.479C384.897 231.784 385.061 233.064 385.37 234.293L370.441 249.215ZM59.6003 246.982C65.1834 252.285 73.9322 252.286 79.5171 246.982L85.6057 241.199C84.5773 239.274 84.0133 237.092 84.0133 234.805L84.0142 227.835C79.4385 229.254 74.5853 230.027 69.5591 230.027C64.5269 230.027 59.671 229.257 55.1032 227.83L55.1032 234.806C55.1032 237.092 54.5384 239.273 53.5108 241.198L59.6003 246.982Z" fill-rule="evenodd"/>
	</g>
	<defs>
		<clipPath id="clip_11">
			<rect x="-190.81543" y="-2350.4409" width="1919.0399" height="3148.4248" clip-rule="evenodd"/>
		</clipPath>
	</defs>
	<g clip-path="url(#clip_11)">
		<path fill="rgb(0,160,62)" stroke="none" transform="matrix(0.9995 0 0 0.9995 405.886 273.246)" d="M6.5 0C2.91027 0 0 2.92625 0 6.53569L0 48.4643C0 52.0738 2.91027 55 6.5 55C10.0897 55 13 52.0738 13 48.4643L13 6.53569C13 2.92712 10.0897 0 6.5 0Z"/>
	</g>
	<defs>
		<clipPath id="clip_12">
			<rect x="-190.81543" y="-2350.4409" width="1919.0399" height="3148.4248" clip-rule="evenodd"/>
		</clipPath>
	</defs>
	<g clip-path="url(#clip_12)">
		<path fill="rgb(0,160,62)" stroke="none" transform="matrix(0.9995 0 0 0.9995 28.075 282.242)" d="M6.5 0C2.91027 0 0 2.90348 0 6.48484L0 39.5152C0 43.0965 2.91027 46 6.5 46C10.0897 46 13 43.0965 13 39.5152L13 6.48484C13 2.90434 10.0897 0 6.5 0Z"/>
	</g>
	<defs>
		<clipPath id="clip_13">
			<rect x="-190.81543" y="-2350.4409" width="1919.0399" height="3148.4248" clip-rule="evenodd"/>
		</clipPath>
	</defs>
	<g clip-path="url(#clip_13)">
		<path fill="rgb(0,160,62)" stroke="none" transform="matrix(0.9995 0 0 0.9995 168.005 59.3535)" d="M109.084 19.6395C84.3441 -5.37323 32.5817 -0.591312 11.4734 2.62544C4.82484 3.63861 0 9.327 0 16.1511L0 31.3866C0 35.039 2.92875 38 6.54128 38C10.1538 38 13.0826 35.039 13.0826 31.3866L13.0826 16.1503C13.0826 15.9254 13.2291 15.7332 13.4244 15.7032C21.8557 14.4184 38.5865 12.4362 55.9209 13.6045C76.3193 14.9775 91.0938 20.1544 99.8338 28.9917C102.388 31.5744 106.53 31.5744 109.084 28.9917C111.639 26.4089 111.639 22.2213 109.084 19.6395Z"/>
	</g>
	<defs>
		<clipPath id="clip_14">
			<rect x="-190.81543" y="-2350.4409" width="1919.0399" height="3148.4248" clip-rule="evenodd"/>
		</clipPath>
	</defs>
	<g clip-path="url(#clip_14)">
		<path fill="rgb(0,160,62)" stroke="none" transform="matrix(0.9995 0 0 0.9995 140.019 287.24)" d="M6.5 0C2.91027 0 0 2.92453 0 6.53185L0 34.4681C0 38.0755 2.91027 41 6.5 41C10.0897 41 13 38.0755 13 34.4681L13 6.53185C13 2.9254 10.0897 0 6.5 0Z"/>
	</g>
	<defs>
		<clipPath id="clip_15">
			<rect x="-190.81543" y="-2350.4409" width="1919.0399" height="3148.4248" clip-rule="evenodd"/>
		</clipPath>
	</defs>
	<g clip-path="url(#clip_15)">
		<path fill="rgb(0,160,62)" stroke="none" transform="matrix(0.9995 0 0 0.9995 293.942 287.24)" d="M6.5 0C2.91027 0 0 2.92453 0 6.53185L0 34.4681C0 38.0755 2.91027 41 6.5 41C10.0897 41 13 38.0755 13 34.4681L13 6.53185C13 2.9254 10.0897 0 6.5 0Z"/>
	</g>

</svg>