<?xml version="1.0" encoding="utf-8" ?>
<svg xmlns="http://www.w3.org/2000/svg" xmlns:xlink="http://www.w3.org/1999/xlink" width="24" height="27">
	<defs>
		<clipPath id="clip_0">
			<rect x="-1474" y="-200" width="1920" height="2160" clip-rule="evenodd"/>
		</clipPath>
	</defs>
	<g clip-path="url(#clip_0)">
		<path fill="rgb(255,162,2)" stroke="none" d="M21.9995 0.16075C22.3999 0.315375 22.7188 0.559125 22.9556 0.892437C23.192 1.22556 23.3105 1.59419 23.3105 1.99875L23.3105 24.9996C23.3105 25.4042 23.1922 25.7728 22.9556 26.1058C22.7187 26.4393 22.3998 26.6833 21.9995 26.8378C21.7688 26.9329 21.5016 26.9802 21.198 26.9802C20.6154 26.9802 20.1116 26.7898 19.6866 26.4097L11.6553 18.8432L3.624 26.4096C3.18681 26.8018 2.68322 26.9982 2.1124 26.9982C1.83321 26.9982 1.56601 26.9447 1.31125 26.8378C0.910673 26.6834 0.59187 26.4394 0.35516 26.1063C0.118514 25.7729 0 25.4044 0 24.9997L0 1.9985C0 1.59394 0.118514 1.22531 0.35516 0.892188C0.59187 0.559062 0.910673 0.315 1.31125 0.1605C1.56627 0.0535625 1.83321 0 2.1124 0L21.1981 0L21.1981 0.00025C21.4774 0.00025 21.7446 0.0538125 21.9995 0.16075ZM13.2762 17.2015L20.9795 24.4462L20.9795 2.28431L2.33125 2.28431L2.33125 24.4462L10.0346 17.2015L11.6553 15.685L13.2762 17.2015Z" fill-rule="evenodd"/>
	</g>

</svg>