<?xml version="1.0" encoding="utf-8" ?>
<svg xmlns="http://www.w3.org/2000/svg" xmlns:xlink="http://www.w3.org/1999/xlink" width="20" height="24">
	<defs>
		<clipPath id="clip_0">
			<rect x="-799" y="-260" width="1920" height="2160" clip-rule="evenodd"/>
		</clipPath>
	</defs>
	<g clip-path="url(#clip_0)">
		<path fill="rgb(0,135,203)" stroke="none" transform="translate(0.0366211 0)" d="M1.91082 24L17.2189 24C18.0133 24 18.6196 23.7076 18.9262 23.1891C19.2344 22.6678 19.1779 21.9766 18.7719 21.2999L12.4619 10.6809L12.4619 2.72269L12.8017 2.72269C13.6766 2.72269 14.362 2.12682 14.362 1.36134C14.362 0.595866 13.6489 0 12.7387 0L6.39117 0C5.48093 0 4.76799 0.595866 4.76799 1.36134C4.76799 2.12682 5.43942 2.72269 6.29667 2.72269L6.65005 2.72269L6.65005 10.6811L2.57343 17.5488C2.55401 17.5734 2.53801 17.6004 2.52584 17.629L0.349548 21.2954C-0.055676 21.971 -0.111304 22.6641 0.196934 23.1853C0.500553 23.6987 1.12523 24 1.91082 24ZM7.32797 10.9528C7.35979 10.8988 7.37654 10.8377 7.37654 10.7755L7.37654 2.37736C7.37717 2.18094 7.21542 2.02039 7.0133 2.01681L6.29667 2.01681C5.84682 2.01681 5.49447 1.73103 5.49447 1.36134C5.49447 0.997866 5.89669 0.705882 6.39116 0.705882L12.7387 0.705882C13.2332 0.705882 13.6355 0.997866 13.6355 1.36134C13.6355 1.73103 13.2692 2.01681 12.8017 2.01681L12.0987 2.01681C11.8966 2.02039 11.7348 2.18094 11.7355 2.37736L11.7355 10.7755C11.7355 10.8378 11.7523 10.899 11.7842 10.953L12.9757 12.958L6.1383 12.958L7.32797 10.9528ZM1.75385 20.3193L0.97827 21.6378C0.706512 22.0904 0.651714 22.5317 0.826953 22.8279C0.999961 23.1204 1.38495 23.2941 1.91092 23.2941L17.219 23.2941C17.7423 23.2941 18.1249 23.128 18.2964 22.8379C18.4715 22.5417 18.4159 22.1056 18.1437 21.6518L13.395 13.6639L5.71937 13.6639L4.81645 15.1765L5.716 15.1765C5.91661 15.1765 6.07924 15.3345 6.07924 15.5294C6.07924 15.7243 5.91661 15.8824 5.716 15.8824L4.39758 15.8824L3.49466 17.395L4.36681 17.395C4.56742 17.395 4.73005 17.553 4.73005 17.7479C4.73005 17.9428 4.56742 18.1008 4.36681 18.1008L3.07574 18.1008L2.17282 19.6134L3.06951 19.6134C3.27013 19.6134 3.43276 19.7715 3.43276 19.9664C3.43276 20.1613 3.27013 20.3193 3.06951 20.3193L1.75385 20.3193Z" fill-rule="evenodd"/>
	</g>

</svg>