<?xml version="1.0" encoding="utf-8" ?>
<svg xmlns="http://www.w3.org/2000/svg" xmlns:xlink="http://www.w3.org/1999/xlink" width="24" height="24">
	<defs>
		<clipPath id="clip_0">
			<rect x="-660" y="-260" width="1920" height="2160" clip-rule="evenodd"/>
		</clipPath>
	</defs>
	<g clip-path="url(#clip_0)">
		<path fill="rgb(0,135,203)" stroke="none" transform="translate(9.19995 4.79999)" d="M5.6 2.8C5.6 4.3436 4.344 5.6 2.8 5.6C1.256 5.6 0 4.3436 0 2.8C0 1.2564 1.256 0 2.8 0C4.344 0 5.6 1.2564 5.6 2.8ZM4.8 2.8C4.8 1.6972 3.9028 0.8 2.8 0.8C1.6972 0.8 0.8 1.6972 0.8 2.8C0.8 3.9028 1.6972 4.8 2.8 4.8C3.9028 4.8 4.8 3.9028 4.8 2.8Z" fill-rule="evenodd"/>
	</g>
	<defs>
		<clipPath id="clip_1">
			<rect x="-660" y="-260" width="1920" height="2160" clip-rule="evenodd"/>
		</clipPath>
	</defs>
	<g clip-path="url(#clip_1)">
		<path fill="rgb(0,135,203)" stroke="none" transform="translate(4.2583 0)" d="M13.8072 13.04L7.67082 21.9028L1.52522 13.0276C-0.767185 9.9712 -0.434385 4.9276 2.24682 2.2468C3.69562 0.798 5.62201 0 7.67082 0C9.71961 0 11.646 0.798 13.0948 2.2472C15.776 4.928 16.1088 9.9716 13.8072 13.04ZM7.67081 0.8C5.83562 0.8 4.11041 1.5148 2.81242 2.8124C0.392815 5.232 0.0944151 9.7872 2.17442 12.56L7.67081 20.4972L13.1584 12.572C15.2472 9.7872 14.9492 5.232 12.5292 2.8124C11.2312 1.5148 9.50602 0.8 7.67081 0.8Z" fill-rule="evenodd"/>
	</g>
	<defs>
		<clipPath id="clip_2">
			<rect x="-660" y="-260" width="1920" height="2160" clip-rule="evenodd"/>
		</clipPath>
	</defs>
	<g clip-path="url(#clip_2)">
		<path fill="rgb(0,135,203)" stroke="none" transform="translate(0 17.1996)" d="M16.8468 0.00312459C16.6268 -0.0236754 16.4284 0.133925 16.4028 0.353525C16.3772 0.573125 16.534 0.771925 16.7532 0.797525C20.9596 1.29272 23.2 2.62713 23.2 3.40032C23.2 4.48593 18.9392 6.00033 12 6.00033C5.0608 6.00033 0.8 4.48593 0.8 3.40032C0.8 2.62713 3.0404 1.29272 7.2468 0.797525C7.466 0.771925 7.6228 0.572725 7.5972 0.353525C7.5712 0.133925 7.3728 -0.0244754 7.1532 0.00312459C2.9416 0.499125 0 1.89592 0 3.40032C0 5.08993 4.122 6.80033 12 6.80033C19.878 6.80033 24 5.08993 24 3.40032C24 1.89592 21.0584 0.499125 16.8468 0.00312459Z"/>
	</g>

</svg>