<?xml version="1.0" encoding="utf-8" ?>
<svg xmlns="http://www.w3.org/2000/svg" xmlns:xlink="http://www.w3.org/1999/xlink" width="24" height="24">
	<defs>
		<clipPath id="clip_0">
			<rect x="-1182" y="-261" width="1920" height="2160" clip-rule="evenodd"/>
		</clipPath>
	</defs>
	<g clip-path="url(#clip_0)">
		<path fill="rgb(0,135,203)" stroke="none" d="M12 0C15.2053 0 18.2188 1.24819 20.4853 3.51469C22.7518 5.78119 24 8.79469 24 12C24 15.2053 22.7518 18.2188 20.4853 20.4853C18.2188 22.7518 15.2053 24 12 24C8.79469 24 5.78119 22.7518 3.51469 20.4853C1.24823 18.2188 0 15.2053 0 12C0 8.79469 1.24823 5.78119 3.51469 3.51469C5.78119 1.24819 8.79469 0 12 0ZM1.40625 12C1.40625 17.8414 6.15858 22.5938 12 22.5938C17.8414 22.5938 22.5938 17.8414 22.5938 12C22.5938 6.15858 17.8414 1.40625 12 1.40625C6.15858 1.40625 1.40625 6.15858 1.40625 12Z" fill-rule="evenodd"/>
	</g>
	<defs>
		<clipPath id="clip_1">
			<rect x="-1182" y="-261" width="1920" height="2160" clip-rule="evenodd"/>
		</clipPath>
	</defs>
	<g clip-path="url(#clip_1)">
		<path fill="rgb(0,135,203)" stroke="none" transform="translate(8.28418 4.5188)" d="M4.46873 6.77808L2.96245 6.77808C2.10431 6.77808 1.4062 6.07997 1.4062 5.22188C1.4062 4.36373 2.10436 3.66562 2.96245 3.66562L5.97497 3.66562C6.36328 3.66562 6.67809 3.35081 6.67809 2.9625C6.67809 2.57419 6.36328 2.25938 5.97497 2.25938L4.41872 2.25938L4.41872 0.703125C4.41872 0.314813 4.10391 0 3.71559 0C3.32728 0 3.01247 0.314813 3.01247 0.703125L3.01247 2.25938L2.9625 2.25938C1.32895 2.25938 0 3.58837 0 5.22188C0 6.85537 1.329 8.18433 2.9625 8.18433L4.46878 8.18433C5.32688 8.18433 6.02498 8.88248 6.02498 9.74058C6.02498 10.5987 5.32688 11.2968 4.46878 11.2968L1.45627 11.2968C1.06795 11.2968 0.753141 11.6116 0.753141 12C0.753141 12.3883 1.06795 12.7031 1.45627 12.7031L3.01247 12.7031L3.01247 14.2594C3.01247 14.6477 3.32728 14.9625 3.71559 14.9625C4.10391 14.9625 4.41872 14.6477 4.41872 14.2594L4.41872 12.7031L4.46873 12.7031C6.10223 12.7031 7.43119 11.3741 7.43119 9.74058C7.43119 8.10708 6.10223 6.77808 4.46873 6.77808Z"/>
	</g>

</svg>