<?xml version="1.0" encoding="utf-8" ?>
<svg xmlns="http://www.w3.org/2000/svg" xmlns:xlink="http://www.w3.org/1999/xlink" width="24" height="24">
	<defs>
		<clipPath id="clip_0">
			<rect x="-1074" y="-260" width="1920" height="2160" clip-rule="evenodd"/>
		</clipPath>
	</defs>
	<g clip-path="url(#clip_0)">
		<path fill="rgb(0,135,203)" stroke="none" d="M23.3684 0L17.6842 0C17.3368 0 17.0526 0.284211 17.0526 0.631579L17.0526 11.3053L12.6316 11.3053L12.6316 6.94737C12.6316 6.6 12.3474 6.31579 12 6.31579L6.31579 6.31579C5.96842 6.31579 5.68421 6.6 5.68421 6.94737L5.68421 16.7053L0.631579 16.7053C0.284211 16.7053 0 16.9895 0 17.3368L0 23.3684C0 23.7158 0.284211 24 0.631579 24L23.3684 24C23.7158 24 24 23.7158 24 23.3684L24 0.631579C24 0.284211 23.7158 0 23.3684 0ZM18.3158 22.7368L22.7368 22.7368L22.7368 1.26316L18.3158 1.26316L18.3158 22.7368ZM6.94737 22.7368L11.3684 22.7368L11.3684 7.57895L6.94737 7.57895L6.94737 22.7368ZM17.0526 22.7368L12.6316 22.7368L12.6316 12.5684L17.0526 12.5684L17.0526 22.7368ZM5.68421 22.7368L1.26316 22.7368L1.26316 17.9684L5.68421 17.9684L5.68421 22.7368Z" fill-rule="evenodd"/>
	</g>

</svg>