<?xml version="1.0" encoding="utf-8" ?>
<svg xmlns="http://www.w3.org/2000/svg" xmlns:xlink="http://www.w3.org/1999/xlink" width="27" height="27">
	<defs>
		<clipPath id="clip_0">
			<rect x="-1347" y="-200" width="1920" height="2160" clip-rule="evenodd"/>
		</clipPath>
	</defs>
	<g clip-path="url(#clip_0)">
		<path fill="rgb(0,160,62)" stroke="none" transform="translate(0.00244141 0)" d="M25.5843 2.17143L24.816 1.40298C23.9112 0.498226 22.7083 0 21.4289 0C20.1493 0 18.9466 0.498299 18.0418 1.40305L12.465 6.97975C11.5603 7.88458 11.0621 9.08743 11.0621 10.3669C11.0621 10.6232 11.083 10.8763 11.1222 11.1247C10.8739 11.0854 10.6207 11.0645 10.3645 11.0645C9.08494 11.0645 7.88202 11.5628 6.97726 12.4675L1.40071 18.0443C-0.466878 19.912 -0.466878 22.9509 1.40056 24.8184L2.16886 25.5868C3.07376 26.4917 4.27668 26.9897 5.55609 26.9897C6.83564 26.9897 8.03841 26.4915 8.94302 25.5868L14.5198 20.0101C15.6468 18.8832 16.0926 17.3298 15.8595 15.8646C16.1089 15.9042 16.3629 15.9253 16.6203 15.9253L16.6208 15.9253C17.9002 15.9253 19.1029 15.427 20.0075 14.5224L25.5843 8.94552C27.4519 7.07778 27.4519 4.03894 25.5843 2.17143ZM18.7209 13.2358L24.2978 7.65905C25.456 6.50074 25.4561 4.61613 24.2978 3.45796L23.5295 2.68959C22.9685 2.12849 22.2224 1.81948 21.429 1.81948C20.6356 1.81948 19.8897 2.12849 19.3285 2.68959L13.7517 8.26637C13.1906 8.82747 12.8816 9.5735 12.8816 10.367C12.8816 11.1605 13.1907 11.9065 13.7519 12.4676L14.52 13.236C15.0809 13.7969 15.827 14.1059 16.6206 14.1059L16.6208 14.1059C17.4142 14.1059 18.1598 13.797 18.7209 13.2358ZM13.2333 18.7235L7.65648 24.3003C7.09545 24.8613 6.34949 25.1703 5.55609 25.1703C4.76253 25.1703 4.01658 24.8613 3.45554 24.3003L2.68725 23.532C1.52894 22.3737 1.52894 20.4891 2.68725 19.3307L8.26387 13.7539C8.82505 13.1929 9.57101 12.8839 10.3646 12.8839C11.158 12.8839 11.9041 13.1929 12.4651 13.7539L13.2334 14.5222C14.3916 15.6806 14.3916 17.5653 13.2333 18.7235Z" fill-rule="evenodd"/>
	</g>
	<defs>
		<clipPath id="clip_1">
			<rect x="-1347" y="-200" width="1920" height="2160" clip-rule="evenodd"/>
		</clipPath>
	</defs>
	<g clip-path="url(#clip_1)">
		<path fill="rgb(0,160,62)" stroke="none" transform="translate(15.9875 4.92303)" d="M4.52608 0.26647L0.266416 4.52614C-0.0888053 4.88143 -0.0888053 5.45746 0.266416 5.81268C0.444063 5.99032 0.676947 6.07911 0.909758 6.07911C1.14257 6.07911 1.37538 5.99032 1.55295 5.81268L5.81262 1.55301C6.16799 1.19779 6.16799 0.621764 5.81262 0.26647C5.45733 -0.0888235 4.88123 -0.0888235 4.52608 0.26647Z"/>
	</g>
	<defs>
		<clipPath id="clip_2">
			<rect x="-1347" y="-200" width="1920" height="2160" clip-rule="evenodd"/>
		</clipPath>
	</defs>
	<g clip-path="url(#clip_2)">
		<path fill="rgb(0,160,62)" stroke="none" transform="translate(4.92285 15.9876)" d="M4.52608 0.266525L0.266416 4.52612C-0.0888053 4.88141 -0.0888053 5.45737 0.266416 5.81273C0.444063 5.99023 0.676947 6.07909 0.909758 6.07909C1.14257 6.07909 1.37538 5.99023 1.55295 5.81273L5.81262 1.55306C6.16799 1.1977 6.16799 0.621746 5.81262 0.266525C5.4574 -0.0888416 4.88131 -0.0888416 4.52608 0.266525Z"/>
	</g>

</svg>