<?xml version="1.0" encoding="utf-8" ?>
<svg xmlns="http://www.w3.org/2000/svg" xmlns:xlink="http://www.w3.org/1999/xlink" width="26" height="26">
	<defs>
		<clipPath id="clip_0">
			<rect x="-79" y="-621" width="1920" height="2450" clip-rule="evenodd"/>
		</clipPath>
	</defs>
	<g clip-path="url(#clip_0)">
		<path fill="rgb(36,168,172)" stroke="none" d="M26 13C26 16.472 24.6481 19.7365 22.1932 22.1916L22.1918 22.193C19.7365 24.6479 16.4722 26 13 26C9.52783 26 6.26355 24.6479 3.8082 22.193L3.80681 22.1916C1.35205 19.7363 0 16.472 0 13C0 9.52763 1.35225 6.26295 3.8076 3.8076C6.26295 1.35225 9.52763 0 13 0C16.4722 0 19.7365 1.35205 22.1918 3.80701L22.1924 3.8076L22.193 3.8084C24.6479 6.26375 26 9.52803 26 13ZM20.5547 4.36818L18.7466 6.17607C17.1405 4.81886 15.1271 4.07936 13 4.07936C10.8729 4.07936 8.85954 4.81886 7.25339 6.17607L5.4455 4.36818C7.46544 2.59798 10.1094 1.52344 13 1.52344C15.8906 1.52344 18.5346 2.59798 20.5547 4.36818ZM6.17607 7.25339L4.36818 5.4455C2.59798 7.46544 1.52344 10.1094 1.52344 13C1.52344 15.8906 2.59798 18.5346 4.36818 20.5545L6.17607 18.7466C4.81886 17.1405 4.07956 15.1271 4.07956 13C4.07956 10.8729 4.81886 8.85954 6.17607 7.25339ZM19.8239 18.7466L21.6318 20.5545C23.402 18.5346 24.4766 15.8906 24.4766 13C24.4766 10.1094 23.402 7.46544 21.6318 5.4455L19.8239 7.25339C21.1811 8.85954 21.9206 10.8729 21.9206 13C21.9206 15.1271 21.1811 17.1405 19.8239 18.7466ZM5.4453 21.6318L7.76933 19.3078C8.06688 19.0104 8.06688 18.5282 7.76933 18.2307C6.37225 16.8334 5.603 14.9757 5.603 13C5.603 11.0241 6.37225 9.16661 7.76953 7.76933C9.16661 6.37225 11.0243 5.6028 13 5.6028C14.9757 5.6028 16.8334 6.37225 18.2307 7.76953L18.2311 7.76993C19.3818 8.92084 20.106 10.3842 20.3258 11.9687C18.1874 11.3615 13.9652 10.1985 13 10.1985C11.4553 10.1985 10.1987 11.4553 10.1987 13C10.1987 14.5447 11.4553 15.8015 13 15.8015C13.9652 15.8015 18.1872 14.6385 20.3258 14.0313C20.106 15.616 19.3816 17.0796 18.2307 18.2307C17.9331 18.528 17.9331 19.0104 18.2307 19.3078L20.5547 21.6318C18.5346 23.402 15.8906 24.4766 13 24.4766C10.1094 24.4766 7.46544 23.402 5.4453 21.6318ZM13 14.2781C13.5098 14.2781 15.9513 13.6588 18.3519 13C15.9513 12.3414 13.5098 11.7219 13 11.7219C12.2954 11.7219 11.7221 12.2952 11.7221 13C11.7221 13.7048 12.2954 14.2781 13 14.2781Z" fill-rule="evenodd"/>
	</g>
	<defs>
		<clipPath id="clip_1">
			<rect x="-79" y="-621" width="1920" height="2450" clip-rule="evenodd"/>
		</clipPath>
	</defs>
	<g clip-path="url(#clip_1)">
		<path fill="rgb(36,168,172)" stroke="none" transform="translate(10.5486 18.0078)" d="M4.14125 0L0.761719 0C0.340988 0 0 0.340988 0 0.761719C0 1.18245 0.340988 1.52344 0.761719 1.52344L4.14125 1.52344C4.56178 1.52344 4.90297 1.18245 4.90297 0.761719C4.90297 0.340988 4.56178 0 4.14125 0Z"/>
	</g>

</svg>