<?xml version="1.0" encoding="utf-8" ?>
<svg xmlns="http://www.w3.org/2000/svg" xmlns:xlink="http://www.w3.org/1999/xlink" width="22" height="26">
	<defs>
		<clipPath id="clip_0">
			<rect x="-80" y="-306" width="1920" height="2450" clip-rule="evenodd"/>
		</clipPath>
	</defs>
	<g clip-path="url(#clip_0)">
		<path fill="rgb(255,162,2)" stroke="none" transform="translate(0.0263824 0)" d="M13.2125 1.01562C13.2125 3.70762 15.0079 5.28898 17.0867 7.12008C19.3526 9.11602 21.9211 11.3784 21.947 15.3905C21.9534 16.3888 21.8145 17.3779 21.5338 18.33C21.3747 18.8696 20.7915 19.183 20.2306 19.0297C19.67 18.8767 19.3446 18.3152 19.5037 17.7754C19.73 17.0079 19.8421 16.2097 19.8367 15.4032C19.8165 12.2781 17.7985 10.5004 15.6621 8.61853C14.5772 7.663 13.4555 6.67495 12.6011 5.49647C11.9665 4.62149 11.5371 3.71655 11.3058 2.76123C5.36275 6.65571 2.11031 11.108 2.11031 15.3968C2.11031 18.2795 3.58918 20.834 5.85138 22.3888C5.71721 21.946 5.64508 21.4783 5.64508 20.9947C5.64508 17.1059 10.1291 13.3973 10.3201 13.2414C10.6336 12.9853 11.073 12.9276 11.4462 13.0938C11.8192 13.26 12.058 13.6199 12.058 14.0156C12.058 15.3774 12.8432 16.0941 13.8374 17.0016C14.8938 17.966 16.0911 19.059 16.0911 20.9947C16.0911 21.5477 15.9969 22.0799 15.8232 22.5776C16.202 22.3392 16.5639 22.072 16.905 21.7766C17.3381 21.4015 18.0052 21.4354 18.3952 21.8524C18.7849 22.2694 18.7496 22.9115 18.3164 23.2868C16.296 25.0363 13.6884 26 10.9734 26C10.9559 26 10.9386 25.9994 10.9211 25.9992C10.9033 25.9994 10.8858 26 10.8681 26C10.7739 26 10.6804 25.9974 10.5874 25.9927C4.71482 25.7955 0 21.1184 0 15.3968C0 11.8824 1.68846 8.4277 5.01859 5.1285C7.59094 2.57992 10.3764 0.894023 11.4249 0.259456C11.488 0.221171 11.5441 0.187449 11.5923 0.157893C11.9173 -0.0404712 12.3286 -0.0527698 12.666 0.125758C13.0031 0.304087 13.2125 0.645274 13.2125 1.01562ZM10.3797 16.0368C9.16481 17.3402 7.7554 19.2711 7.7554 20.9947C7.7554 22.5808 9.06156 23.8807 10.7001 23.9642C10.7105 23.9646 10.7208 23.9652 10.7311 23.9654C10.7407 23.9658 10.7502 23.9658 10.7599 23.9662C10.8075 23.9672 10.8555 23.9676 10.9036 23.968C12.6035 23.9495 13.9808 22.6232 13.9808 20.9947C13.9808 19.9816 13.4042 19.4058 12.3851 18.4754C11.6813 17.8331 10.8663 17.0891 10.3797 16.0368Z" fill-rule="evenodd"/>
	</g>

</svg>