<?xml version="1.0" encoding="utf-8" ?>
<svg xmlns="http://www.w3.org/2000/svg" xmlns:xlink="http://www.w3.org/1999/xlink" width="34" height="34">
	<defs>
		<clipPath id="clip_0">
			<rect x="-1480" y="-266" width="1920" height="2450" clip-rule="evenodd"/>
		</clipPath>
	</defs>
	<g clip-path="url(#clip_0)">
		<path fill="rgb(0,160,62)" stroke="none" d="M0 17C0 7.62623 7.62623 0 17 0C26.3738 0 33.9994 7.62623 34 17C34 26.3738 26.3738 34 17 34C7.62623 34 0 26.3738 0 17ZM2.74005 16.9994C2.74005 24.8631 9.13694 31.26 17 31.26C24.8631 31.26 31.26 24.8631 31.26 17C31.26 9.13694 24.8631 2.73943 17 2.73943C9.13694 2.73943 2.74005 9.13633 2.74005 16.9994Z" fill-rule="evenodd"/>
	</g>
	<defs>
		<clipPath id="clip_1">
			<rect x="-1480" y="-266" width="1920" height="2450" clip-rule="evenodd"/>
		</clipPath>
	</defs>
	<g clip-path="url(#clip_1)">
		<path fill="rgb(0,160,62)" stroke="none" transform="translate(9 11)" d="M12.7393 0.413294L5.06776 8.59174L2.26059 5.59929C1.74364 5.0476 0.90509 5.0476 0.388148 5.59929C-0.129383 6.15035 -0.129383 7.04424 0.388148 7.5953L4.13184 11.5861C4.39031 11.8616 4.72963 12 5.06836 12C5.40708 12 5.74581 11.8622 6.00428 11.5861L14.6123 2.40994C15.1292 1.85825 15.1292 0.964982 14.6123 0.413294C14.0948 -0.137765 13.2568 -0.137765 12.7393 0.413294Z"/>
	</g>

</svg>