<?xml version="1.0" encoding="utf-8" ?>
<svg xmlns="http://www.w3.org/2000/svg" xmlns:xlink="http://www.w3.org/1999/xlink" width="26" height="26">
	<defs>
		<clipPath id="clip_0">
			<rect x="-78" y="-258" width="1920" height="2450" clip-rule="evenodd"/>
		</clipPath>
	</defs>
	<g clip-path="url(#clip_0)">
		<path fill="rgb(0,160,62)" stroke="none" transform="translate(4.48276 9.8623)" d="M3.70297 0.000110862C3.27246 0.000110862 2.92319 0.333381 2.92319 0.74459L2.92319 2.77543L1.45337 0.369442C1.27568 0.078824 0.916249 -0.061929 0.576108 0.0258962C0.23617 0.113721 0 0.408217 0 0.74459L0 5.52903C0 5.94024 0.349076 6.27351 0.779787 6.27351C1.21029 6.27351 1.55957 5.94024 1.55957 5.52903L1.55957 3.49819L3.02939 5.90418C3.10696 6.03097 3.40954 6.37607 3.90665 6.24772C4.24659 6.1599 4.48276 5.8654 4.48276 5.52903L4.48276 0.74459C4.48276 0.333381 4.13368 0.000110862 3.70297 0.000110862L3.70297 0.000110862Z"/>
	</g>
	<defs>
		<clipPath id="clip_1">
			<rect x="-78" y="-258" width="1920" height="2450" clip-rule="evenodd"/>
		</clipPath>
	</defs>
	<g clip-path="url(#clip_1)">
		<path fill="rgb(0,160,62)" stroke="none" transform="translate(15.4375 9.75)" d="M6.51452 0.0120638C6.0798 -0.0610528 5.6632 0.207559 5.58443 0.612319L5.1843 2.67219L4.33902 0.492074C4.22461 0.197086 3.92367 0.000233306 3.58648 0.000233306C3.58648 0.000233306 3.58627 0.000233306 3.58606 0.000233306C3.24929 0.000233306 2.94836 0.196698 2.83373 0.491492L1.98616 2.672L1.58791 0.612901C1.50955 0.208141 1.09337 -0.0608589 0.658646 0.0118699C0.223712 0.0847927 -0.0655497 0.472098 0.0128093 0.876858L0.938529 5.66299C1.00272 5.99464 1.29781 6.24482 1.65856 6.27314C2.01993 6.30184 2.35545 6.10111 2.47862 5.7844L3.58523 2.93692L4.68913 5.78382C4.80438 6.08094 5.10698 6.27586 5.44146 6.27586C5.9931 6.27586 6.19463 5.84259 6.22943 5.66358L7.15953 0.877439C7.23809 0.47268 6.94925 0.0853745 6.51452 0.0120638L6.51452 0.0120638Z"/>
	</g>
	<defs>
		<clipPath id="clip_2">
			<rect x="-78" y="-258" width="1920" height="2450" clip-rule="evenodd"/>
		</clipPath>
	</defs>
	<g clip-path="url(#clip_2)">
		<path fill="rgb(0,160,62)" stroke="none" transform="translate(10.5625 9.75)" d="M2.89831 1.48954C3.27826 1.48954 3.58621 1.15614 3.58621 0.744771C3.58621 0.333402 3.27826 0 2.89831 0L0.687898 0C0.308121 0 0 0.333402 0 0.744771L0 5.53109C0 5.94246 0.308121 6.27586 0.687898 6.27586L2.89831 6.27586C3.27826 6.27586 3.58621 5.94246 3.58621 5.53109C3.58621 5.11972 3.27826 4.78632 2.89831 4.78632L1.3758 4.78632L1.3758 3.8827L2.53 3.8827C2.90995 3.8827 3.21789 3.5493 3.21789 3.13793C3.21789 2.72656 2.90995 2.39316 2.53 2.39316L1.3758 2.39316L1.3758 1.48954L2.89831 1.48954Z"/>
	</g>
	<defs>
		<clipPath id="clip_3">
			<rect x="-78" y="-258" width="1920" height="2450" clip-rule="evenodd"/>
		</clipPath>
	</defs>
	<g clip-path="url(#clip_3)">
		<path fill="rgb(0,160,62)" stroke="none" d="M25.4013 11.3139C25.7872 11.7884 26 12.3875 26 13C26 13.6137 25.7872 14.2122 25.4003 14.6853L24.3111 16.0282L24.5837 17.7387C24.782 18.9807 24.0828 20.2105 22.8946 20.6596L21.2813 21.2766L20.6612 22.8958C20.2794 23.8975 19.1677 24.8112 17.7405 24.5829L16.0296 24.3109L14.6861 25.4013C14.2116 25.7872 13.6125 26 13 26C12.3863 26 11.7878 25.7872 11.3147 25.4003L9.97177 24.3111L8.26128 24.5837C7.01932 24.782 5.78946 24.0828 5.34036 22.8946L4.72345 21.2813L3.1042 20.6612C2.10246 20.2794 1.1888 19.1677 1.41711 17.7405L1.68907 16.0296L0.598663 14.6861C0.212845 14.2116 0 13.6125 0 13C0 12.3863 0.212845 11.7878 0.599655 11.3145L1.68887 9.97177L1.41632 8.26128C1.21796 7.01912 1.91719 5.78946 3.10539 5.34016L4.71869 4.72325L5.33878 3.1042C5.72063 2.10246 6.83226 1.1888 8.25949 1.41711L9.97038 1.68907L11.3139 0.598663C11.7884 0.212845 12.3875 0 13 0C13.6137 0 14.2122 0.212845 14.6855 0.599655L16.0282 1.68887L17.7387 1.41632C18.9807 1.21796 20.2105 1.91719 20.6596 3.10539L21.2766 4.71869L22.8958 5.33878C23.8975 5.72063 24.8112 6.83226 24.5829 8.25949L24.3109 9.97038L25.4013 11.3139ZM23.0245 15.1963L24.2191 13.7236C24.5646 13.3005 24.5599 12.6935 24.2189 12.2744L23.0277 10.8067C22.9049 10.6599 22.7137 10.3419 22.7798 9.89937C22.78 9.89699 22.7803 9.89461 22.7807 9.89223L23.0785 8.01967C23.1779 7.39799 22.7778 6.9241 22.3519 6.76184L20.5827 6.08423C20.25 5.95886 20.0241 5.69841 19.9164 5.42625C19.9152 5.42348 19.914 5.4205 19.913 5.41753L19.2358 3.64693C19.013 3.05779 18.428 2.84911 17.9787 2.92072L16.1058 3.21906C15.9864 3.23849 15.592 3.28253 15.2094 2.98598C15.205 2.98241 15.2007 2.97884 15.1961 2.97546L13.7234 1.78091C13.3005 1.43536 12.6935 1.44012 12.2744 1.78111L10.8067 2.97229C10.6597 3.09508 10.3419 3.2863 9.89937 3.22025C9.89699 3.22005 9.89461 3.21965 9.89203 3.21925L8.01947 2.92151C7.3978 2.82213 6.9241 3.22223 6.76184 3.64812L6.08423 5.41733C5.95866 5.74998 5.69841 5.97592 5.42625 6.08363C5.42328 6.08482 5.4205 6.08601 5.41753 6.08701L3.64673 6.76422C3.05779 6.98698 2.84891 7.57196 2.92072 8.02126L3.21906 9.89421C3.23849 10.0136 3.28233 10.408 2.98578 10.7906C2.98241 10.795 2.97884 10.7993 2.97546 10.8039L1.78091 12.2766C1.43536 12.6995 1.44012 13.3065 1.78091 13.7256L2.97229 15.1933C3.09508 15.3403 3.2863 15.6581 3.22025 16.1006C3.22005 16.103 3.21965 16.1054 3.21925 16.108L2.92131 17.9805C2.82193 18.6022 3.22223 19.0759 3.64792 19.2382L5.41733 19.9158C5.74998 20.0413 5.97572 20.3016 6.08363 20.5737C6.08482 20.5767 6.08601 20.5795 6.08701 20.5825L6.76422 22.3533C6.98679 22.9422 7.57196 23.1511 8.02125 23.0793L9.89401 22.7809C10.0136 22.7615 10.408 22.7177 10.7906 23.0142C10.795 23.0176 10.7993 23.0212 10.8037 23.0245L12.2764 24.2191C12.6995 24.5646 13.3065 24.5599 13.7256 24.2191L15.1933 23.0277C15.3401 22.9049 15.6581 22.7137 16.1006 22.7798C16.103 22.78 16.1054 22.7803 16.1078 22.7807L17.9803 23.0787C18.602 23.1781 19.0759 22.7778 19.2382 22.3521L19.9158 20.5827C20.0411 20.25 20.3016 20.0243 20.5737 19.9164C20.5765 19.9152 20.5795 19.914 20.5825 19.913L22.3531 19.2358C22.9422 19.0132 23.1509 18.428 23.0793 17.9787L22.7809 16.106C22.7615 15.9864 22.7175 15.592 23.014 15.2094C23.0176 15.205 23.0212 15.2007 23.0245 15.1963Z" fill-rule="evenodd"/>
	</g>

</svg>