<?xml version="1.0" encoding="utf-8" ?>
<svg xmlns="http://www.w3.org/2000/svg" xmlns:xlink="http://www.w3.org/1999/xlink" width="35" height="26">
	<defs>
		<clipPath id="clip_0">
			<rect x="-74" y="-354" width="1920" height="2450" clip-rule="evenodd"/>
		</clipPath>
	</defs>
	<g clip-path="url(#clip_0)">
		<path fill="rgb(36,168,172)" stroke="none" transform="translate(0 0.0478516)" d="M32.6345 7.85247L20.5226 7.85247C19.9836 5.90876 18.9253 4.13666 17.4434 2.76255C15.1972 0.679651 12.296 -0.276626 9.27336 0.0693579C4.4259 0.624613 0.549083 4.67673 0.0551944 9.70441C-0.214503 12.449 0.510263 15.1624 2.09577 17.3447C3.61523 19.436 5.7956 20.8818 8.24997 21.4296L10.832 24.1033C11.0487 24.3279 11.3365 24.4468 11.6301 24.4467C11.776 24.4467 11.9232 24.4173 12.0639 24.357C12.4878 24.1751 12.7616 23.7506 12.7616 23.2755L12.7616 21.4036C13.1862 21.3053 13.5998 21.1807 14.0014 21.0321L14.0014 21.1063C14.0014 22.4181 15.032 23.4853 16.2987 23.4853L20.1561 23.4853L22.211 25.6132C22.3948 25.8036 22.6387 25.9044 22.8875 25.9044C23.0112 25.9044 23.136 25.8794 23.2552 25.8284C23.6146 25.6742 23.8467 25.3144 23.8467 24.9116L23.8467 23.4853L32.6346 23.4853C33.9013 23.4853 34.9318 22.4181 34.9318 21.1063L34.9318 10.2313C34.9318 8.91967 33.9012 7.85247 32.6345 7.85247ZM12.1187 20.3822C11.8577 20.4304 11.6678 20.6653 11.6678 20.9398L11.6678 23.2756C11.6678 23.2891 11.6678 23.3008 11.6452 23.3105C11.6229 23.3199 11.6149 23.3119 11.6056 23.3025L11.6055 23.3023L8.90788 20.5088C8.83139 20.4296 8.7339 20.3756 8.62774 20.3538C6.37055 19.8893 4.36122 18.5787 2.96988 16.6637C1.55044 14.7099 0.901744 12.2791 1.1434 9.81908C1.35633 7.65111 2.3042 5.58892 3.81234 4.01217C5.32075 2.43522 7.30279 1.43485 9.39358 1.19541C9.75736 1.15373 10.1187 1.1331 10.4773 1.1331C12.7897 1.1331 14.9724 1.9918 16.7136 3.60642C18.6977 5.44634 19.8357 8.08223 19.8357 10.8383C19.8357 15.5425 16.5903 19.5562 12.1187 20.3822ZM32.6345 22.3525C33.298 22.3525 33.8378 21.7935 33.8378 21.1064L33.8379 21.1064L33.8379 10.2314C33.8379 9.54431 33.2981 8.98531 32.6346 8.98531L20.7741 8.98531C20.8764 9.59334 20.9297 10.213 20.9297 10.8384C20.9297 15.0534 18.5968 18.772 15.0954 20.5541L15.0954 21.1065C15.0954 21.7936 15.6352 22.3526 16.2987 22.3526L20.3827 22.3526C20.5277 22.3526 20.6669 22.4122 20.7694 22.5185L22.7528 24.5724L22.7528 22.9189C22.7528 22.6061 22.9977 22.3525 23.2998 22.3525L32.6345 22.3525Z" fill-rule="evenodd"/>
	</g>
	<defs>
		<clipPath id="clip_1">
			<rect x="-74" y="-354" width="1920" height="2450" clip-rule="evenodd"/>
		</clipPath>
	</defs>
	<g clip-path="url(#clip_1)">
		<path fill="rgb(36,168,172)" stroke="none" transform="translate(21.0038 12.1299)" d="M9.68376 0.165909C9.47021 -0.055303 9.1239 -0.055303 8.91028 0.165909L3.46277 5.80713L0.933692 3.18813C0.720076 2.96691 0.37376 2.96691 0.160212 3.18813C-0.053404 3.40934 -0.053404 3.76797 0.160212 3.98911L3.07599 7.00857C3.18277 7.11914 3.32277 7.17446 3.4627 7.17446C3.60263 7.17446 3.7427 7.11921 3.84947 7.00857L9.68369 0.966893C9.89738 0.745681 9.89738 0.38705 9.68376 0.165909Z"/>
	</g>
	<defs>
		<clipPath id="clip_2">
			<rect x="-74" y="-354" width="1920" height="2450" clip-rule="evenodd"/>
		</clipPath>
	</defs>
	<g clip-path="url(#clip_2)">
		<path fill="rgb(36,168,172)" stroke="none" transform="translate(9.91681 15.1523)" d="M0.54806 0C0.547856 0 0.547583 0 0.54731 0C0.245273 0 0 0.253995 0 0.566772C0 0.566843 0 0.566984 0 0.567125C0 0.567267 0 0.567337 0 0.567479C0 0.880256 0.245273 1.13425 0.54731 1.13425C0.547515 1.13425 0.547856 1.13425 0.54806 1.13425C0.850097 1.13425 1.09537 0.880256 1.09537 0.567479C1.09537 0.567408 1.09537 0.567267 1.09537 0.567125C1.09537 0.566984 1.09537 0.566913 1.09537 0.566772C1.09537 0.253995 0.850097 0 0.54806 0Z"/>
	</g>
	<defs>
		<clipPath id="clip_3">
			<rect x="-74" y="-354" width="1920" height="2450" clip-rule="evenodd"/>
		</clipPath>
	</defs>
	<g clip-path="url(#clip_3)">
		<path fill="rgb(36,168,172)" stroke="none" transform="translate(7.00041 5.48633)" d="M5.90074 1.06395C5.23813 0.377777 4.37268 -7.06522e-05 3.46377 0C1.55385 0.000141304 0 1.60946 0 3.58722C0 3.9 0.244864 4.15364 0.546969 4.15364C0.849006 4.15364 1.09394 3.90007 1.09394 3.58722C1.09394 2.23395 2.15711 1.13284 3.46391 1.13277C4.0806 1.13277 4.67131 1.3927 5.12726 1.86486C5.58322 2.33703 5.83429 2.94881 5.83429 3.58744C5.83422 4.66326 5.14002 5.63006 4.14624 5.93867C3.41103 6.16695 2.91721 6.84909 2.91721 7.63602L2.91721 7.81646C2.91721 8.12924 3.16208 8.38288 3.46418 8.38288C3.76622 8.38288 4.01115 8.12931 4.01115 7.81646L4.01115 7.63602C4.01115 7.35327 4.19174 7.10719 4.46056 7.02375C5.91343 6.57256 6.92823 5.15959 6.92829 3.58751C6.92823 2.64635 6.56335 1.75005 5.90074 1.06395Z"/>
	</g>

</svg>