<?xml version="1.0" encoding="utf-8" ?>
<svg xmlns="http://www.w3.org/2000/svg" xmlns:xlink="http://www.w3.org/1999/xlink" width="26" height="26">
	<defs>
		<clipPath id="clip_0">
			<rect x="-1287" y="-109" width="1920" height="2450" clip-rule="evenodd"/>
		</clipPath>
	</defs>
	<g clip-path="url(#clip_0)">
		<path fill="rgb(89,89,89)" stroke="none" d="M16.6835 19.9152C14.9937 21.0075 12.9808 21.6417 10.8208 21.6417C4.84865 21.6417 0 16.793 0 10.8208C0 4.84865 4.84865 0 10.8208 0C16.793 0 21.6417 4.84865 21.6417 10.8208C21.6417 12.9807 21.0074 14.9937 19.9152 16.6834L25.3314 22.0996L25.3314 22.0997C26.2231 22.9921 26.2229 24.4385 25.3307 25.3307C24.4383 26.2231 22.9914 26.2231 22.099 25.3307L16.6835 19.9152ZM20.7926 10.8208C20.7926 5.31726 16.3244 0.849063 10.8208 0.849063C5.31726 0.849063 0.849063 5.31726 0.849063 10.8208C0.849063 16.3244 5.31726 20.7926 10.8208 20.7926C16.3244 20.7926 20.7926 16.3244 20.7926 10.8208ZM19.4213 17.3852C18.8359 18.1507 18.1507 18.8358 17.3853 19.4212L22.6969 24.7328L22.7028 24.7269C23.2618 25.2858 24.1679 25.2858 24.7269 24.7269C25.2858 24.1679 25.2858 23.2618 24.7269 22.7028L24.7329 22.6968L19.4213 17.3852Z" fill-rule="evenodd"/>
	</g>

</svg>