<?xml version="1.0" encoding="utf-8" ?>
<svg xmlns="http://www.w3.org/2000/svg" xmlns:xlink="http://www.w3.org/1999/xlink" width="26" height="26">
	<defs>
		<clipPath id="clip_0">
			<rect x="-78" y="-402" width="1920" height="2450" clip-rule="evenodd"/>
		</clipPath>
	</defs>
	<g clip-path="url(#clip_0)">
		<path fill="rgb(0,135,203)" stroke="none" transform="translate(1.52588e-05 0)" d="M23.331 17.3169L25.1063 15.5204C26.2302 14.3834 26.2304 12.5331 25.1065 11.3954C24.7616 11.0467 24.3475 10.8017 23.905 10.6659C24.2669 10.1685 24.4627 9.56971 24.4627 8.94051C24.4627 8.16146 24.1627 7.42889 23.6181 6.878C23.0739 6.32712 22.3499 6.02364 21.5797 6.02364C21.5475 6.02364 21.5152 6.02424 21.4829 6.02524C21.5081 5.24659 21.2277 4.45933 20.6415 3.86599C20.0553 3.27304 19.2763 2.98898 18.5079 3.01482C18.5089 2.98237 18.5095 2.94952 18.5095 2.91687C18.5095 2.13762 18.2096 1.40525 17.6651 0.854367C16.5414 -0.282652 14.7127 -0.282853 13.5884 0.854367L12.9746 1.47536L12.3611 0.854567C11.8167 0.303486 11.0927 0 10.3225 0C9.5526 0 8.82879 0.303486 8.28435 0.854167C7.69794 1.44752 7.4182 2.23498 7.44374 3.01422C7.41127 3.01302 7.3788 3.01182 7.34633 3.01182C6.5764 3.01182 5.85239 3.3151 5.30756 3.86599C4.72135 4.45954 4.44161 5.247 4.46715 6.02604C4.43448 6.02484 4.40201 6.02364 4.36935 6.02364C3.59941 6.02364 2.87541 6.32712 2.33136 6.8778C1.78673 7.42869 1.48679 8.16126 1.48679 8.94051C1.48679 9.56951 1.68239 10.1683 2.04449 10.6655C1.59548 10.8025 1.18389 11.0505 0.84277 11.3954C-0.278377 12.5302 -0.280951 14.3748 0.835247 15.5124C0.838019 15.5154 0.84079 15.5182 0.843562 15.5212L2.6214 17.3197C2.62378 17.3223 2.62635 17.3249 2.62892 17.3275C2.73563 17.4357 2.84967 17.5337 2.96925 17.6224L2.44342 18.1544C1.93204 18.6719 1.6715 19.3768 1.71011 20.1394C1.74693 20.8716 2.05835 21.5691 2.58656 22.1036L5.59364 25.1464C6.15154 25.7107 6.88406 25.993 7.61677 25.993C8.34949 25.993 9.0822 25.7107 9.6399 25.1464L11.0376 23.732C11.6753 23.8704 12.3249 23.9407 12.975 23.9407C13.6246 23.9407 14.2744 23.8708 14.9118 23.7324L16.3092 25.1464C16.8671 25.7107 17.5996 25.993 18.3323 25.993C19.0648 25.9928 19.7977 25.7107 20.3554 25.1464L23.3627 22.1036C24.4781 20.975 24.6048 19.2666 23.645 18.2953L23.0046 17.6472L23.3206 17.3273C23.3241 17.3239 23.3275 17.3205 23.331 17.3169ZM9.38451 1.96755C9.63515 1.71394 9.96835 1.57432 10.3227 1.57432C10.6771 1.57432 11.0103 1.71394 11.2609 1.96755L13.642 4.3768C14.1593 4.90044 14.1593 5.7522 13.642 6.27564C13.3914 6.52925 13.0582 6.66887 12.704 6.66887L12.7038 6.66887C12.3494 6.66867 12.0164 6.52925 11.7658 6.27564L11.7648 6.27464L9.38511 3.86679C9.38313 3.86478 9.38135 3.86278 9.37917 3.86098C8.8672 3.33674 8.86898 2.48898 9.38451 1.96755ZM10.9955 22.1044C10.9887 22.1026 10.9822 22.1018 10.9757 22.1002C10.96 22.0964 10.9446 22.0927 10.9289 22.0899C10.9175 22.0879 10.906 22.0865 10.8943 22.0849C10.8814 22.0833 10.8686 22.0817 10.8555 22.0807C10.8418 22.0795 10.8282 22.0789 10.8145 22.0787C10.8034 22.0783 10.7925 22.0781 10.7814 22.0783C10.7668 22.0785 10.7523 22.0793 10.7379 22.0805C10.7274 22.0813 10.7169 22.0821 10.7064 22.0833C10.6922 22.0849 10.6781 22.0871 10.664 22.0895C10.653 22.0913 10.6421 22.0935 10.631 22.096C10.6181 22.0988 10.6054 22.1018 10.5928 22.1054C10.5807 22.1086 10.5686 22.1122 10.5565 22.116C10.5453 22.1198 10.5344 22.1238 10.5233 22.1278C10.5104 22.1328 10.4975 22.1378 10.4851 22.1434C10.475 22.1478 10.4649 22.1526 10.455 22.1575C10.4423 22.1637 10.4298 22.1701 10.4176 22.1771C10.4075 22.1827 10.3976 22.1887 10.3877 22.1949C10.3766 22.2019 10.3653 22.2089 10.3544 22.2165C10.3433 22.2244 10.3324 22.2326 10.3217 22.241C10.3128 22.2478 10.3041 22.2546 10.2954 22.2618C10.2827 22.2726 10.2707 22.2839 10.2588 22.2955C10.2542 22.2999 10.2493 22.3037 10.2447 22.3083L8.53994 24.0333C8.03094 24.5483 7.203 24.5483 6.694 24.0333L3.68692 20.9906C3.43152 20.7322 3.28126 20.4014 3.26404 20.0591C3.2484 19.7472 3.34758 19.4661 3.54378 19.2678L4.618 18.1807C4.63444 18.1809 4.65087 18.1819 4.6675 18.1819L4.6677 18.1819C5.43743 18.1819 6.16124 17.8784 6.70588 17.3275C7.53916 16.4842 7.75397 15.249 7.35128 14.2029C7.89216 14.0875 8.38928 13.8171 8.78959 13.4125C9.24672 12.9495 9.51795 12.3684 9.60288 11.7654C9.83531 11.8257 10.0766 11.8572 10.3227 11.8572L10.3229 11.8572C11.0927 11.8572 11.8165 11.5539 12.3611 11.003C12.9055 10.4521 13.2055 9.71955 13.2055 8.9405C13.2055 8.69191 13.1746 8.44812 13.1154 8.21334C13.7291 8.1252 14.2961 7.84034 14.7422 7.38862C15.8661 6.2516 15.8661 4.40124 14.7424 3.26382L14.0748 2.58834L14.6885 1.96755C15.206 1.44411 16.0478 1.44411 16.565 1.96735C16.8156 2.22095 16.9536 2.55809 16.9536 2.91667C16.9536 3.27524 16.8156 3.61238 16.565 3.86599C16.4131 4.01963 16.3371 4.22115 16.3371 4.42268C16.3371 4.624 16.4129 4.82552 16.565 4.97917C16.8689 5.28666 17.3612 5.28666 17.6651 4.97917C18.1822 4.45593 19.024 4.45573 19.5416 4.97917C20.0589 5.5028 20.0587 6.35457 19.5414 6.87801C19.3895 7.03165 19.3135 7.23317 19.3135 7.43449C19.3135 7.63602 19.3893 7.83734 19.5414 7.99099C19.8453 8.29848 20.3376 8.29848 20.6415 7.99119C20.8922 7.73758 21.2256 7.59796 21.5799 7.59776C21.9343 7.59776 22.2675 7.73738 22.5179 7.99099C22.7688 8.24479 22.9068 8.58193 22.9068 8.9405C22.9068 9.29427 22.7724 9.6272 22.528 9.87941C22.5245 9.88301 22.5209 9.88642 22.5176 9.89002L21.4019 11.019C21.1242 11.3001 21.0971 11.7466 21.3388 12.0599L21.3788 12.1118C21.6199 12.4245 22.0535 12.5066 22.3901 12.3037C22.9117 11.9892 23.5763 12.0735 24.0063 12.5084C24.5237 13.0321 24.5237 13.8838 24.0063 14.4073L22.2208 16.2137C22.2174 16.2173 22.2139 16.221 22.2105 16.2246L18.3778 20.1026C16.4549 22.0483 13.6262 22.8153 10.9955 22.1044ZM6.40772 4.97937C5.89179 5.5014 5.8906 6.35056 6.40436 6.8744L6.40772 6.8778L6.40792 6.878L8.78939 9.28726C8.79018 9.28826 8.79098 9.28906 8.79177 9.28986L9.37521 9.88041C9.37838 9.88341 9.38154 9.88642 9.38471 9.88962C9.63515 10.1432 9.96835 10.2829 10.3227 10.2829C10.6771 10.2829 11.0103 10.1432 11.2609 9.88962C11.5116 9.63622 11.6496 9.29908 11.6496 8.9405C11.6496 8.58173 11.5114 8.24459 11.2607 7.99098L10.6698 7.39303C10.6682 7.39143 10.6664 7.38982 10.665 7.38822L8.28673 4.98177C8.28594 4.98097 8.28514 4.98017 8.28415 4.97937L8.28376 4.97897C8.03312 4.72556 7.70032 4.58614 7.34633 4.58614C6.99195 4.58614 6.65856 4.72576 6.40772 4.97937ZM3.43172 7.99099C3.68216 7.73758 4.01516 7.59796 4.36954 7.59796C4.72392 7.59796 5.05712 7.73758 5.30776 7.99119L7.69161 10.4032C8.20635 10.9269 8.20536 11.7766 7.68923 12.2993C7.43859 12.5527 7.1052 12.6923 6.75082 12.6923C6.39644 12.6923 6.06324 12.5527 5.8128 12.2991C5.80963 12.2961 5.80666 12.2929 5.80349 12.2899L3.43905 9.89744C3.43647 9.89483 3.4339 9.89203 3.43152 9.88962C3.18089 9.63602 3.0429 9.29908 3.0429 8.94051C3.0427 8.58193 3.18089 8.24479 3.43172 7.99099ZM1.94214 14.4063C1.94511 14.4093 1.94808 14.4123 1.95105 14.4155L3.72869 16.2137C3.73067 16.2159 3.73285 16.2179 3.73483 16.2202C3.93498 16.4203 4.18721 16.5481 4.46041 16.5911C4.46517 16.5919 4.46992 16.5925 4.47467 16.5935C4.53802 16.6028 4.60236 16.6076 4.6675 16.6076L4.6677 16.6076C5.02188 16.6076 5.35508 16.4679 5.60571 16.2143C6.12283 15.6909 6.12283 14.8391 5.60552 14.3157L3.81976 12.509C3.56912 12.2552 3.23573 12.1156 2.88135 12.1156C2.52697 12.1156 2.19377 12.2552 1.94313 12.5088C1.42621 13.0319 1.42581 13.8828 1.94214 14.4063ZM22.2628 20.9906C22.7543 20.4932 22.8862 19.7538 22.5451 19.4085L21.9044 18.7604L19.478 21.2157C18.6427 22.0609 17.6576 22.7314 16.582 23.1959L17.4095 24.0333C17.9185 24.5483 18.7465 24.5483 19.2555 24.0333L22.2628 20.9906Z" fill-rule="evenodd"/>
	</g>

</svg>